<svg width="46" height="48" viewBox="0 0 46 48" fill="none" xmlns="http://www.w3.org/2000/svg">
<path d="M10.7508 15.6486L12.0193 19.7711C12.1411 20.167 12.3224 20.542 12.557 20.8832L16.6931 26.8993L20.591 31.4469C21.2358 32.1991 22.1321 32.6912 23.1129 32.8313L25.7621 33.2097C26.7562 33.3517 27.7679 33.1223 28.6035 32.5652L32.9361 29.6768C33.2628 29.459 33.5563 29.1952 33.8077 28.8936L39.2482 22.365C39.4497 22.1232 39.6226 21.8589 39.7633 21.5773L40.2103 20.6834C40.3151 20.4738 40.4017 20.2554 40.4691 20.0309L41.2394 17.463C41.4696 16.6956 41.9206 16.013 42.536 15.5001L42.5728 15.4695C43.5034 14.694 44.0415 13.5451 44.0415 12.3337V11.2943C44.0415 10.5545 43.8404 9.8286 43.4598 9.19422L42.7401 7.99471C42.0281 6.80798 40.7456 6.08185 39.3616 6.08185C37.7506 6.08185 36.3018 7.06271 35.7035 8.55854L35.0614 10.1637L33.9448 12.9553C33.6219 13.7627 32.921 14.3584 32.0721 14.547C30.7556 14.8396 29.4309 14.0896 29.0044 12.8101L28.3317 10.7921C28.193 10.3759 28.1223 9.94004 28.1223 9.50131V6.48604C28.1223 6.21724 28.0957 5.9491 28.043 5.68552L27.5461 3.20078C27.4064 2.50258 26.7934 2 26.0814 2H25.9876C24.3185 2 22.8176 3.01618 22.1977 4.56589L21.8833 5.35198C21.6904 5.83413 21.5913 6.34865 21.5913 6.86795V13.0985C21.5913 13.8253 21.2685 14.5146 20.7101 14.9799C19.8018 15.7368 18.4826 15.7368 17.5743 14.9799L16.9578 14.4662C16.7818 14.3195 16.621 14.1554 16.4778 13.9765L14.007 10.888C13.6408 10.4302 13.0863 10.1637 12.5001 10.1637C11.4343 10.1637 10.5703 11.0277 10.5703 12.0935V14.4481C10.5703 14.855 10.6312 15.2597 10.7508 15.6486Z" fill="#275A82" stroke="#EE9B19" stroke-width="2.44911"/>
<path d="M28.1239 44.0427L24.4774 46.2867C23.4575 46.9143 22.173 46.9215 21.1462 46.3054C20.9008 46.1582 20.6763 45.9788 20.4786 45.7721L3.98768 28.5316L2.91246 27.2068C2.32217 26.4795 2 25.5693 2 24.6326C2 23.0319 2.93557 21.5754 4.39277 20.913L5.68512 20.3256C6.21558 20.0845 6.79152 19.9597 7.3742 19.9597H9.71787C11.0238 19.9597 12.2509 20.5846 13.019 21.6407L15.0619 24.4498L19.0864 30.8218C19.6472 31.7098 20.5287 32.3474 21.5476 32.6021L24.8085 33.4174C25.8837 33.6862 27.022 33.5062 27.9619 32.9188L32.4771 30.0968C32.8382 29.8711 33.1617 29.5903 33.436 29.2646L39.553 22.0007C41.0895 20.1569 44.0649 21.6339 43.5252 23.9725L43.3007 24.9453C43.2516 25.1583 43.1749 25.364 43.0727 25.5571L39.7329 31.8655C39.6133 32.0915 39.4726 32.3058 39.3128 32.5055L33.3458 39.9643C33.1308 40.233 32.8828 40.4735 32.6075 40.6799L28.1239 44.0427Z" fill="#C92325"/>
<path d="M2.81637 27.3071L3.98768 28.5316M3.98768 28.5316L20.4786 45.7721C20.6763 45.9788 20.9008 46.1582 21.1462 46.3054V46.3054C22.173 46.9215 23.4575 46.9143 24.4774 46.2867L28.1239 44.0427L32.6075 40.6799C32.8828 40.4735 33.1308 40.233 33.3458 39.9643L39.3128 32.5055C39.4726 32.3058 39.6133 32.0915 39.7329 31.8655L43.0727 25.5571C43.1749 25.364 43.2516 25.1583 43.3007 24.9453L43.5252 23.9725C44.0649 21.6339 41.0895 20.1569 39.553 22.0007V22.0007L33.436 29.2646C33.1617 29.5903 32.8382 29.8711 32.4771 30.0968L27.9619 32.9188C27.022 33.5062 25.8837 33.6862 24.8085 33.4174L21.5476 32.6021C20.5287 32.3474 19.6472 31.7098 19.0864 30.8218L15.0619 24.4498L13.019 21.6407C12.2509 20.5846 11.0238 19.9597 9.71787 19.9597H7.3742C6.79152 19.9597 6.21558 20.0845 5.68512 20.3256L4.39277 20.913C2.93557 21.5754 2 23.0319 2 24.6326V24.6326C2 25.5693 2.32217 26.4795 2.91246 27.2068L3.98768 28.5316Z" stroke="#EE9B19" stroke-width="2.44911"/>
</svg>
