<svg width="124" height="210" viewBox="0 0 124 210" fill="none" xmlns="http://www.w3.org/2000/svg">
<path d="M122.456 2L63.2687 35.8794M31.4303 71.7997V65.4927C31.4303 64.313 31.9406 63.1911 32.8298 62.4159L63.2687 35.8794M31.4303 71.7997V91.6031C31.4303 92.5241 31.1188 93.418 30.5465 94.1396L23.1223 103.501C22.4321 104.371 22.1264 105.485 22.2756 106.585L24.8284 125.412C25.1028 127.436 26.8308 128.946 28.8732 128.946H51.4313C53.6857 128.946 55.5132 130.769 55.5132 133.023C55.5132 137.529 55.5132 144.921 55.5132 150.774C55.5132 151.706 55.8325 152.608 56.4181 153.334L65.6986 164.838C65.8989 165.087 66.1275 165.31 66.3798 165.505L75.414 172.486C76.4143 173.259 77 174.452 77 175.716V209.212M31.4303 71.7997L13.1604 76.5657C12.824 76.6535 12.4778 76.6979 12.1301 76.6979H0M63.2687 35.8794L56.4176 28.3071C55.8303 27.6579 55.0498 27.2148 54.1913 27.0431L40.4262 24.2901C38.5182 23.9085 37.1449 22.2332 37.1449 20.2875V5.67367" stroke="#B28547" stroke-width="2.44911"/>
</svg>
