<svg width="46" height="48" viewBox="0 0 46 48" fill="none" xmlns="http://www.w3.org/2000/svg">
<path d="M35.7048 32.66L34.4363 28.5375C34.3145 28.1416 34.1332 27.7666 33.8985 27.4254L29.7625 21.4093L25.8646 16.8617C25.2198 16.1095 24.3234 15.6174 23.3426 15.4773L20.6935 15.0989C19.6993 14.9569 18.6877 15.1863 17.852 15.7434L13.5195 18.6318C13.1928 18.8496 12.8992 19.1134 12.6479 19.415L7.20739 25.9436C7.00587 26.1854 6.833 26.4497 6.69223 26.7313L6.24528 27.6252C6.14044 27.8348 6.05386 28.0532 5.9865 28.2777L5.21613 30.8456C4.98592 31.6129 4.535 32.2956 3.91956 32.8085L3.88277 32.8391C2.95214 33.6146 2.41406 34.7635 2.41406 35.9749V37.0143C2.41406 37.7541 2.61512 38.48 2.99575 39.1144L3.71546 40.3139C4.4275 41.5006 5.70997 42.2267 7.09393 42.2267C8.70499 42.2267 10.1537 41.2459 10.7521 39.7501L11.3941 38.1449L12.5108 35.3533C12.8337 34.5459 13.5346 33.9502 14.3834 33.7616C15.7 33.469 17.0247 34.219 17.4512 35.4985L18.1238 37.5165C18.2626 37.9327 18.3333 38.3686 18.3333 38.8073V41.8226C18.3333 42.0914 18.3598 42.3595 18.4126 42.6231L18.9095 45.1078C19.0491 45.806 19.6622 46.3086 20.3742 46.3086H20.468C22.1371 46.3086 23.638 45.2924 24.2579 43.7427L24.5723 42.9566C24.7652 42.4745 24.8643 41.9599 24.8643 41.4406V35.2101C24.8643 34.4833 25.1871 33.794 25.7455 33.3287C26.6537 32.5718 27.973 32.5718 28.8812 33.3287L29.4977 33.8424C29.6738 33.9891 29.8346 34.1532 29.9778 34.3321L32.4485 37.4206C32.8148 37.8784 33.3692 38.1449 33.9555 38.1449C35.0213 38.1449 35.8853 37.2809 35.8853 36.2151V33.8604C35.8853 33.4535 35.8244 33.0489 35.7048 32.66Z" fill="#275A82" stroke="#EE9B19" stroke-width="2.44911"/>
<path d="M18.3317 4.26594L21.9782 2.02194C22.9981 1.39434 24.2826 1.38713 25.3094 2.00322C25.5547 2.15042 25.7793 2.32978 25.977 2.53652L42.4679 19.777L43.5431 21.1018C44.1334 21.8291 44.4556 22.7393 44.4556 23.676C44.4556 25.2767 43.52 26.7332 42.0628 27.3956L40.7704 27.983C40.24 28.2241 39.6641 28.3489 39.0814 28.3489H36.7377C35.4318 28.3489 34.2047 27.724 33.4366 26.6678L31.3936 23.8588L27.3692 17.4868C26.8084 16.5988 25.9269 15.9612 24.908 15.7065L21.6471 14.8912C20.5718 14.6224 19.4335 14.8024 18.4937 15.3898L13.9784 18.2118C13.6174 18.4375 13.2938 18.7183 13.0196 19.044L6.90253 26.3079C5.36606 28.1517 2.39065 26.6747 2.93032 24.3361L3.15483 23.3633C3.20397 23.1503 3.28065 22.9446 3.38291 22.7515L6.72262 16.4431C6.84229 16.2171 6.98294 16.0028 7.14272 15.8031L13.1098 8.34425C13.3247 8.07556 13.5728 7.83513 13.8481 7.62868L18.3317 4.26594Z" fill="#C92325"/>
<path d="M43.6392 21.0015L42.4679 19.777M42.4679 19.777L25.977 2.53652C25.7793 2.32978 25.5547 2.15042 25.3094 2.00322V2.00322C24.2826 1.38713 22.9981 1.39434 21.9782 2.02194L18.3317 4.26594L13.8481 7.62868C13.5728 7.83513 13.3247 8.07556 13.1098 8.34425L7.14272 15.8031C6.98295 16.0028 6.84229 16.2171 6.72262 16.4431L3.38291 22.7515C3.28065 22.9446 3.20397 23.1503 3.15483 23.3633L2.93032 24.3361C2.39065 26.6747 5.36606 28.1517 6.90253 26.3079V26.3079L13.0196 19.044C13.2938 18.7183 13.6174 18.4375 13.9784 18.2118L18.4937 15.3898C19.4335 14.8024 20.5718 14.6224 21.6471 14.8912L24.908 15.7065C25.9269 15.9612 26.8084 16.5988 27.3692 17.4868L31.3936 23.8588L33.4366 26.6678C34.2047 27.724 35.4318 28.3489 36.7377 28.3489H39.0814C39.6641 28.3489 40.24 28.2241 40.7704 27.983L42.0628 27.3956C43.52 26.7332 44.4556 25.2767 44.4556 23.676V23.676C44.4556 22.7393 44.1334 21.8291 43.5431 21.1018L42.4679 19.777Z" stroke="#EE9B19" stroke-width="2.44911"/>
</svg>
