<svg width="62" height="61" viewBox="0 0 62 61" fill="none" xmlns="http://www.w3.org/2000/svg">
<path d="M29.2367 33.7344L23.9002 32.9339C22.7202 32.7569 21.6767 32.0725 21.0443 31.0606L20.4853 30.1663C20.1657 29.6548 19.9633 29.0788 19.8928 28.4798L19.2456 22.9783C19.2044 22.6278 19.2088 22.2735 19.2587 21.9241L19.8242 17.9657C19.9387 17.1639 20.2892 16.4143 20.831 15.8123L22.8888 13.5259C23.4016 12.9561 24.0644 12.5423 24.8015 12.3317L32.2454 10.2048L40.4091 7.34753L46.1578 4.83247C46.6738 4.60675 47.2308 4.49023 47.7939 4.49023H52.0013C55.0573 4.49023 56.3395 8.39198 53.8792 10.2048L45.7155 17.5522L39.1846 25.3077L34.6484 31.5885C34.1476 32.282 33.4416 32.8005 32.6301 33.071L31.133 33.5701C30.5226 33.7735 29.8729 33.8298 29.2367 33.7344Z" fill="#C92325" stroke="#E5CA9B" stroke-width="2.44911"/>
<path d="M8.17331 38.2176L5.70114 42.3379C5.19701 43.1781 5.12702 44.2093 5.51301 45.11C5.89636 46.0044 6.68338 46.6625 7.63164 46.8813L10.4522 47.5322C11.0941 47.6803 11.6906 47.9816 12.1908 48.4103L17.1439 52.6559L23.5814 57.9738C24.7569 58.9449 26.5322 58.1088 26.5322 56.584C26.5322 56.1562 26.3801 55.7424 26.103 55.4165L19.593 47.7577L17.6892 45.8538C15.8911 44.0557 17.0551 40.9771 19.593 40.8185H28.5731H35.477C35.7717 40.8185 36.0654 40.8523 36.3523 40.9193L43.3794 42.5589C44.8621 42.9049 45.9121 41.1401 44.9005 40.0022L41.6932 36.0821C41.3848 35.7051 41.0114 35.3864 40.5908 35.141L36.917 32.998C36.5274 32.7708 36.103 32.6097 35.6608 32.5212L30.9395 31.577C30.4544 31.48 29.9558 31.4719 29.4679 31.5533L27.6114 31.8627C25.1234 32.2773 22.8585 30.3587 22.8585 27.8364V27.3484V17.3755C22.8585 16.9515 22.9246 16.5301 23.0543 16.1264L26.4535 5.55122C26.5052 5.39033 26.5945 5.24408 26.714 5.12458L27.577 4.26158C28.2975 3.54109 27.4293 2.37422 26.5322 2.8573L21.9204 5.16318C21.7298 5.25852 21.5468 5.36865 21.3734 5.49256L16.9995 8.61675C16.2975 9.11817 15.7724 9.8291 15.4996 10.6475L14.0879 14.8826C13.9492 15.2989 13.8785 15.7347 13.8785 16.1734V19.693C13.8785 19.8969 13.9135 20.0992 13.9821 20.2912L14.1626 20.7967C14.6962 22.2908 12.9783 23.5767 11.6951 22.6435C11.5197 22.5159 11.3204 22.4251 11.1091 22.3763L6.97498 21.4223C6.42559 21.2955 5.84887 21.3718 5.35137 21.6371L4.02589 22.3441C2.60721 23.1007 2.8666 25.2077 4.42643 25.5977C4.73525 25.6749 5.01728 25.8346 5.24237 26.0597L7.77259 28.5899C8.29571 29.113 8.66683 29.7685 8.84626 30.4862L9.18251 31.8312C9.31833 32.3745 9.34091 32.9399 9.24885 33.4922L8.69946 36.7886C8.61527 37.2937 8.43678 37.7785 8.17331 38.2176Z" fill="#275A82" stroke="#EE9B19" stroke-width="2.44911"/>
</svg>
