<svg width="51" height="66" viewBox="0 0 51 66" fill="none" xmlns="http://www.w3.org/2000/svg">
<path d="M36.7336 26.0798L30.0748 18.5888C29.4369 17.8711 28.4937 17.5028 27.5383 17.5984C26.4533 17.7069 25.513 18.3965 25.0835 19.3987L20.3605 30.4191C20.0484 31.1473 20.0105 31.9639 20.2537 32.7179L25.4858 48.9374C25.968 50.4321 27.7274 51.0746 29.0593 50.2422L34.9626 45.9787L41.1938 41.0593L48.7368 35.812L44.4734 32.2044L37.1635 26.4837C37.0084 26.3623 36.8645 26.2271 36.7336 26.0798Z" fill="#275A82" stroke="#C92325" stroke-width="1.96775"/>
<path d="M17.0576 13.1938L12.4936 19.8983C12.2033 20.3249 11.9869 20.7973 11.8536 21.2958L10.8465 25.0615C10.743 25.4484 10.6906 25.8472 10.6906 26.2477V38.5745C10.6906 39.1798 10.8103 39.7792 11.0428 40.3381L15.0612 49.9976C15.179 50.2808 15.3249 50.5514 15.4966 50.8055L20.5133 58.2265C20.9316 58.8455 21.4948 59.353 22.1537 59.705L31.0509 64.4577C31.7166 64.8133 32.4596 64.9994 33.2143 64.9994H44.7983L34.9596 54.8326L29.1821 48.9997C28.6852 48.498 28.3106 47.8885 28.0877 47.2185L25.2559 38.7095C24.952 37.7963 24.9427 36.8108 25.2293 35.8921L28.4266 25.6443L33.3039 13.9201C33.6806 13.0145 34.3374 12.2534 35.1781 11.7482L44.7983 5.9668H36.6125H28.0904C27.1264 5.9668 26.1868 6.27026 25.4048 6.83416L18.1674 12.0534C17.7339 12.3661 17.3583 12.752 17.0576 13.1938Z" fill="#C92325" stroke="#EE9B19" stroke-width="1.96775"/>
<path d="M1.84187 38.4922V31.9783C1.84187 31.693 1.87909 31.4089 1.9526 31.1333L3.1537 26.6291L5.25556 19.4228C5.38339 18.9845 5.60131 18.5778 5.89537 18.2286L10.6968 12.5269L18.5678 4L16.9871 12.2192C16.9478 12.4239 16.889 12.6243 16.8116 12.8179L14.9602 17.4463L12.1546 23.9928C12.0576 24.2192 11.9863 24.4557 11.9423 24.698L10.7793 31.0946C10.7245 31.3957 10.7122 31.703 10.7427 32.0076L11.2926 37.5072C11.3323 37.9042 11.4441 38.2906 11.6226 38.6475L14.2001 43.8025C14.2695 43.9413 14.3289 44.0848 14.378 44.2321L16.272 49.9142L18.4535 56.147C18.5295 56.364 18.628 56.5724 18.7476 56.7688L23.1592 64.0164L9.95494 55.8424C9.57881 55.6095 9.25368 55.303 8.9991 54.9412L3.58375 47.2457C3.30068 46.8435 3.11172 46.3827 3.03085 45.8975L1.88649 39.0313C1.85679 38.8532 1.84187 38.6728 1.84187 38.4922Z" fill="#275A82" stroke="#C92325" stroke-width="1.96775"/>
<path d="M14.0761 25.8359L11.1857 28.3527C10.6868 28.7871 10.2877 29.3242 10.0156 29.9271L9.78653 30.4349C9.51877 31.0284 9.38029 31.6721 9.38029 32.3232V36.1912C9.38029 37.1352 9.67123 38.0562 10.2135 38.8288L12.5578 42.1691C12.7681 42.4688 13.0136 42.7423 13.2889 42.9837L16.6932 45.9687C17.1704 46.3872 17.7292 46.7021 18.3343 46.8937L25.1263 49.0443C25.5746 49.1862 26.042 49.2585 26.5123 49.2585H36.6346L29.2969 44.6117C27.1494 43.5918 27.4394 40.4483 29.7372 39.8384L46.7676 35.3183L29.5705 32.4355C26.8692 31.9827 25.8464 28.6386 27.8323 26.7522C28.1078 26.4905 28.4262 26.278 28.7737 26.124L38.7311 21.71L29.2969 22.3738H22.5499C21.9296 22.3738 21.3157 22.4995 20.7453 22.7433L15.2865 25.0767C14.8459 25.2651 14.4375 25.5212 14.0761 25.8359Z" fill="#C92325" stroke="#EE9B19" stroke-width="1.96775"/>
</svg>
