<svg width="62" height="61" viewBox="0 0 62 61" fill="none" xmlns="http://www.w3.org/2000/svg">
<path d="M29.2367 26.6777L23.9002 27.4782C22.7202 27.6552 21.6767 28.3397 21.0443 29.3515L20.4853 30.2458C20.1657 30.7573 19.9633 31.3333 19.8928 31.9323L19.2456 37.4338C19.2044 37.7843 19.2088 38.1386 19.2587 38.488L19.8242 42.4464C19.9387 43.2482 20.2892 43.9978 20.831 44.5998L22.8888 46.8862C23.4016 47.456 24.0644 47.8699 24.8015 48.0804L32.2454 50.2073L40.4091 53.0646L46.1578 55.5796C46.6738 55.8054 47.2308 55.9219 47.7939 55.9219H52.0013C55.0573 55.9219 56.3395 52.0201 53.8792 50.2073L45.7155 42.8599L39.1846 35.1044L34.6484 28.8236C34.1476 28.1301 33.4416 27.6116 32.6301 27.3411L31.133 26.842C30.5226 26.6386 29.8729 26.5823 29.2367 26.6777Z" fill="#C92325" stroke="#E5CA9B" stroke-width="2.44911"/>
<path d="M8.17331 22.1935L5.70114 18.0732C5.19701 17.233 5.12702 16.2018 5.51301 15.3012C5.89636 14.4067 6.68338 13.7487 7.63164 13.5299L10.4522 12.879C11.0941 12.7308 11.6906 12.4295 12.1908 12.0008L17.1439 7.75524L23.5814 2.43732C24.7569 1.46623 26.5322 2.30236 26.5322 3.82713C26.5322 4.25489 26.3801 4.66871 26.103 4.99464L19.593 12.6535L17.6892 14.5573C15.8911 16.3554 17.0551 19.434 19.593 19.5926H28.5731H35.477C35.7717 19.5926 36.0654 19.5588 36.3523 19.4918L43.3794 17.8522C44.8621 17.5062 45.9121 19.271 44.9005 20.409L41.6932 24.329C41.3848 24.706 41.0114 25.0247 40.5908 25.2701L36.917 27.4131C36.5274 27.6403 36.103 27.8014 35.6608 27.8899L30.9395 28.8341C30.4544 28.9312 29.9558 28.9392 29.4679 28.8579L27.6114 28.5485C25.1234 28.1338 22.8585 30.0524 22.8585 32.5748V33.0627V43.0356C22.8585 43.4597 22.9246 43.8811 23.0543 44.2847L26.4535 54.8599C26.5052 55.0208 26.5945 55.1671 26.714 55.2866L27.577 56.1496C28.2975 56.87 27.4293 58.0369 26.5322 57.5538L21.9204 55.248C21.7298 55.1526 21.5468 55.0425 21.3734 54.9186L16.9995 51.7944C16.2975 51.293 15.7724 50.582 15.4996 49.7636L14.0879 45.5285C13.9492 45.1123 13.8785 44.6764 13.8785 44.2377V40.7181C13.8785 40.5143 13.9135 40.3119 13.9821 40.1199L14.1626 39.6145C14.6962 38.1203 12.9783 36.8345 11.6951 37.7677C11.5197 37.8952 11.3204 37.9861 11.1091 38.0348L6.97498 38.9889C6.42559 39.1157 5.84887 39.0393 5.35137 38.774L4.02589 38.0671C2.60721 37.3104 2.8666 35.2034 4.42643 34.8135C4.73525 34.7362 5.01728 34.5766 5.24237 34.3515L7.77259 31.8213C8.29571 31.2981 8.66683 30.6427 8.84626 29.9249L9.18251 28.5799C9.31833 28.0367 9.34091 27.4713 9.24885 26.9189L8.69946 23.6226C8.61527 23.1174 8.43678 22.6326 8.17331 22.1935Z" fill="#275A82" stroke="#EE9B19" stroke-width="2.44911"/>
</svg>
