<svg width="51" height="66" viewBox="0 0 51 66" fill="none" xmlns="http://www.w3.org/2000/svg">
<path d="M36.4523 40.2288L29.7936 47.7198C29.1557 48.4375 28.2124 48.8057 27.2571 48.7102C26.1721 48.6017 25.2318 47.9121 24.8023 46.9099L20.0792 35.8894C19.7671 35.1613 19.7292 34.3447 19.9724 33.5907L25.2045 17.3712C25.6867 15.8764 27.4462 15.234 28.778 16.0664L34.6813 20.3299L40.9125 25.2493L48.4556 30.4966L44.1921 34.1042L36.8823 39.8249C36.7271 39.9463 36.5832 40.0815 36.4523 40.2288Z" fill="#275A82" stroke="#C92325" stroke-width="1.96775"/>
<path d="M16.7763 53.1148L12.2124 46.4103C11.922 45.9837 11.7056 45.5113 11.5723 45.0128L10.5653 41.2471C10.4618 40.8602 10.4094 40.4614 10.4094 40.0609V27.7341C10.4094 27.1288 10.5291 26.5294 10.7616 25.9705L14.78 16.311C14.8977 16.0278 15.0436 15.7572 15.2154 15.5031L20.232 8.08205C20.6504 7.46312 21.2135 6.95564 21.8725 6.60363L30.7697 1.85085C31.4353 1.49526 32.1784 1.30924 32.933 1.30924H44.5171L34.6783 11.476L28.9008 17.3089C28.4039 17.8106 28.0294 18.4201 27.8064 19.0901L24.9746 27.5991C24.6707 28.5123 24.6614 29.4978 24.9481 30.4165L28.1454 40.6643L33.0227 52.3885C33.3994 53.2941 34.0562 54.0552 34.8969 54.5604L44.5171 60.3418H36.3312H27.8092C26.8451 60.3418 25.9055 60.0383 25.1236 59.4744L17.8862 54.2552C17.4527 53.9425 17.0771 53.5566 16.7763 53.1148Z" fill="#C92325" stroke="#EE9B19" stroke-width="1.96775"/>
<path d="M1.56062 27.8164V34.3303C1.56062 34.6156 1.59784 34.8997 1.67135 35.1753L2.87245 39.6794L4.97431 46.8858C5.10214 47.3241 5.32006 47.7308 5.61412 48.08L10.4155 53.7817L18.2865 62.3086L16.7059 54.0894C16.6665 53.8847 16.6077 53.6842 16.5303 53.4907L14.679 48.8623L11.8733 42.3158C11.7763 42.0894 11.7051 41.8529 11.661 41.6106L10.498 35.214C10.4433 34.9129 10.431 34.6055 10.4614 34.301L11.0114 28.8014C11.0511 28.4044 11.1629 28.018 11.3413 27.6611L13.9188 22.5061C13.9882 22.3673 14.0477 22.2238 14.0968 22.0765L15.9908 16.3944L18.1723 10.1616C18.2482 9.94462 18.3468 9.73621 18.4663 9.53982L22.8779 2.29217L9.67369 10.4662C9.29756 10.6991 8.97243 11.0056 8.71785 11.3674L3.3025 19.0629C3.01943 19.4651 2.83047 19.9259 2.7496 20.4111L1.60524 27.2772C1.57554 27.4554 1.56062 27.6358 1.56062 27.8164Z" fill="#275A82" stroke="#C92325" stroke-width="1.96775"/>
<path d="M13.7948 40.4727L10.9044 37.9559C10.4056 37.5215 10.0064 36.9844 9.73439 36.3815L9.50528 35.8737C9.23752 35.2802 9.09904 34.6365 9.09904 33.9854V30.1174C9.09904 29.1734 9.38998 28.2524 9.93225 27.4798L12.2765 24.1395C12.4869 23.8398 12.7323 23.5663 13.0077 23.3249L16.412 20.3399C16.8892 19.9214 17.448 19.6065 18.053 19.4149L24.8451 17.2643C25.2934 17.1223 25.7608 17.0501 26.231 17.0501H36.3533L29.0156 21.6968C26.8682 22.7168 27.1581 25.8603 29.456 26.4702L46.4863 30.9903L29.2892 33.8731C26.5879 34.3259 25.5651 37.67 27.551 39.5564C27.8266 39.8181 28.145 40.0306 28.4924 40.1846L38.4498 44.5986L29.0156 43.9348H22.2687C21.6484 43.9348 21.0344 43.8091 20.464 43.5653L15.0053 41.2319C14.5646 41.0435 14.1562 40.7874 13.7948 40.4727Z" fill="#C92325" stroke="#EE9B19" stroke-width="1.96775"/>
</svg>
