<svg width="56" height="84" viewBox="0 0 56 84" fill="none" xmlns="http://www.w3.org/2000/svg">
<path d="M22.5974 55.4316H34.1519C35.2802 55.4316 36.3581 54.9646 37.1298 54.1415L41.5877 49.3864C41.8893 49.0647 42.1368 48.6963 42.3205 48.2954L45.5357 41.2805C46.1516 39.9367 45.9928 38.3649 45.1207 37.1714L40.0005 30.1649C39.2319 29.1132 38.0075 28.4914 36.7049 28.4914H29.961C29.5817 28.4914 29.2043 28.5443 28.8396 28.6485L18.4902 31.6054C18.1384 31.706 17.8018 31.8533 17.4892 32.0435L8.57189 37.4715L6.02943 38.6822C3.27388 39.9944 2.88043 43.756 5.30483 45.61L6.93915 46.8598L15.9192 52.5743L20.772 55.0007C21.3387 55.2841 21.9637 55.4316 22.5974 55.4316Z" fill="#E5BC7B" stroke="#EE9B19" stroke-width="2.44911"/>
<path d="M50.8687 51.1634L53.8084 44.304C54.1212 43.5741 54.2143 42.7688 54.0763 41.9867L53.0633 36.2462L50.9147 29.4422C50.7172 28.817 50.3722 28.2486 49.9086 27.785L45.423 23.2994C45.0769 22.9533 44.7958 22.5478 44.5933 22.1022L41.4073 15.0929C41.0255 14.2531 40.9395 13.3088 41.1633 12.4138L43.2668 3.99953L35.1031 10.1223L30.4468 14.4205C30.0184 14.8159 29.6797 15.2985 29.4534 15.8359L26.9899 21.6868C26.6903 22.3983 26.5986 23.1803 26.7255 23.9418L27.4141 28.0731C27.6288 29.3612 28.4469 30.4689 29.6149 31.053L34.2868 33.3889L37.6255 35.5135C38.3727 35.989 38.945 36.6947 39.256 37.524L39.7415 38.8186C39.9133 39.2769 40.0014 39.7624 40.0014 40.2518V42.7062C40.0014 43.5491 39.7404 44.3714 39.2543 45.0601L35.1031 50.9408L32.3179 56.1632C32.0026 56.7544 31.8377 57.4141 31.8377 58.0841V64.3895C31.8377 64.9423 31.9499 65.4893 32.1677 65.9974L33.9372 70.1264C34.1676 70.6638 34.5107 71.1455 34.9433 71.5388L38.7768 75.0238L48.5733 82.3711L43.5315 75.3902C43.3556 75.1467 43.2071 74.8844 43.0888 74.6083L41.1478 70.0793C40.93 69.5712 40.8177 69.0241 40.8177 68.4713V66.3388C40.8177 65.6111 41.0123 64.8965 41.3813 64.2693L44.7054 58.6183C44.8346 58.3987 44.984 58.1917 45.1518 57.9999L50.1888 52.2434C50.4706 51.9213 50.7001 51.5568 50.8687 51.1634Z" fill="#275A82" stroke="#C92325" stroke-width="2.44911"/>
</svg>
