<svg width="56" height="83" viewBox="0 0 56 83" fill="none" xmlns="http://www.w3.org/2000/svg">
<path d="M22.5974 27.9395H34.1519C35.2802 27.9395 36.3581 28.4065 37.1298 29.2296L41.5877 33.9847C41.8893 34.3064 42.1368 34.6748 42.3205 35.0757L45.5357 42.0906C46.1516 43.4344 45.9928 45.0062 45.1207 46.1997L40.0005 53.2062C39.2319 54.2579 38.0075 54.8797 36.7049 54.8797H29.961C29.5817 54.8797 29.2043 54.8268 28.8396 54.7226L18.4902 51.7656C18.1384 51.6651 17.8018 51.5178 17.4892 51.3276L8.57189 45.8996L6.02943 44.6889C3.27388 43.3767 2.88043 39.6151 5.30483 37.7611L6.93915 36.5113L15.9192 30.7967L20.772 28.3704C21.3387 28.087 21.9637 27.9395 22.5974 27.9395Z" fill="#E5BC7B" stroke="#EE9B19" stroke-width="2.44911"/>
<path d="M50.8687 32.2077L53.8084 39.0671C54.1212 39.797 54.2143 40.6023 54.0763 41.3844L53.0633 47.1249L50.9147 53.9289C50.7172 54.5541 50.3722 55.1225 49.9086 55.586L45.423 60.0717C45.0769 60.4178 44.7958 60.8233 44.5933 61.2689L41.4073 68.2782C41.0255 69.118 40.9395 70.0623 41.1633 70.9572L43.2668 79.3716L35.1031 73.2488L30.4468 68.9506C30.0184 68.5552 29.6797 68.0726 29.4534 67.5352L26.9899 61.6843C26.6903 60.9727 26.5986 60.1908 26.7255 59.4293L27.4141 55.298C27.6288 54.0098 28.4469 52.9022 29.6149 52.3181L34.2868 49.9822L37.6255 47.8576C38.3727 47.3821 38.945 46.6764 39.256 45.8471L39.7415 44.5525C39.9133 44.0942 40.0014 43.6087 40.0014 43.1193V40.6649C40.0014 39.822 39.7404 38.9997 39.2543 38.311L35.1031 32.4303L32.3179 27.2079C32.0026 26.6167 31.8377 25.957 31.8377 25.287V18.9816C31.8377 18.4288 31.9499 17.8818 32.1677 17.3737L33.9372 13.2447C34.1676 12.7073 34.5107 12.2256 34.9433 11.8323L38.7768 8.34733L48.5733 1L43.5315 7.98087C43.3556 8.22443 43.2071 8.48668 43.0888 8.76283L41.1478 13.2918C40.93 13.7999 40.8177 14.347 40.8177 14.8998V17.0323C40.8177 17.76 41.0123 18.4746 41.3813 19.1018L44.7054 24.7528C44.8346 24.9724 44.984 25.1794 45.1518 25.3712L50.1888 31.1277C50.4706 31.4498 50.7001 31.8143 50.8687 32.2077Z" fill="#275A82" stroke="#C92325" stroke-width="2.44911"/>
</svg>
