<svg width="46" height="48" viewBox="0 0 46 48" fill="none" xmlns="http://www.w3.org/2000/svg">
<path d="M35.7048 15.6486L34.4363 19.7711C34.3145 20.167 34.1332 20.542 33.8985 20.8832L29.7625 26.8993L25.8646 31.4469C25.2198 32.1991 24.3234 32.6912 23.3426 32.8313L20.6935 33.2097C19.6993 33.3517 18.6877 33.1223 17.852 32.5652L13.5195 29.6768C13.1928 29.459 12.8992 29.1952 12.6479 28.8936L7.20739 22.365C7.00587 22.1232 6.833 21.8589 6.69223 21.5773L6.24528 20.6834C6.14044 20.4738 6.05386 20.2554 5.9865 20.0309L5.21613 17.463C4.98592 16.6956 4.535 16.013 3.91956 15.5001L3.88277 15.4695C2.95214 14.694 2.41406 13.5451 2.41406 12.3337V11.2943C2.41406 10.5545 2.61512 9.8286 2.99575 9.19422L3.71546 7.99471C4.4275 6.80798 5.70997 6.08185 7.09393 6.08185C8.70499 6.08185 10.1537 7.06271 10.7521 8.55854L11.3941 10.1637L12.5108 12.9553C12.8337 13.7627 13.5346 14.3584 14.3834 14.547C15.7 14.8396 17.0247 14.0896 17.4512 12.8101L18.1238 10.7921C18.2626 10.3759 18.3333 9.94004 18.3333 9.50131V6.48604C18.3333 6.21724 18.3598 5.9491 18.4126 5.68552L18.9095 3.20078C19.0491 2.50258 19.6622 2 20.3742 2H20.468C22.1371 2 23.638 3.01618 24.2579 4.56589L24.5723 5.35198C24.7652 5.83413 24.8643 6.34865 24.8643 6.86795V13.0985C24.8643 13.8253 25.1871 14.5146 25.7455 14.9799C26.6537 15.7368 27.973 15.7368 28.8812 14.9799L29.4977 14.4662C29.6738 14.3195 29.8346 14.1554 29.9778 13.9765L32.4485 10.888C32.8148 10.4302 33.3692 10.1637 33.9555 10.1637C35.0213 10.1637 35.8853 11.0277 35.8853 12.0935V14.4481C35.8853 14.855 35.8244 15.2597 35.7048 15.6486Z" fill="#275A82" stroke="#EE9B19" stroke-width="2.44911"/>
<path d="M18.3317 44.0427L21.9782 46.2867C22.9981 46.9143 24.2826 46.9215 25.3094 46.3054C25.5547 46.1582 25.7793 45.9788 25.977 45.7721L42.4679 28.5316L43.5431 27.2068C44.1334 26.4795 44.4556 25.5693 44.4556 24.6326C44.4556 23.0319 43.52 21.5754 42.0628 20.913L40.7704 20.3256C40.24 20.0845 39.6641 19.9597 39.0814 19.9597H36.7377C35.4318 19.9597 34.2047 20.5846 33.4366 21.6407L31.3936 24.4498L27.3692 30.8218C26.8084 31.7098 25.9269 32.3474 24.908 32.6021L21.6471 33.4174C20.5718 33.6862 19.4335 33.5062 18.4937 32.9188L13.9784 30.0968C13.6174 29.8711 13.2938 29.5903 13.0196 29.2646L6.90253 22.0007C5.36606 20.1569 2.39065 21.6339 2.93032 23.9725L3.15483 24.9453C3.20397 25.1583 3.28065 25.364 3.38291 25.5571L6.72262 31.8655C6.84229 32.0915 6.98294 32.3058 7.14272 32.5055L13.1098 39.9643C13.3247 40.233 13.5728 40.4735 13.8481 40.6799L18.3317 44.0427Z" fill="#C92325"/>
<path d="M43.6392 27.3071L42.4679 28.5316M42.4679 28.5316L25.977 45.7721C25.7793 45.9788 25.5547 46.1582 25.3094 46.3054V46.3054C24.2826 46.9215 22.9981 46.9143 21.9782 46.2867L18.3317 44.0427L13.8481 40.6799C13.5728 40.4735 13.3247 40.233 13.1098 39.9643L7.14272 32.5055C6.98295 32.3058 6.84229 32.0915 6.72262 31.8655L3.38291 25.5571C3.28065 25.364 3.20397 25.1583 3.15483 24.9453L2.93032 23.9725C2.39065 21.6339 5.36606 20.1569 6.90253 22.0007V22.0007L13.0196 29.2646C13.2938 29.5903 13.6174 29.8711 13.9784 30.0968L18.4937 32.9188C19.4335 33.5062 20.5718 33.6862 21.6471 33.4174L24.908 32.6021C25.9269 32.3474 26.8084 31.7098 27.3692 30.8218L31.3936 24.4498L33.4366 21.6407C34.2047 20.5846 35.4318 19.9597 36.7377 19.9597H39.0814C39.6641 19.9597 40.24 20.0845 40.7704 20.3256L42.0628 20.913C43.52 21.5754 44.4556 23.0319 44.4556 24.6326V24.6326C44.4556 25.5693 44.1334 26.4795 43.5431 27.2068L42.4679 28.5316Z" stroke="#EE9B19" stroke-width="2.44911"/>
</svg>
