<svg width="62" height="64" viewBox="0 0 62 64" fill="none" xmlns="http://www.w3.org/2000/svg">
<path d="M36.9157 27.96L32.5432 24.985C32.1724 24.7327 31.7462 24.5736 31.3008 24.521L31.0394 24.4902C30.3577 24.4097 29.6703 24.5834 29.1086 24.978L27.5133 26.0987C27.0194 26.4457 26.6513 26.9435 26.4643 27.5175L25.8958 29.263C25.8155 29.5094 25.77 29.7659 25.7605 30.025L25.6794 32.2426C25.673 32.4171 25.6502 32.5906 25.6114 32.7609L24.7008 36.7538L23.3631 40.8609C23.2778 41.1226 23.1543 41.3702 22.9966 41.5958L20.7725 44.7757C20.6033 45.0177 20.3884 45.2242 20.1398 45.3835L18.6238 46.3557C17.5436 47.0484 17.8043 48.6951 19.0457 49.0202L22.1893 49.5219C22.587 49.5854 22.9937 49.562 23.3815 49.4534L25.2666 48.9253C25.4435 48.8758 25.6151 48.8089 25.7788 48.7256L27.232 47.9865C27.587 47.8059 27.8992 47.5514 28.1476 47.2402L29.8736 45.0779C30.348 44.5367 31.2189 44.6458 31.5451 45.2873L32.0023 46.1862L33.2548 48.6486C33.347 48.83 33.4589 49.0008 33.5884 49.1579L34.677 50.4791C34.9096 50.7614 35.1954 50.9952 35.5182 51.1671L37.5249 52.2363C37.8612 52.4155 38.2308 52.5239 38.6106 52.5548L41.4923 52.7891C42.0069 52.831 42.5258 52.7278 42.986 52.4937C43.6455 52.1583 44.1488 51.5725 44.3779 50.869L44.8202 49.5111C44.9372 49.1518 44.9801 48.7725 44.9461 48.3962L44.7912 46.6799C44.7494 46.2166 44.5924 45.7711 44.3345 45.384L42.08 41.9995L41.1125 40.6882C40.6372 40.044 41.0181 39.1255 41.8099 39.0068L45.422 38.1086L48.483 37.1015C48.7644 37.0089 49.0292 36.8721 49.2675 36.6963L51.1914 35.2767C51.4868 35.0588 51.7362 34.7847 51.9255 34.4702L52.5667 33.4045C52.8467 32.9392 52.9848 32.4024 52.9641 31.8598L52.8768 29.5708C52.8553 29.0071 52.6419 28.4677 52.2718 28.042C51.6918 27.3746 50.7997 27.0675 49.9317 27.2364L49.7243 27.2768C49.4698 27.3263 49.2235 27.411 48.9925 27.5286L46.6826 28.7034C46.4662 28.8135 46.2365 28.8948 45.9991 28.9454L42.8536 29.6155C42.3735 29.7178 41.8749 29.6916 41.4082 29.5396L37.621 28.3061C37.3707 28.2246 37.1333 28.108 36.9157 27.96Z" fill="#EE9B19" stroke="#C92325" stroke-width="1.67393"/>
<path d="M22.8059 16.8451L22.7703 16.7368C22.4033 15.6211 23.6098 14.6432 24.6253 15.2333L27.0655 16.6512C27.3724 16.8295 27.7105 16.9476 28.0616 16.9992L31.4355 17.4948C31.7106 17.5352 31.9903 17.5343 32.2652 17.492L34.7455 17.1104C35.0498 17.0636 35.3443 16.9668 35.6169 16.8238L37.3133 15.9344C37.8932 15.6303 38.3477 15.1319 38.5972 14.5264L39.1909 13.0854L40.3673 10.4156C40.5785 9.93636 41.0107 9.59068 41.5247 9.49001C42.3171 9.3348 43.101 9.79391 43.3533 10.5609L43.9578 12.3986L45.0431 15.6981C45.1889 16.1415 45.2212 16.6144 45.1369 17.0736L44.7641 19.1045C44.6789 19.5687 44.4773 20.0036 44.1783 20.3686L42.5925 22.3046C42.4179 22.5178 42.2127 22.7039 41.9835 22.857L38.3109 25.3092C38.1011 25.4493 37.8732 25.5604 37.6334 25.6392L34.1476 26.7858C33.7153 26.928 33.2548 26.9623 32.8063 26.8857L30.3583 26.4677C29.091 26.2513 27.8399 26.929 27.3288 28.1087L27.057 28.7359C26.9292 29.0309 26.7514 29.3015 26.5314 29.5359L24.6952 31.4925C24.5467 31.6508 24.3802 31.7911 24.1992 31.9108L22.1297 33.2787C21.9228 33.4154 21.6986 33.5239 21.4631 33.6014L18.4683 34.5865C18.0569 34.7218 17.6196 34.7595 17.1911 34.6965L13.1235 34.099C12.5785 34.0189 12.0695 33.7794 11.6605 33.4105L7.82705 29.9531C7.46651 29.6279 7.19707 29.2143 7.04537 28.7531L6.46101 26.9765C6.26474 26.3799 6.40324 25.7238 6.82393 25.2573C7.31935 24.708 8.10661 24.5294 8.79055 24.8113L9.6724 25.1746C9.90851 25.2719 10.1301 25.4011 10.3311 25.5587L11.3981 26.3955C12.0362 26.8958 12.8603 27.0938 13.656 26.9379L16.3434 26.4115C16.6572 26.3501 16.9581 26.2351 17.2329 26.0717L18.6068 25.2547C18.8857 25.0889 19.1336 24.8756 19.3392 24.6246L21.0014 22.5954C21.2208 22.3275 21.3885 22.021 21.4957 21.6918L22.8071 17.6668C22.8941 17.3998 22.8937 17.1119 22.8059 16.8451Z" fill="#C92325" stroke="#2E1D06" stroke-width="1.67393"/>
</svg>
