<svg width="57" height="83" viewBox="0 0 57 83" fill="none" xmlns="http://www.w3.org/2000/svg">
<path d="M33.4866 27.9395H21.9321C20.8038 27.9395 19.7259 28.4065 18.9542 29.2296L14.4963 33.9847C14.1947 34.3064 13.9472 34.6748 13.7635 35.0757L10.5483 42.0906C9.9324 43.4344 10.0912 45.0062 10.9633 46.1997L16.0835 53.2062C16.852 54.2579 18.0765 54.8797 19.3791 54.8797H26.123C26.5022 54.8797 26.8797 54.8268 27.2443 54.7226L37.5938 51.7656C37.9455 51.6651 38.2822 51.5178 38.5947 51.3276L47.5121 45.8996L50.0546 44.6889C52.8101 43.3767 53.2036 39.6151 50.7792 37.7611L49.1448 36.5113L40.1648 30.7967L35.312 28.3704C34.7452 28.087 34.1203 27.9395 33.4866 27.9395Z" fill="#E5BC7B" stroke="#EE9B19" stroke-width="2.44911"/>
<path d="M5.21532 32.2077L2.27558 39.0671C1.96276 39.797 1.86965 40.6023 2.00765 41.3844L3.02069 47.1249L5.16932 53.9289C5.36674 54.5541 5.71183 55.1225 6.1754 55.586L10.661 60.0717C11.0071 60.4178 11.2881 60.8233 11.4907 61.2689L14.6767 68.2782C15.0585 69.118 15.1445 70.0623 14.9207 70.9572L12.8171 79.3716L20.9808 73.2488L25.6372 68.9506C26.0656 68.5552 26.4043 68.0726 26.6305 67.5352L29.0941 61.6843C29.3937 60.9727 29.4854 60.1908 29.3584 59.4293L28.6699 55.298C28.4552 54.0098 27.6371 52.9022 26.469 52.3181L21.7972 49.9822L18.4585 47.8576C17.7113 47.3821 17.139 46.6764 16.828 45.8471L16.3425 44.5525C16.1707 44.0942 16.0826 43.6087 16.0826 43.1193V40.6649C16.0826 39.822 16.3436 38.9997 16.8297 38.311L20.9808 32.4303L23.7661 27.2079C24.0814 26.6167 24.2463 25.957 24.2463 25.287V18.9816C24.2463 18.4288 24.134 17.8818 23.9163 17.3737L22.1467 13.2447C21.9164 12.7073 21.5733 12.2256 21.1407 11.8323L17.3072 8.34733L7.51073 1L12.5525 7.98087C12.7284 8.22443 12.8769 8.48668 12.9952 8.76283L14.9362 13.2918C15.154 13.7999 15.2663 14.347 15.2663 14.8998V17.0323C15.2663 17.76 15.0717 18.4746 14.7027 19.1018L11.3786 24.7528C11.2494 24.9724 11.1 25.1794 10.9322 25.3712L5.89523 31.1277C5.61337 31.4498 5.38393 31.8143 5.21532 32.2077Z" fill="#275A82" stroke="#C92325" stroke-width="2.44911"/>
</svg>
