<svg width="69" height="64" viewBox="0 0 69 64" fill="none" xmlns="http://www.w3.org/2000/svg">
<path d="M38.0208 21.3619L44.8007 25.0908C45.3756 25.4071 45.8659 25.8572 46.2299 26.4032L46.4435 26.7237C47.0006 27.5593 47.23 28.5709 47.088 29.5651L46.6846 32.3889C46.5597 33.2632 46.1546 34.0735 45.5301 34.698L43.631 36.5971C43.3628 36.8653 43.0585 37.0948 42.727 37.279L39.8888 38.8558C39.6655 38.9798 39.4543 39.1246 39.258 39.2882L34.6548 43.1241L30.1861 47.5929C29.9013 47.8776 29.6603 48.203 29.4708 48.5583L26.799 53.5679C26.5957 53.949 26.469 54.3663 26.426 54.7961L26.1638 57.418C25.977 59.2862 23.6566 60.0384 22.4093 58.6352L19.6698 54.8684C19.3232 54.3919 19.0839 53.8459 18.9684 53.2681L18.4067 50.4596C18.354 50.196 18.3274 49.9279 18.3274 49.6591V47.2738C18.3274 46.6911 18.4522 46.1152 18.6933 45.5847L20.3683 41.8996C20.7594 40.922 20.0394 39.8587 18.9866 39.8587H17.511H13.4691C13.1713 39.8587 12.8743 39.8261 12.5836 39.7615L10.1386 39.2181C9.61619 39.102 9.12171 38.8843 8.68329 38.5774L5.958 36.6698C5.50117 36.35 5.1147 35.94 4.82245 35.4651L2.60551 31.8625C2.20961 31.2192 2 30.4741 2 29.7187C2 28.6361 2.43005 27.5912 3.19555 26.8257L4.67305 25.3482C5.06393 24.9574 5.53013 24.6499 6.04339 24.4446L8.38443 23.5082C9.01633 23.2555 9.7014 23.1647 10.3773 23.2442L16.2865 23.9394L18.6382 24.3314C19.7936 24.5239 20.7387 23.4179 20.3683 22.3067L19.1438 17.0003L18.4269 12.3404C18.361 11.9121 18.3637 11.4761 18.4349 11.0487L19.01 7.5981C19.0983 7.06834 19.2903 6.56121 19.5749 6.10578L20.5394 4.5627C20.9604 3.88901 21.5689 3.35284 22.2902 3.01992L25.3333 1.61544C26.0826 1.2696 26.9276 1.19018 27.7282 1.39034C28.9833 1.70411 29.9756 2.66382 30.331 3.90776L30.4159 4.20503C30.5201 4.56971 30.573 4.94713 30.573 5.32641V9.11804C30.573 9.47313 30.6193 9.82669 30.7108 10.1698L31.9232 14.7164C32.1083 15.4103 32.4731 16.0431 32.9809 16.551L37.1016 20.6716C37.3739 20.9439 37.6834 21.1763 38.0208 21.3619Z" fill="#EE9B19" stroke="#C92325" stroke-width="2.44911"/>
<path d="M63.862 34.9605H64.0289C65.7472 34.9605 66.5547 32.8367 65.2704 31.6951L62.1843 28.9518C61.7962 28.6068 61.4774 28.1909 61.2452 27.7265L59.014 23.264C58.832 22.9 58.7055 22.5109 58.6386 22.1096L58.0349 18.4878C57.9609 18.0435 57.9609 17.59 58.0349 17.1457L58.4956 14.3815C58.6532 13.4364 59.1381 12.5769 59.8655 11.9533L61.5968 10.4694L64.7696 7.6139C65.3391 7.1013 65.622 6.34254 65.5269 5.5822C65.3804 4.40996 64.3839 3.53027 63.2025 3.53027H60.3722H55.2903C54.6073 3.53027 53.9353 3.70164 53.3357 4.02869L50.6834 5.47538C50.0773 5.80597 49.565 6.28491 49.1943 6.86737L47.2286 9.95638C47.0121 10.2965 46.8472 10.6669 46.7393 11.0553L45.0101 17.2807C44.9113 17.6364 44.8612 18.0039 44.8612 18.3731V23.7421C44.8612 24.4078 45.024 25.0635 45.3355 25.6519L47.0356 28.8632C47.9157 30.5256 47.5458 32.5742 46.1399 33.8238L45.3924 34.4883C45.0409 34.8008 44.746 35.1716 44.5208 35.5845L42.6409 39.031C42.4889 39.3098 42.3699 39.6053 42.2863 39.9116L41.3313 43.4132C41.2359 43.7633 41.1875 44.1244 41.1875 44.4872V49.0998C41.1875 49.7335 41.335 50.3585 41.6184 50.9253L44.3085 56.3053C44.6689 57.0261 45.2345 57.6241 45.9342 58.0239L52.4919 61.7711C53.1086 62.1236 53.8067 62.3089 54.5171 62.3089H57.2533C58.1723 62.3089 59.0209 61.8165 59.4768 61.0186C60.0138 60.0789 59.902 58.9031 59.1977 58.0814L58.2895 57.0219C58.0464 56.7382 57.7654 56.4893 57.4546 56.282L55.8038 55.1815C54.8168 54.5235 54.1648 53.4686 54.0177 52.2915L53.5208 48.3159C53.4627 47.8516 53.4849 47.3808 53.5864 46.9241L54.0938 44.6411C54.1967 44.1777 54.3798 43.7357 54.6347 43.3352L56.6951 40.0974C56.9671 39.6699 57.3164 39.2968 57.725 38.9972L62.7194 35.3346C63.0508 35.0916 63.4511 34.9605 63.862 34.9605Z" fill="#C92325" stroke="#2E1D06" stroke-width="2.44911"/>
</svg>
