<svg width="69" height="65" viewBox="0 0 69 65" fill="none" xmlns="http://www.w3.org/2000/svg">
<path d="M31.4348 42.9467L24.6549 39.2178C24.0799 38.9015 23.5897 38.4514 23.2257 37.9054L23.0121 37.5849C22.455 36.7493 22.2255 35.7376 22.3676 34.7435L22.771 31.9197C22.8959 31.0453 23.301 30.2351 23.9255 29.6106L25.8246 27.7115C26.0928 27.4433 26.3971 27.2138 26.7286 27.0296L29.5668 25.4528C29.7901 25.3288 30.0013 25.184 30.1976 25.0204L34.8007 21.1845L39.2695 16.7157C39.5542 16.431 39.7953 16.1056 39.9848 15.7503L42.6566 10.7407C42.8599 10.3596 42.9866 9.9423 43.0296 9.51247L43.2917 6.89056C43.4786 5.02241 45.799 4.27018 47.0463 5.67342L49.7857 9.44015C50.1323 9.9167 50.3716 10.4626 50.4872 11.0405L51.0489 13.849C51.1016 14.1126 51.1282 14.3807 51.1282 14.6495V17.0348C51.1282 17.6175 51.0034 18.1934 50.7623 18.7239L49.0872 22.409C48.6962 23.3866 49.4161 24.4499 50.469 24.4499H51.9445H55.9865C56.2843 24.4499 56.5812 24.4825 56.872 24.5471L59.317 25.0905C59.8394 25.2066 60.3339 25.4243 60.7723 25.7311L63.4976 27.6388C63.9544 27.9586 64.3409 28.3686 64.6331 28.8435L66.8501 32.4461C67.246 33.0894 67.4556 33.8345 67.4556 34.5899C67.4556 35.6725 67.0255 36.7174 66.26 37.4829L64.7825 38.9604C64.3916 39.3512 63.9254 39.6587 63.4122 39.864L61.0711 40.8004C60.4392 41.0531 59.7542 41.1439 59.0782 41.0644L53.1691 40.3692L50.8173 39.9772C49.662 39.7846 48.7168 40.8907 49.0872 42.0019L50.3118 47.3083L51.0287 51.9682C51.0946 52.3965 51.0919 52.8325 51.0206 53.2599L50.4455 56.7105C50.3572 57.2403 50.1653 57.7474 49.8806 58.2028L48.9162 59.7459C48.4951 60.4196 47.8866 60.9558 47.1653 61.2887L44.1223 62.6932C43.373 63.039 42.528 63.1184 41.7273 62.9183C40.4722 62.6045 39.48 61.6448 39.1246 60.4008L39.0397 60.1036C38.9355 59.7389 38.8826 59.3615 38.8826 58.9822V55.1905C38.8826 54.8355 38.8363 54.4819 38.7448 54.1388L37.5323 49.5922C37.3473 48.8983 36.9824 48.2655 36.4746 47.7576L32.354 43.637C32.0817 43.3647 31.7722 43.1323 31.4348 42.9467Z" fill="#EE9B19" stroke="#C92325" stroke-width="2.44911"/>
<path d="M5.59352 29.3481H5.42667C3.70832 29.3481 2.90082 31.4719 4.18514 32.6135L7.27127 35.3568C7.65939 35.7018 7.97812 36.1177 8.21036 36.5821L10.4416 41.0446C10.6236 41.4086 10.7501 41.7977 10.817 42.199L11.4206 45.8208C11.4947 46.2651 11.4947 46.7186 11.4206 47.1629L10.9599 49.9271C10.8024 50.8722 10.3175 51.7317 9.59004 52.3553L7.8588 53.8392L4.686 56.6947C4.11644 57.2073 3.8336 57.9661 3.92865 58.7264C4.07518 59.8986 5.07167 60.7783 6.25303 60.7783H9.08336H14.1653C14.8483 60.7783 15.5203 60.607 16.1199 60.2799L18.7722 58.8332C19.3783 58.5026 19.8906 58.0237 20.2613 57.4412L22.227 54.3522C22.4435 54.0121 22.6083 53.6417 22.7162 53.2532L24.4455 47.0279C24.5443 46.6722 24.5944 46.3047 24.5944 45.9354V40.5665C24.5944 39.9007 24.4315 39.2451 24.12 38.6567L22.42 35.4454C21.5399 33.783 21.9097 31.7344 23.3156 30.4848L24.0632 29.8203C24.4147 29.5078 24.7095 29.137 24.9348 28.7241L26.8147 25.2776C26.9667 24.9988 27.0857 24.7033 27.1693 24.397L28.1242 20.8954C28.2197 20.5453 28.2681 20.1842 28.2681 19.8213V15.2088C28.2681 14.5751 28.1205 13.9501 27.8371 13.3833L25.1471 8.00328C24.7867 7.28249 24.221 6.68452 23.5213 6.2847L16.9637 2.53746C16.3469 2.18502 15.6489 1.99965 14.9385 1.99965H12.2023C11.2833 1.99965 10.4347 2.49208 9.97876 3.29C9.4418 4.22968 9.55352 5.40547 10.2579 6.2272L11.166 7.28671C11.4092 7.57038 11.6901 7.81934 12.001 8.02658L13.6517 9.12708C14.6388 9.7851 15.2907 10.84 15.4379 12.0171L15.9348 15.9927C15.9928 16.457 15.9706 16.9278 15.8691 17.3845L15.3618 19.6674C15.2588 20.1309 15.0758 20.5729 14.8209 20.9734L12.7604 24.2112C12.4884 24.6387 12.1392 25.0118 11.7306 25.3114L6.73615 28.974C6.40475 29.217 6.00449 29.3481 5.59352 29.3481Z" fill="#C92325" stroke="#2E1D06" stroke-width="2.44911"/>
</svg>
