<svg width="50" height="66" viewBox="0 0 50 66" fill="none" xmlns="http://www.w3.org/2000/svg">
<path d="M14.0033 39.9202L20.662 47.4112C21.2999 48.1289 22.2431 48.4972 23.1985 48.4016C24.2835 48.2931 25.2238 47.6035 25.6533 46.6013L30.3763 35.5809C30.6884 34.8527 30.7264 34.0361 30.4831 33.2821L25.251 17.0626C24.7689 15.5679 23.0094 14.9254 21.6775 15.7578L15.7743 20.0213L9.54305 24.9407L2 30.188L6.26346 33.7956L13.5733 39.5163C13.7285 39.6377 13.8724 39.7729 14.0033 39.9202Z" fill="#275A82" stroke="#C92325" stroke-width="1.96775"/>
<path d="M33.6792 52.8062L38.2432 46.1017C38.5336 45.6751 38.75 45.2027 38.8833 44.7042L39.8903 40.9385C39.9938 40.5516 40.0462 40.1528 40.0462 39.7523V27.4255C40.0462 26.8202 39.9265 26.2208 39.694 25.6619L35.6756 16.0024C35.5578 15.7192 35.412 15.4486 35.2402 15.1945L30.2236 7.77346C29.8052 7.15453 29.2421 6.64704 28.5831 6.29503L19.6859 1.54225C19.0203 1.18667 18.2772 1.00065 17.5225 1.00065H5.93848L15.7772 11.1674L21.5547 17.0003C22.0517 17.502 22.4262 18.1115 22.6491 18.7815L25.4809 27.2905C25.7848 28.2037 25.7941 29.1892 25.5075 30.1079L22.3102 40.3557L17.4329 52.0799C17.0562 52.9855 16.3994 53.7466 15.5587 54.2518L5.93848 60.0332H14.1243H22.6464C23.6104 60.0332 24.5501 59.7297 25.332 59.1658L32.5694 53.9466C33.0029 53.6339 33.3785 53.248 33.6792 52.8062Z" fill="#C92325" stroke="#EE9B19" stroke-width="1.96775"/>
<path d="M48.8949 27.5078V34.0217C48.8949 34.307 48.8577 34.5911 48.7842 34.8667L47.5831 39.3709L45.4813 46.5772C45.3534 47.0155 45.1355 47.4222 44.8414 47.7714L40.0401 53.4731L32.1691 62L33.7497 53.7808C33.789 53.5761 33.8478 53.3757 33.9252 53.1821L35.7766 48.5537L38.5823 42.0072C38.6793 41.7808 38.7505 41.5443 38.7945 41.302L39.9575 34.9054C40.0123 34.6043 40.0246 34.297 39.9942 33.9924L39.4442 28.4928C39.4045 28.0958 39.2927 27.7094 39.1142 27.3525L36.5368 22.1975C36.4674 22.0587 36.4079 21.9152 36.3588 21.7679L34.4648 16.0858L32.2833 9.85302C32.2073 9.63602 32.1088 9.42761 31.9893 9.23123L27.5776 1.98357L40.7819 10.1576C41.158 10.3905 41.4831 10.697 41.7377 11.0588L47.1531 18.7543C47.4361 19.1565 47.6251 19.6173 47.706 20.1025L48.8503 26.9687C48.88 27.1468 48.8949 27.3272 48.8949 27.5078Z" fill="#275A82" stroke="#C92325" stroke-width="1.96775"/>
<path d="M36.6607 40.1641L39.5511 37.6473C40.05 37.2129 40.4491 36.6758 40.7212 36.0729L40.9503 35.5651C41.218 34.9716 41.3565 34.3279 41.3565 33.6768V29.8088C41.3565 28.8648 41.0656 27.9438 40.5233 27.1712L38.1791 23.8309C37.9687 23.5312 37.7232 23.2577 37.4479 23.0163L34.0436 20.0313C33.5664 19.6128 33.0076 19.2979 32.4025 19.1063L25.6105 16.9557C25.1622 16.8138 24.6948 16.7415 24.2245 16.7415H14.1022L21.4399 21.3883C23.5874 22.4082 23.2974 25.5517 20.9996 26.1616L3.96924 30.6817L21.1663 33.5645C23.8677 34.0173 24.8904 37.3614 22.9046 39.2478C22.629 39.5095 22.3106 39.722 21.9632 39.876L12.0058 44.29L21.4399 43.6262H28.1869C28.8072 43.6262 29.4211 43.5005 29.9915 43.2567L35.4503 40.9233C35.8909 40.7349 36.2994 40.4788 36.6607 40.1641Z" fill="#C92325" stroke="#EE9B19" stroke-width="1.96775"/>
</svg>
