<svg width="43" height="50" viewBox="0 0 43 50" fill="none" xmlns="http://www.w3.org/2000/svg">
<path d="M11.5439 46.7723L1.89195 27.1236C1.32993 25.9795 1.33465 24.6385 1.90471 23.4984L4.67367 17.9605L8.34733 10.205L11.3833 4.13309C12.0243 2.8511 13.3346 2.0413 14.7679 2.0413H15.228C17.0638 2.0413 18.552 3.52948 18.552 5.36524C18.552 7.69792 20.8919 9.30501 23.0691 8.46763L25.2374 7.63367C29.0661 6.16111 32.037 11.1496 28.9185 13.8145L27.6375 14.9092C25.7182 16.5493 26.6597 19.6883 29.1648 20.0014H35.9567C36.5904 20.0014 37.2154 20.149 37.7822 20.4324L39.3047 21.1936C40.345 21.7138 41.0022 22.7771 41.0022 23.9402C41.0022 24.8108 40.6327 25.6404 39.9856 26.2227L37.8194 28.1723C37.2326 28.7004 36.5053 29.0471 35.7254 29.1702L32.8011 29.6319C30.735 29.9582 29.2498 31.7934 29.3617 33.8822L29.723 40.6256C29.8914 43.769 25.7189 45.012 24.1396 42.2891L21.4631 37.6744C20.6627 36.2944 18.552 36.8622 18.552 38.4576C18.552 38.669 18.509 38.8782 18.4258 39.0725L15.166 46.6786C14.9802 47.112 14.6469 47.4656 14.2251 47.6765C13.2353 48.1714 12.0318 47.7655 11.5439 46.7723Z" fill="#275A82" stroke="#C92325" stroke-width="2.44911"/>
</svg>
