<svg width="62" height="63" viewBox="0 0 62 63" fill="none" xmlns="http://www.w3.org/2000/svg">
<path d="M36.9157 35.3496L32.5432 38.3245C32.1724 38.5768 31.7462 38.736 31.3008 38.7886L31.0394 38.8194C30.3577 38.8999 29.6703 38.7262 29.1086 38.3316L27.5133 37.2109C27.0194 36.8639 26.6513 36.366 26.4643 35.7921L25.8958 34.0466C25.8155 33.8001 25.77 33.5437 25.7605 33.2846L25.6794 31.067C25.673 30.8925 25.6502 30.719 25.6114 30.5487L24.7008 26.5558L23.3631 22.4487C23.2778 22.187 23.1543 21.9393 22.9966 21.7138L20.7725 18.5338C20.6033 18.2919 20.3884 18.0854 20.1398 17.926L18.6238 16.9539C17.5436 16.2612 17.8043 14.6145 19.0457 14.2894L22.1893 13.7877C22.587 13.7242 22.9937 13.7476 23.3815 13.8562L25.2666 14.3842C25.4435 14.4338 25.6151 14.5007 25.7788 14.584L27.232 15.3231C27.587 15.5037 27.8992 15.7581 28.1476 16.0694L29.8736 18.2317C30.348 18.7728 31.2189 18.6637 31.5451 18.0223L32.0023 17.1234L33.2548 14.661C33.347 14.4796 33.4589 14.3088 33.5884 14.1517L34.677 12.8305C34.9096 12.5482 35.1954 12.3144 35.5182 12.1424L37.5249 11.0733C37.8612 10.894 38.2308 10.7856 38.6106 10.7547L41.4923 10.5204C42.0069 10.4786 42.5258 10.5818 42.986 10.8158C43.6455 11.1513 44.1488 11.737 44.3779 12.4406L44.8202 13.7985C44.9372 14.1578 44.9801 14.537 44.9461 14.9133L44.7912 16.6297C44.7494 17.093 44.5924 17.5384 44.3345 17.9256L42.08 21.3101L41.1125 22.6214C40.6372 23.2656 41.0181 24.1841 41.8099 24.3027L45.422 25.201L48.483 26.2081C48.7644 26.3007 49.0292 26.4375 49.2675 26.6133L51.1914 28.0328C51.4868 28.2508 51.7362 28.5249 51.9255 28.8394L52.5667 29.9051C52.8467 30.3703 52.9848 30.9072 52.9641 31.4498L52.8768 33.7388C52.8553 34.3025 52.6419 34.8419 52.2718 35.2676C51.6918 35.935 50.7997 36.2421 49.9317 36.0732L49.7243 36.0328C49.4698 35.9833 49.2235 35.8985 48.9925 35.781L46.6826 34.6061C46.4662 34.4961 46.2365 34.4148 45.9991 34.3642L42.8536 33.694C42.3735 33.5918 41.8749 33.6179 41.4082 33.77L37.621 35.0035C37.3707 35.085 37.1333 35.2015 36.9157 35.3496Z" fill="#EE9B19" stroke="#C92325" stroke-width="1.67393"/>
<path d="M22.8059 46.4645L22.7703 46.5728C22.4033 47.6885 23.6098 48.6663 24.6253 48.0763L27.0655 46.6584C27.3724 46.4801 27.7105 46.362 28.0616 46.3104L31.4355 45.8148C31.7106 45.7743 31.9903 45.7753 32.2652 45.8176L34.7455 46.1991C35.0498 46.2459 35.3443 46.3428 35.6169 46.4857L37.3133 47.3752C37.8932 47.6793 38.3477 48.1777 38.5972 48.7832L39.1909 50.2241L40.3673 52.8939C40.5785 53.3732 41.0107 53.7189 41.5247 53.8196C42.3171 53.9748 43.101 53.5157 43.3533 52.7486L43.9578 50.911L45.0431 47.6115C45.1889 47.1681 45.2212 46.6951 45.1369 46.236L44.7641 44.205C44.6789 43.7409 44.4773 43.306 44.1783 42.9409L42.5925 41.0049C42.4179 40.7918 42.2127 40.6056 41.9835 40.4526L38.3109 38.0004C38.1011 37.8602 37.8732 37.7492 37.6334 37.6704L34.1476 36.5238C33.7153 36.3816 33.2548 36.3473 32.8063 36.4239L30.3583 36.8419C29.091 37.0582 27.8399 36.3806 27.3288 35.2009L27.057 34.5737C26.9292 34.2787 26.7514 34.0081 26.5314 33.7737L24.6952 31.817C24.5467 31.6588 24.3802 31.5184 24.1992 31.3988L22.1297 30.0309C21.9228 29.8942 21.6986 29.7856 21.4631 29.7082L18.4683 28.7231C18.0569 28.5878 17.6196 28.5501 17.1911 28.613L13.1235 29.2106C12.5785 29.2906 12.0695 29.5302 11.6605 29.8991L7.82705 33.3565C7.46651 33.6816 7.19707 34.0953 7.04537 34.5565L6.46101 36.333C6.26474 36.9297 6.40324 37.5858 6.82393 38.0522C7.31935 38.6016 8.10661 38.7801 8.79055 38.4983L9.6724 38.135C9.90851 38.0377 10.1301 37.9084 10.3311 37.7508L11.3981 36.9141C12.0362 36.4138 12.8603 36.2158 13.656 36.3716L16.3434 36.898C16.6572 36.9595 16.9581 37.0745 17.2329 37.2379L18.6068 38.0549C18.8857 38.2207 19.1336 38.4339 19.3392 38.685L21.0014 40.7142C21.2208 40.9821 21.3885 41.2885 21.4957 41.6178L22.8071 45.6427C22.8941 45.9098 22.8937 46.1977 22.8059 46.4645Z" fill="#C92325" stroke="#2E1D06" stroke-width="1.67393"/>
</svg>
