<svg width="43" height="50" viewBox="0 0 43 50" fill="none" xmlns="http://www.w3.org/2000/svg">
<path d="M31.5401 46.7723L41.192 27.1236C41.7541 25.9795 41.7493 24.6385 41.1793 23.4984L38.4103 17.9605L34.7366 10.205L31.7007 4.13309C31.0597 2.8511 29.7494 2.0413 28.3161 2.0413H27.856C26.0202 2.0413 24.532 3.52948 24.532 5.36524C24.532 7.69792 22.192 9.30501 20.0148 8.46763L17.8465 7.63367C14.0179 6.16111 11.0469 11.1496 14.1655 13.8145L15.4465 14.9092C17.3658 16.5493 16.4243 19.6883 13.9192 20.0014H7.12728C6.49359 20.0014 5.8686 20.149 5.30182 20.4324L3.77933 21.1936C2.73899 21.7138 2.08183 22.7771 2.08183 23.9402C2.08183 24.8108 2.45131 25.6404 3.09837 26.2227L5.26455 28.1723C5.85136 28.7004 6.57873 29.0471 7.35855 29.1702L10.2829 29.6319C12.349 29.9582 13.8342 31.7934 13.7223 33.8822L13.361 40.6256C13.1926 43.769 17.3651 45.012 18.9444 42.2891L21.6209 37.6744C22.4213 36.2944 24.532 36.8622 24.532 38.4576C24.532 38.669 24.575 38.8782 24.6582 39.0725L27.918 46.6786C28.1038 47.112 28.4371 47.4656 28.8589 47.6765C29.8487 48.1714 31.0522 47.7655 31.5401 46.7723Z" fill="#275A82" stroke="#C92325" stroke-width="2.44911"/>
</svg>
