<svg width="57" height="84" viewBox="0 0 57 84" fill="none" xmlns="http://www.w3.org/2000/svg">
<path d="M33.4866 55.4316H21.9321C20.8038 55.4316 19.7259 54.9646 18.9542 54.1415L14.4963 49.3864C14.1947 49.0647 13.9472 48.6963 13.7635 48.2954L10.5483 41.2805C9.9324 39.9367 10.0912 38.3649 10.9633 37.1714L16.0835 30.1649C16.852 29.1132 18.0765 28.4914 19.3791 28.4914H26.123C26.5022 28.4914 26.8797 28.5443 27.2443 28.6485L37.5938 31.6054C37.9455 31.706 38.2822 31.8533 38.5947 32.0435L47.5121 37.4715L50.0546 38.6822C52.8101 39.9944 53.2036 43.756 50.7792 45.61L49.1448 46.8598L40.1648 52.5743L35.312 55.0007C34.7452 55.2841 34.1203 55.4316 33.4866 55.4316Z" fill="#E5BC7B" stroke="#EE9B19" stroke-width="2.44911"/>
<path d="M5.21532 51.1634L2.27558 44.304C1.96276 43.5741 1.86965 42.7688 2.00765 41.9867L3.02069 36.2462L5.16932 29.4422C5.36674 28.817 5.71183 28.2486 6.1754 27.785L10.661 23.2994C11.0071 22.9533 11.2881 22.5478 11.4907 22.1022L14.6767 15.0929C15.0585 14.2531 15.1445 13.3088 14.9207 12.4138L12.8171 3.99953L20.9808 10.1223L25.6372 14.4205C26.0656 14.8159 26.4043 15.2985 26.6305 15.8359L29.0941 21.6868C29.3937 22.3983 29.4854 23.1803 29.3584 23.9418L28.6699 28.0731C28.4552 29.3612 27.6371 30.4689 26.469 31.053L21.7972 33.3889L18.4585 35.5135C17.7113 35.989 17.139 36.6947 16.828 37.524L16.3425 38.8186C16.1707 39.2769 16.0826 39.7624 16.0826 40.2518V42.7062C16.0826 43.5491 16.3436 44.3714 16.8297 45.0601L20.9808 50.9408L23.7661 56.1632C24.0814 56.7544 24.2463 57.4141 24.2463 58.0841V64.3895C24.2463 64.9423 24.134 65.4893 23.9163 65.9974L22.1467 70.1264C21.9164 70.6638 21.5733 71.1455 21.1407 71.5388L17.3072 75.0238L7.51073 82.3711L12.5525 75.3902C12.7284 75.1467 12.8769 74.8844 12.9952 74.6083L14.9362 70.0793C15.154 69.5712 15.2663 69.0241 15.2663 68.4713V66.3388C15.2663 65.6111 15.0717 64.8965 14.7027 64.2693L11.3786 58.6183C11.2494 58.3987 11.1 58.1917 10.9322 57.9999L5.89523 52.2434C5.61337 51.9213 5.38393 51.5568 5.21532 51.1634Z" fill="#275A82" stroke="#C92325" stroke-width="2.44911"/>
</svg>
