<svg width="61" height="64" viewBox="0 0 61 64" fill="none" xmlns="http://www.w3.org/2000/svg">
<path d="M24.5399 27.96L28.9124 24.985C29.2832 24.7327 29.7094 24.5736 30.1548 24.521L30.4162 24.4902C31.0979 24.4097 31.7853 24.5834 32.347 24.978L33.9423 26.0987C34.4362 26.4457 34.8043 26.9435 34.9912 27.5175L35.5597 29.263C35.64 29.5094 35.6856 29.7659 35.695 30.025L35.7762 32.2426C35.7826 32.4171 35.8053 32.5906 35.8442 32.7609L36.7548 36.7538L38.0925 40.8609C38.1777 41.1226 38.3012 41.3702 38.459 41.5958L40.683 44.7757C40.8522 45.0177 41.0672 45.2242 41.3157 45.3835L42.8318 46.3557C43.912 47.0484 43.6513 48.6951 42.4099 49.0202L39.2663 49.5219C38.8686 49.5854 38.4619 49.562 38.074 49.4534L36.189 48.9253C36.0121 48.8758 35.8405 48.8089 35.6768 48.7256L34.2236 47.9865C33.8686 47.8059 33.5564 47.5514 33.3079 47.2402L31.582 45.0779C31.1076 44.5367 30.2367 44.6458 29.9104 45.2873L29.4532 46.1862L28.2008 48.6486C28.1085 48.83 27.9967 49.0008 27.8672 49.1579L26.7786 50.4791C26.546 50.7614 26.2602 50.9952 25.9374 51.1671L23.9307 52.2363C23.5943 52.4155 23.2248 52.5239 22.8449 52.5548L19.9633 52.7891C19.4487 52.831 18.9298 52.7278 18.4696 52.4937C17.8101 52.1583 17.3068 51.5725 17.0776 50.869L16.6353 49.5111C16.5183 49.1518 16.4755 48.7725 16.5095 48.3962L16.6644 46.6799C16.7062 46.2166 16.8632 45.7711 17.1211 45.384L19.3756 41.9995L20.3431 40.6882C20.8184 40.044 20.4374 39.1255 19.6457 39.0068L16.0335 38.1086L12.9725 37.1015C12.6912 37.0089 12.4264 36.8721 12.1881 36.6963L10.2642 35.2767C9.96879 35.0588 9.71932 34.7847 9.53007 34.4702L8.88884 33.4045C8.60889 32.9392 8.47079 32.4024 8.49148 31.8598L8.57876 29.5708C8.60026 29.0071 8.8137 28.4677 9.18373 28.042C9.76378 27.3746 10.6559 27.0675 11.5239 27.2364L11.7313 27.2768C11.9857 27.3263 12.232 27.411 12.4631 27.5286L14.773 28.7034C14.9893 28.8135 15.2191 28.8948 15.4564 28.9454L18.602 29.6155C19.0821 29.7178 19.5806 29.6916 20.0474 29.5396L23.8346 28.3061C24.0848 28.2246 24.3223 28.108 24.5399 27.96Z" fill="#EE9B19" stroke="#C92325" stroke-width="1.67393"/>
<path d="M38.6496 16.8451L38.6853 16.7368C39.0522 15.6211 37.8457 14.6432 36.8302 15.2333L34.3901 16.6512C34.0832 16.8295 33.7451 16.9476 33.3939 16.9992L30.0201 17.4948C29.7449 17.5352 29.4653 17.5343 29.1904 17.492L26.71 17.1104C26.4057 17.0636 26.1113 16.9668 25.8386 16.8238L24.1423 15.9344C23.5624 15.6303 23.1078 15.1319 22.8584 14.5264L22.2646 13.0854L21.0883 10.4156C20.8771 9.93636 20.4449 9.59068 19.9309 9.49001C19.1385 9.3348 18.3545 9.79391 18.1022 10.5609L17.4978 12.3986L16.4125 15.6981C16.2666 16.1415 16.2344 16.6144 16.3186 17.0736L16.6915 19.1045C16.7767 19.5687 16.9782 20.0036 17.2773 20.3686L18.863 22.3046C19.0376 22.5178 19.2429 22.7039 19.4721 22.857L23.1446 25.3092C23.3545 25.4493 23.5824 25.5604 23.8221 25.6392L27.308 26.7858C27.7402 26.928 28.2007 26.9623 28.6493 26.8857L31.0973 26.4677C32.3646 26.2513 33.6157 26.929 34.1268 28.1087L34.3986 28.7359C34.5264 29.0309 34.7042 29.3015 34.9242 29.5359L36.7604 31.4925C36.9089 31.6508 37.0753 31.7911 37.2564 31.9108L39.3259 33.2787C39.5328 33.4154 39.757 33.5239 39.9925 33.6014L42.9873 34.5865C43.3987 34.7218 43.836 34.7595 44.2645 34.6965L48.3321 34.099C48.877 34.0189 49.3861 33.7794 49.7951 33.4105L53.6285 29.9531C53.9891 29.6279 54.2585 29.2143 54.4102 28.7531L54.9946 26.9765C55.1908 26.3799 55.0523 25.7238 54.6316 25.2573C54.1362 24.708 53.349 24.5294 52.665 24.8113L51.7832 25.1746C51.5471 25.2719 51.3254 25.4011 51.1245 25.5587L50.0574 26.3955C49.4194 26.8958 48.5953 27.0938 47.7996 26.9379L45.1122 26.4115C44.7984 26.3501 44.4975 26.2351 44.2226 26.0717L42.8487 25.2547C42.5698 25.0889 42.322 24.8756 42.1163 24.6246L40.4542 22.5954C40.2347 22.3275 40.0671 22.021 39.9598 21.6918L38.6485 17.6668C38.5614 17.3998 38.5619 17.1119 38.6496 16.8451Z" fill="#C92325" stroke="#2E1D06" stroke-width="1.67393"/>
</svg>
