<svg width="124" height="209" viewBox="0 0 124 209" fill="none" xmlns="http://www.w3.org/2000/svg">
<path d="M122.456 207.212L63.2687 173.333M31.4303 137.412V143.719C31.4303 144.899 31.9406 146.021 32.8298 146.796L63.2687 173.333M31.4303 137.412V117.609C31.4303 116.688 31.1188 115.794 30.5465 115.072L23.1223 105.711C22.4321 104.841 22.1264 103.727 22.2756 102.626L24.8284 83.7997C25.1028 81.7758 26.8308 80.2663 28.8732 80.2663H51.4313C53.6857 80.2663 55.5132 78.443 55.5132 76.1886C55.5132 71.6833 55.5132 64.2913 55.5132 58.4381C55.5132 57.5055 55.8325 56.6039 56.4181 55.878L65.6986 44.3736C65.8989 44.1254 66.1275 43.9015 66.3798 43.7065L75.414 36.7256C76.4143 35.9526 77 34.7598 77 33.4956V0M31.4303 137.412L13.1604 132.646C12.824 132.558 12.4778 132.514 12.1301 132.514H0M63.2687 173.333L56.4176 180.905C55.8303 181.554 55.0498 181.997 54.1913 182.169L40.4262 184.922C38.5182 185.303 37.1449 186.979 37.1449 188.924V203.538" stroke="#B28547" stroke-width="2.44911"/>
</svg>
