<svg width="62" height="61" viewBox="0 0 62 61" fill="none" xmlns="http://www.w3.org/2000/svg">
<path d="M32.3981 26.6777L37.7346 27.4782C38.9146 27.6552 39.9581 28.3397 40.5905 29.3515L41.1494 30.2458C41.4691 30.7573 41.6714 31.3333 41.7419 31.9323L42.3892 37.4338C42.4304 37.7843 42.426 38.1386 42.3761 38.488L41.8106 42.4464C41.6961 43.2482 41.3456 43.9978 40.8038 44.5998L38.746 46.8862C38.2332 47.456 37.5703 47.8699 36.8333 48.0804L29.3893 50.2073L21.2256 53.0646L15.4769 55.5796C14.961 55.8054 14.404 55.9219 13.8408 55.9219H9.63351C6.57746 55.9219 5.29522 52.0201 7.75552 50.2073L15.9192 42.8599L22.4502 35.1044L26.9864 28.8236C27.4872 28.1301 28.1932 27.6116 29.0046 27.3411L30.5018 26.842C31.1121 26.6386 31.7619 26.5823 32.3981 26.6777Z" fill="#C92325" stroke="#E5CA9B" stroke-width="2.44911"/>
<path d="M53.4615 22.1935L55.9336 18.0732C56.4378 17.233 56.5077 16.2018 56.1218 15.3012C55.7384 14.4067 54.9514 13.7487 54.0031 13.5299L51.1826 12.879C50.5407 12.7308 49.9442 12.4295 49.444 12.0008L44.4908 7.75524L38.0534 2.43732C36.8778 1.46623 35.1026 2.30236 35.1026 3.82713C35.1026 4.25489 35.2547 4.66871 35.5317 4.99464L42.0417 12.6535L43.9456 14.5573C45.7437 16.3554 44.5796 19.434 42.0417 19.5926H33.0616H26.1577C25.8631 19.5926 25.5694 19.5588 25.2825 19.4918L18.2554 17.8522C16.7726 17.5062 15.7227 19.271 16.7342 20.409L19.9416 24.329C20.25 24.706 20.6233 25.0247 21.044 25.2701L24.7178 27.4131C25.1073 27.6403 25.5318 27.8014 25.974 27.8899L30.6953 28.8341C31.1803 28.9312 31.679 28.9392 32.1669 28.8579L34.0233 28.5485C36.5114 28.1338 38.7762 30.0524 38.7762 32.5748V33.0627V43.0356C38.7762 43.4597 38.7102 43.8811 38.5804 44.2847L35.1813 54.8599C35.1295 55.0208 35.0402 55.1671 34.9207 55.2866L34.0577 56.1496C33.3372 56.87 34.2054 58.0369 35.1026 57.5538L39.7143 55.248C39.905 55.1526 40.0879 55.0425 40.2614 54.9186L44.6353 51.7944C45.3373 51.293 45.8623 50.582 46.1351 49.7636L47.5468 45.5285C47.6856 45.1123 47.7563 44.6764 47.7563 44.2377V40.7181C47.7563 40.5143 47.7213 40.3119 47.6527 40.1199L47.4722 39.6145C46.9385 38.1203 48.6565 36.8345 49.9397 37.7677C50.115 37.8952 50.3143 37.9861 50.5256 38.0348L54.6598 38.9889C55.2092 39.1157 55.7859 39.0393 56.2834 38.774L57.6089 38.0671C59.0276 37.3104 58.7682 35.2034 57.2083 34.8135C56.8995 34.7362 56.6175 34.5766 56.3924 34.3515L53.8622 31.8213C53.3391 31.2981 52.9679 30.6427 52.7885 29.9249L52.4523 28.5799C52.3164 28.0367 52.2939 27.4713 52.3859 26.9189L52.9353 23.6226C53.0195 23.1174 53.198 22.6326 53.4615 22.1935Z" fill="#275A82" stroke="#EE9B19" stroke-width="2.44911"/>
</svg>
