<svg width="50" height="66" viewBox="0 0 50 66" fill="none" xmlns="http://www.w3.org/2000/svg">
<path d="M14.0033 26.0798L20.662 18.5888C21.2999 17.8711 22.2431 17.5028 23.1985 17.5984C24.2835 17.7069 25.2238 18.3965 25.6533 19.3987L30.3763 30.4191C30.6884 31.1473 30.7264 31.9639 30.4831 32.7179L25.251 48.9374C24.7689 50.4321 23.0094 51.0746 21.6775 50.2422L15.7743 45.9787L9.54305 41.0593L2 35.812L6.26346 32.2044L13.5733 26.4837C13.7285 26.3623 13.8724 26.2271 14.0033 26.0798Z" fill="#275A82" stroke="#C92325" stroke-width="1.96775"/>
<path d="M33.6792 13.1938L38.2432 19.8983C38.5336 20.3249 38.75 20.7973 38.8833 21.2958L39.8903 25.0615C39.9938 25.4484 40.0462 25.8472 40.0462 26.2477V38.5745C40.0462 39.1798 39.9265 39.7792 39.694 40.3381L35.6756 49.9976C35.5578 50.2808 35.412 50.5514 35.2402 50.8055L30.2236 58.2265C29.8052 58.8455 29.2421 59.353 28.5831 59.705L19.6859 64.4577C19.0203 64.8133 18.2772 64.9994 17.5225 64.9994H5.93848L15.7772 54.8326L21.5547 48.9997C22.0517 48.498 22.4262 47.8885 22.6491 47.2185L25.4809 38.7095C25.7848 37.7963 25.7941 36.8108 25.5075 35.8921L22.3102 25.6443L17.4329 13.9201C17.0562 13.0145 16.3994 12.2534 15.5587 11.7482L5.93848 5.9668H14.1243H22.6464C23.6104 5.9668 24.5501 6.27026 25.332 6.83416L32.5694 12.0534C33.0029 12.3661 33.3785 12.752 33.6792 13.1938Z" fill="#C92325" stroke="#EE9B19" stroke-width="1.96775"/>
<path d="M48.8949 38.4922V31.9783C48.8949 31.693 48.8577 31.4089 48.7842 31.1333L47.5831 26.6291L45.4813 19.4228C45.3534 18.9845 45.1355 18.5778 44.8414 18.2286L40.0401 12.5269L32.1691 4L33.7497 12.2192C33.789 12.4239 33.8478 12.6243 33.9252 12.8179L35.7766 17.4463L38.5823 23.9928C38.6793 24.2192 38.7505 24.4557 38.7945 24.698L39.9575 31.0946C40.0123 31.3957 40.0246 31.703 39.9942 32.0076L39.4442 37.5072C39.4045 37.9042 39.2927 38.2906 39.1142 38.6475L36.5368 43.8025C36.4674 43.9413 36.4079 44.0848 36.3588 44.2321L34.4648 49.9142L32.2833 56.147C32.2073 56.364 32.1088 56.5724 31.9893 56.7688L27.5776 64.0164L40.7819 55.8424C41.158 55.6095 41.4831 55.303 41.7377 54.9412L47.1531 47.2457C47.4361 46.8435 47.6251 46.3827 47.706 45.8975L48.8503 39.0313C48.88 38.8532 48.8949 38.6728 48.8949 38.4922Z" fill="#275A82" stroke="#C92325" stroke-width="1.96775"/>
<path d="M36.6607 25.8359L39.5511 28.3527C40.05 28.7871 40.4491 29.3242 40.7212 29.9271L40.9503 30.4349C41.218 31.0284 41.3565 31.6721 41.3565 32.3232V36.1912C41.3565 37.1352 41.0656 38.0562 40.5233 38.8288L38.1791 42.1691C37.9687 42.4688 37.7232 42.7423 37.4479 42.9837L34.0436 45.9687C33.5664 46.3872 33.0076 46.7021 32.4025 46.8937L25.6105 49.0443C25.1622 49.1862 24.6948 49.2585 24.2245 49.2585H14.1022L21.4399 44.6117C23.5874 43.5918 23.2974 40.4483 20.9996 39.8384L3.96924 35.3183L21.1663 32.4355C23.8677 31.9827 24.8904 28.6386 22.9046 26.7522C22.629 26.4905 22.3106 26.278 21.9632 26.124L12.0058 21.71L21.4399 22.3738H28.1869C28.8072 22.3738 29.4211 22.4995 29.9915 22.7433L35.4503 25.0767C35.8909 25.2651 36.2994 25.5212 36.6607 25.8359Z" fill="#C92325" stroke="#EE9B19" stroke-width="1.96775"/>
</svg>
