<svg width="43" height="50" viewBox="0 0 43 50" fill="none" xmlns="http://www.w3.org/2000/svg">
<path d="M31.5401 3.2922L41.192 22.9409C41.7541 24.0849 41.7493 25.4259 41.1793 26.566L38.4103 32.1039L34.7366 39.8595L31.7007 45.9314C31.0597 47.2134 29.7494 48.0232 28.3161 48.0232H27.856C26.0202 48.0232 24.532 46.535 24.532 44.6992C24.532 42.3665 22.192 40.7594 20.0148 41.5968L17.8465 42.4308C14.0179 43.9033 11.0469 38.9149 14.1655 36.2499L15.4465 35.1553C17.3658 33.5151 16.4243 30.3761 13.9192 30.063H7.12728C6.49359 30.063 5.8686 29.9155 5.30182 29.6321L3.77933 28.8708C2.73899 28.3507 2.08183 27.2874 2.08183 26.1242C2.08183 25.2537 2.45131 24.4241 3.09837 23.8417L5.26455 21.8922C5.85136 21.364 6.57873 21.0174 7.35855 20.8943L10.2829 20.4325C12.349 20.1063 13.8342 18.271 13.7223 16.1823L13.361 9.43881C13.1926 6.2955 17.3651 5.05242 18.9444 7.77538L21.6209 12.39C22.4213 13.77 24.532 13.2022 24.532 11.6069C24.532 11.3955 24.575 11.1863 24.6582 10.992L27.918 3.38588C28.1038 2.95244 28.4371 2.59887 28.8589 2.38798C29.8487 1.89309 31.0522 2.29895 31.5401 3.2922Z" fill="#275A82" stroke="#C92325" stroke-width="2.44911"/>
</svg>
