<svg width="124" height="209" viewBox="0 0 124 209" fill="none" xmlns="http://www.w3.org/2000/svg">
<path d="M0.999992 207.212L60.1869 173.333M92.0253 137.412V143.719C92.0253 144.899 91.515 146.021 90.6258 146.796L60.1869 173.333M92.0253 137.412V117.609C92.0253 116.688 92.3367 115.794 92.909 115.072L100.333 105.711C101.023 104.841 101.329 103.727 101.18 102.626L98.6272 83.7997C98.3528 81.7758 96.6247 80.2663 94.5823 80.2663H72.0242C69.7699 80.2663 67.9424 78.443 67.9424 76.1886C67.9424 71.6833 67.9424 64.2913 67.9424 58.4381C67.9424 57.5055 67.623 56.6039 67.0375 55.878L57.7569 44.3736C57.5567 44.1254 57.3281 43.9015 57.0758 43.7065L48.0416 36.7256C47.0413 35.9526 46.4556 34.7598 46.4556 33.4956V0M92.0253 137.412L110.295 132.646C110.632 132.558 110.978 132.514 111.325 132.514H123.456M60.1869 173.333L67.0379 180.905C67.6253 181.554 68.4058 181.997 69.2643 182.169L83.0294 184.922C84.9373 185.303 86.3107 186.979 86.3107 188.924V203.538" stroke="#B28547" stroke-width="2.44911"/>
</svg>
