<svg width="62" height="61" viewBox="0 0 62 61" fill="none" xmlns="http://www.w3.org/2000/svg">
<path d="M32.3981 33.7344L37.7346 32.9339C38.9146 32.7569 39.9581 32.0725 40.5905 31.0606L41.1494 30.1663C41.4691 29.6548 41.6714 29.0788 41.7419 28.4798L42.3892 22.9783C42.4304 22.6278 42.426 22.2735 42.3761 21.9241L41.8106 17.9657C41.6961 17.1639 41.3456 16.4143 40.8038 15.8123L38.746 13.5259C38.2332 12.9561 37.5703 12.5423 36.8333 12.3317L29.3893 10.2048L21.2256 7.34753L15.4769 4.83247C14.961 4.60675 14.404 4.49023 13.8408 4.49023H9.63351C6.57746 4.49023 5.29522 8.39198 7.75552 10.2048L15.9192 17.5522L22.4502 25.3077L26.9864 31.5885C27.4872 32.282 28.1932 32.8005 29.0046 33.071L30.5018 33.5701C31.1121 33.7735 31.7619 33.8298 32.3981 33.7344Z" fill="#C92325" stroke="#E5CA9B" stroke-width="2.44911"/>
<path d="M53.4615 38.2176L55.9336 42.3379C56.4378 43.1781 56.5077 44.2093 56.1218 45.11C55.7384 46.0044 54.9514 46.6625 54.0031 46.8813L51.1826 47.5322C50.5407 47.6803 49.9442 47.9816 49.444 48.4103L44.4908 52.6559L38.0534 57.9738C36.8778 58.9449 35.1026 58.1088 35.1026 56.584C35.1026 56.1562 35.2547 55.7424 35.5317 55.4165L42.0417 47.7577L43.9456 45.8538C45.7437 44.0557 44.5796 40.9771 42.0417 40.8185H33.0616H26.1577C25.8631 40.8185 25.5694 40.8523 25.2825 40.9193L18.2554 42.5589C16.7726 42.9049 15.7227 41.1401 16.7342 40.0022L19.9416 36.0821C20.25 35.7051 20.6233 35.3864 21.044 35.141L24.7178 32.998C25.1073 32.7708 25.5318 32.6097 25.974 32.5212L30.6953 31.577C31.1803 31.48 31.679 31.4719 32.1669 31.5533L34.0233 31.8627C36.5114 32.2773 38.7762 30.3587 38.7762 27.8364V27.3484V17.3755C38.7762 16.9515 38.7102 16.5301 38.5804 16.1264L35.1813 5.55122C35.1295 5.39033 35.0402 5.24408 34.9207 5.12458L34.0577 4.26158C33.3372 3.54109 34.2054 2.37422 35.1026 2.8573L39.7143 5.16318C39.905 5.25852 40.0879 5.36865 40.2614 5.49256L44.6353 8.61675C45.3373 9.11817 45.8623 9.8291 46.1351 10.6475L47.5468 14.8826C47.6856 15.2989 47.7563 15.7347 47.7563 16.1734V19.693C47.7563 19.8969 47.7213 20.0992 47.6527 20.2912L47.4722 20.7967C46.9385 22.2908 48.6565 23.5767 49.9397 22.6435C50.115 22.5159 50.3143 22.4251 50.5256 22.3763L54.6598 21.4223C55.2092 21.2955 55.7859 21.3718 56.2834 21.6371L57.6089 22.3441C59.0276 23.1007 58.7682 25.2077 57.2083 25.5977C56.8995 25.6749 56.6175 25.8346 56.3924 26.0597L53.8622 28.5899C53.3391 29.113 52.9679 29.7685 52.7885 30.4862L52.4523 31.8312C52.3164 32.3745 52.2939 32.9399 52.3859 33.4922L52.9353 36.7886C53.0195 37.2937 53.198 37.7785 53.4615 38.2176Z" fill="#275A82" stroke="#EE9B19" stroke-width="2.44911"/>
</svg>
