<svg width="69" height="65" viewBox="0 0 69 65" fill="none" xmlns="http://www.w3.org/2000/svg">
<path d="M38.0208 42.9467L44.8007 39.2178C45.3756 38.9015 45.8659 38.4514 46.2299 37.9054L46.4435 37.5849C47.0006 36.7493 47.23 35.7376 47.088 34.7435L46.6846 31.9197C46.5597 31.0453 46.1546 30.2351 45.5301 29.6106L43.631 27.7115C43.3628 27.4433 43.0585 27.2138 42.727 27.0296L39.8888 25.4528C39.6655 25.3288 39.4543 25.184 39.258 25.0204L34.6548 21.1845L30.1861 16.7157C29.9013 16.431 29.6603 16.1056 29.4708 15.7503L26.799 10.7407C26.5957 10.3596 26.469 9.9423 26.426 9.51247L26.1638 6.89056C25.977 5.02241 23.6566 4.27018 22.4093 5.67342L19.6698 9.44015C19.3232 9.9167 19.0839 10.4626 18.9684 11.0405L18.4067 13.849C18.354 14.1126 18.3274 14.3807 18.3274 14.6495V17.0348C18.3274 17.6175 18.4522 18.1934 18.6933 18.7239L20.3683 22.409C20.7594 23.3866 20.0394 24.4499 18.9866 24.4499H17.511H13.4691C13.1713 24.4499 12.8743 24.4825 12.5836 24.5471L10.1386 25.0905C9.61619 25.2066 9.12171 25.4243 8.68329 25.7311L5.958 27.6388C5.50117 27.9586 5.1147 28.3686 4.82245 28.8435L2.60551 32.4461C2.20961 33.0894 2 33.8345 2 34.5899C2 35.6725 2.43005 36.7174 3.19555 37.4829L4.67305 38.9604C5.06393 39.3512 5.53013 39.6587 6.04339 39.864L8.38443 40.8004C9.01633 41.0531 9.7014 41.1439 10.3773 41.0644L16.2865 40.3692L18.6382 39.9772C19.7936 39.7846 20.7387 40.8907 20.3683 42.0019L19.1438 47.3083L18.4269 51.9682C18.361 52.3965 18.3637 52.8325 18.4349 53.2599L19.01 56.7105C19.0983 57.2403 19.2903 57.7474 19.5749 58.2028L20.5394 59.7459C20.9604 60.4196 21.5689 60.9558 22.2902 61.2887L25.3333 62.6932C26.0826 63.039 26.9276 63.1184 27.7282 62.9183C28.9833 62.6045 29.9756 61.6448 30.331 60.4008L30.4159 60.1036C30.5201 59.7389 30.573 59.3615 30.573 58.9822V55.1905C30.573 54.8355 30.6193 54.4819 30.7108 54.1388L31.9232 49.5922C32.1083 48.8983 32.4731 48.2655 32.9809 47.7576L37.1016 43.637C37.3739 43.3647 37.6834 43.1323 38.0208 42.9467Z" fill="#EE9B19" stroke="#C92325" stroke-width="2.44911"/>
<path d="M63.862 29.3481H64.0289C65.7472 29.3481 66.5547 31.4719 65.2704 32.6135L62.1843 35.3568C61.7962 35.7018 61.4774 36.1177 61.2452 36.5821L59.014 41.0446C58.832 41.4086 58.7055 41.7977 58.6386 42.199L58.0349 45.8208C57.9609 46.2651 57.9609 46.7186 58.0349 47.1629L58.4956 49.9271C58.6532 50.8722 59.1381 51.7317 59.8655 52.3553L61.5968 53.8392L64.7696 56.6947C65.3391 57.2073 65.622 57.9661 65.5269 58.7264C65.3804 59.8986 64.3839 60.7783 63.2025 60.7783H60.3722H55.2903C54.6073 60.7783 53.9353 60.607 53.3357 60.2799L50.6834 58.8332C50.0773 58.5026 49.565 58.0237 49.1943 57.4412L47.2286 54.3522C47.0121 54.0121 46.8472 53.6417 46.7393 53.2532L45.0101 47.0279C44.9113 46.6722 44.8612 46.3047 44.8612 45.9354V40.5665C44.8612 39.9007 45.024 39.2451 45.3355 38.6567L47.0356 35.4454C47.9157 33.783 47.5458 31.7344 46.1399 30.4848L45.3924 29.8203C45.0409 29.5078 44.746 29.137 44.5208 28.7241L42.6409 25.2776C42.4889 24.9988 42.3699 24.7033 42.2863 24.397L41.3313 20.8954C41.2359 20.5453 41.1875 20.1842 41.1875 19.8213V15.2088C41.1875 14.5751 41.335 13.9501 41.6184 13.3833L44.3085 8.00328C44.6689 7.28249 45.2345 6.68452 45.9342 6.2847L52.4919 2.53746C53.1086 2.18502 53.8067 1.99965 54.5171 1.99965H57.2533C58.1723 1.99965 59.0209 2.49208 59.4768 3.29C60.0138 4.22968 59.902 5.40547 59.1977 6.2272L58.2895 7.28671C58.0464 7.57038 57.7654 7.81934 57.4546 8.02658L55.8038 9.12708C54.8168 9.7851 54.1648 10.84 54.0177 12.0171L53.5208 15.9927C53.4627 16.457 53.4849 16.9278 53.5864 17.3845L54.0938 19.6674C54.1967 20.1309 54.3798 20.5729 54.6347 20.9734L56.6951 24.2112C56.9671 24.6387 57.3164 25.0118 57.725 25.3114L62.7194 28.974C63.0508 29.217 63.4511 29.3481 63.862 29.3481Z" fill="#C92325" stroke="#2E1D06" stroke-width="2.44911"/>
</svg>
