<svg width="61" height="63" viewBox="0 0 61 63" fill="none" xmlns="http://www.w3.org/2000/svg">
<path d="M24.5399 35.3496L28.9124 38.3245C29.2832 38.5768 29.7094 38.736 30.1548 38.7886L30.4162 38.8194C31.0979 38.8999 31.7853 38.7262 32.347 38.3316L33.9423 37.2109C34.4362 36.8639 34.8043 36.366 34.9912 35.7921L35.5597 34.0466C35.64 33.8001 35.6856 33.5437 35.695 33.2846L35.7762 31.067C35.7826 30.8925 35.8053 30.719 35.8442 30.5487L36.7548 26.5558L38.0925 22.4487C38.1777 22.187 38.3012 21.9393 38.459 21.7138L40.683 18.5338C40.8522 18.2919 41.0672 18.0854 41.3157 17.926L42.8318 16.9539C43.912 16.2612 43.6513 14.6145 42.4099 14.2894L39.2663 13.7877C38.8686 13.7242 38.4619 13.7476 38.074 13.8562L36.189 14.3842C36.0121 14.4338 35.8405 14.5007 35.6768 14.584L34.2236 15.3231C33.8686 15.5037 33.5564 15.7581 33.3079 16.0694L31.582 18.2317C31.1076 18.7728 30.2367 18.6637 29.9104 18.0223L29.4532 17.1234L28.2008 14.661C28.1085 14.4796 27.9967 14.3088 27.8672 14.1517L26.7786 12.8305C26.546 12.5482 26.2602 12.3144 25.9374 12.1424L23.9307 11.0733C23.5943 10.894 23.2248 10.7856 22.8449 10.7547L19.9633 10.5204C19.4487 10.4786 18.9298 10.5818 18.4696 10.8158C17.8101 11.1513 17.3068 11.737 17.0776 12.4406L16.6353 13.7985C16.5183 14.1578 16.4755 14.537 16.5095 14.9133L16.6644 16.6297C16.7062 17.093 16.8632 17.5384 17.1211 17.9256L19.3756 21.3101L20.3431 22.6214C20.8184 23.2656 20.4374 24.1841 19.6457 24.3027L16.0335 25.201L12.9725 26.2081C12.6912 26.3007 12.4264 26.4375 12.1881 26.6133L10.2642 28.0328C9.96879 28.2508 9.71932 28.5249 9.53007 28.8394L8.88884 29.9051C8.60889 30.3703 8.47079 30.9072 8.49148 31.4498L8.57876 33.7388C8.60026 34.3025 8.8137 34.8419 9.18373 35.2676C9.76378 35.935 10.6559 36.2421 11.5239 36.0732L11.7313 36.0328C11.9857 35.9833 12.232 35.8985 12.4631 35.781L14.773 34.6061C14.9893 34.4961 15.2191 34.4148 15.4564 34.3642L18.602 33.694C19.0821 33.5918 19.5806 33.6179 20.0474 33.77L23.8346 35.0035C24.0848 35.085 24.3223 35.2015 24.5399 35.3496Z" fill="#EE9B19" stroke="#C92325" stroke-width="1.67393"/>
<path d="M38.6496 46.4645L38.6853 46.5728C39.0522 47.6885 37.8457 48.6663 36.8302 48.0763L34.3901 46.6584C34.0832 46.4801 33.7451 46.362 33.3939 46.3104L30.0201 45.8148C29.7449 45.7743 29.4653 45.7753 29.1904 45.8176L26.71 46.1991C26.4057 46.2459 26.1113 46.3428 25.8386 46.4857L24.1423 47.3752C23.5624 47.6793 23.1078 48.1777 22.8584 48.7832L22.2646 50.2241L21.0883 52.8939C20.8771 53.3732 20.4449 53.7189 19.9309 53.8196C19.1385 53.9748 18.3545 53.5157 18.1022 52.7486L17.4978 50.911L16.4125 47.6115C16.2666 47.1681 16.2344 46.6951 16.3186 46.236L16.6915 44.205C16.7767 43.7409 16.9782 43.306 17.2773 42.9409L18.863 41.0049C19.0376 40.7918 19.2429 40.6056 19.4721 40.4526L23.1446 38.0004C23.3545 37.8602 23.5824 37.7492 23.8221 37.6704L27.308 36.5238C27.7402 36.3816 28.2007 36.3473 28.6493 36.4239L31.0973 36.8419C32.3646 37.0582 33.6157 36.3806 34.1268 35.2009L34.3986 34.5737C34.5264 34.2787 34.7042 34.0081 34.9242 33.7737L36.7604 31.817C36.9089 31.6588 37.0753 31.5184 37.2564 31.3988L39.3259 30.0309C39.5328 29.8942 39.757 29.7856 39.9925 29.7082L42.9873 28.7231C43.3987 28.5878 43.836 28.5501 44.2645 28.613L48.3321 29.2106C48.877 29.2906 49.3861 29.5302 49.7951 29.8991L53.6285 33.3565C53.9891 33.6816 54.2585 34.0953 54.4102 34.5565L54.9946 36.333C55.1908 36.9297 55.0523 37.5858 54.6316 38.0522C54.1362 38.6016 53.349 38.7801 52.665 38.4983L51.7832 38.135C51.5471 38.0377 51.3254 37.9084 51.1245 37.7508L50.0574 36.9141C49.4194 36.4138 48.5953 36.2158 47.7996 36.3716L45.1122 36.898C44.7984 36.9595 44.4975 37.0745 44.2226 37.2379L42.8487 38.0549C42.5698 38.2207 42.322 38.4339 42.1163 38.685L40.4542 40.7142C40.2347 40.9821 40.0671 41.2885 39.9598 41.6178L38.6485 45.6427C38.5614 45.9098 38.5619 46.1977 38.6496 46.4645Z" fill="#C92325" stroke="#2E1D06" stroke-width="1.67393"/>
</svg>
