<svg width="43" height="50" viewBox="0 0 43 50" fill="none" xmlns="http://www.w3.org/2000/svg">
<path d="M11.5439 3.2922L1.89195 22.9409C1.32993 24.0849 1.33465 25.4259 1.90471 26.566L4.67367 32.1039L8.34733 39.8595L11.3833 45.9314C12.0243 47.2134 13.3346 48.0232 14.7679 48.0232H15.228C17.0638 48.0232 18.552 46.535 18.552 44.6992C18.552 42.3665 20.8919 40.7594 23.0691 41.5968L25.2374 42.4308C29.0661 43.9033 32.037 38.9149 28.9185 36.2499L27.6375 35.1553C25.7182 33.5151 26.6597 30.3761 29.1648 30.063H35.9567C36.5904 30.063 37.2154 29.9155 37.7822 29.6321L39.3047 28.8708C40.345 28.3507 41.0022 27.2874 41.0022 26.1242C41.0022 25.2537 40.6327 24.4241 39.9856 23.8417L37.8194 21.8922C37.2326 21.364 36.5053 21.0174 35.7254 20.8943L32.8011 20.4325C30.735 20.1063 29.2498 18.271 29.3617 16.1823L29.723 9.43881C29.8914 6.2955 25.7189 5.05242 24.1396 7.77538L21.4631 12.39C20.6627 13.77 18.552 13.2022 18.552 11.6069C18.552 11.3955 18.509 11.1863 18.4258 10.992L15.166 3.38588C14.9802 2.95244 14.6469 2.59887 14.2251 2.38798C13.2353 1.89309 12.0318 2.29895 11.5439 3.2922Z" fill="#275A82" stroke="#C92325" stroke-width="2.44911"/>
</svg>
