<svg width="69" height="64" viewBox="0 0 69 64" fill="none" xmlns="http://www.w3.org/2000/svg">
<path d="M31.4348 21.3619L24.6549 25.0908C24.0799 25.4071 23.5897 25.8572 23.2257 26.4032L23.0121 26.7237C22.455 27.5593 22.2255 28.5709 22.3676 29.5651L22.771 32.3889C22.8959 33.2632 23.301 34.0735 23.9255 34.698L25.8246 36.5971C26.0928 36.8653 26.3971 37.0948 26.7286 37.279L29.5668 38.8558C29.7901 38.9798 30.0013 39.1246 30.1976 39.2882L34.8007 43.1241L39.2695 47.5929C39.5542 47.8776 39.7953 48.203 39.9848 48.5583L42.6566 53.5679C42.8599 53.949 42.9866 54.3663 43.0296 54.7961L43.2917 57.418C43.4786 59.2862 45.799 60.0384 47.0463 58.6352L49.7857 54.8684C50.1323 54.3919 50.3716 53.8459 50.4872 53.2681L51.0489 50.4596C51.1016 50.196 51.1282 49.9279 51.1282 49.6591V47.2738C51.1282 46.6911 51.0034 46.1152 50.7623 45.5847L49.0872 41.8996C48.6962 40.922 49.4161 39.8587 50.469 39.8587H51.9445H55.9865C56.2843 39.8587 56.5812 39.8261 56.872 39.7615L59.317 39.2181C59.8394 39.102 60.3339 38.8843 60.7723 38.5774L63.4976 36.6698C63.9544 36.35 64.3409 35.94 64.6331 35.4651L66.8501 31.8625C67.246 31.2192 67.4556 30.4741 67.4556 29.7187C67.4556 28.6361 67.0255 27.5912 66.26 26.8257L64.7825 25.3482C64.3916 24.9574 63.9254 24.6499 63.4122 24.4446L61.0711 23.5082C60.4392 23.2555 59.7542 23.1647 59.0782 23.2442L53.1691 23.9394L50.8173 24.3314C49.662 24.5239 48.7168 23.4179 49.0872 22.3067L50.3118 17.0003L51.0287 12.3404C51.0946 11.9121 51.0919 11.4761 51.0206 11.0487L50.4455 7.5981C50.3572 7.06834 50.1653 6.56121 49.8806 6.10578L48.9162 4.5627C48.4951 3.88901 47.8866 3.35284 47.1653 3.01992L44.1223 1.61544C43.373 1.2696 42.528 1.19018 41.7273 1.39034C40.4722 1.70411 39.48 2.66382 39.1246 3.90776L39.0397 4.20503C38.9355 4.56971 38.8826 4.94713 38.8826 5.32641V9.11804C38.8826 9.47313 38.8363 9.82669 38.7448 10.1698L37.5323 14.7164C37.3473 15.4103 36.9824 16.0431 36.4746 16.551L32.354 20.6716C32.0817 20.9439 31.7722 21.1763 31.4348 21.3619Z" fill="#EE9B19" stroke="#C92325" stroke-width="2.44911"/>
<path d="M5.59352 34.9605H5.42667C3.70832 34.9605 2.90082 32.8367 4.18514 31.6951L7.27127 28.9518C7.65939 28.6068 7.97812 28.1909 8.21036 27.7265L10.4416 23.264C10.6236 22.9 10.7501 22.5109 10.817 22.1096L11.4206 18.4878C11.4947 18.0435 11.4947 17.59 11.4206 17.1457L10.9599 14.3815C10.8024 13.4364 10.3175 12.5769 9.59004 11.9533L7.8588 10.4694L4.686 7.6139C4.11644 7.1013 3.8336 6.34254 3.92865 5.5822C4.07518 4.40996 5.07167 3.53027 6.25303 3.53027H9.08336H14.1653C14.8483 3.53027 15.5203 3.70164 16.1199 4.02869L18.7722 5.47538C19.3783 5.80597 19.8906 6.28491 20.2613 6.86737L22.227 9.95638C22.4435 10.2965 22.6083 10.6669 22.7162 11.0553L24.4455 17.2807C24.5443 17.6364 24.5944 18.0039 24.5944 18.3731V23.7421C24.5944 24.4078 24.4315 25.0635 24.12 25.6519L22.42 28.8632C21.5399 30.5256 21.9097 32.5742 23.3156 33.8238L24.0632 34.4883C24.4147 34.8008 24.7095 35.1716 24.9348 35.5845L26.8147 39.031C26.9667 39.3098 27.0857 39.6053 27.1693 39.9116L28.1242 43.4132C28.2197 43.7633 28.2681 44.1244 28.2681 44.4872V49.0998C28.2681 49.7335 28.1205 50.3585 27.8371 50.9253L25.1471 56.3053C24.7867 57.0261 24.221 57.6241 23.5213 58.0239L16.9637 61.7711C16.3469 62.1236 15.6489 62.3089 14.9385 62.3089H12.2023C11.2833 62.3089 10.4347 61.8165 9.97876 61.0186C9.4418 60.0789 9.55352 58.9031 10.2579 58.0814L11.166 57.0219C11.4092 56.7382 11.6901 56.4893 12.001 56.282L13.6517 55.1815C14.6388 54.5235 15.2907 53.4686 15.4379 52.2915L15.9348 48.3159C15.9928 47.8516 15.9706 47.3808 15.8691 46.9241L15.3618 44.6411C15.2588 44.1777 15.0758 43.7357 14.8209 43.3352L12.7604 40.0974C12.4884 39.6699 12.1392 39.2968 11.7306 38.9972L6.73615 35.3346C6.40475 35.0916 6.00449 34.9605 5.59352 34.9605Z" fill="#C92325" stroke="#2E1D06" stroke-width="2.44911"/>
</svg>
