<svg width="46" height="48" viewBox="0 0 46 48" fill="none" xmlns="http://www.w3.org/2000/svg">
<path d="M10.7508 32.66L12.0193 28.5375C12.1411 28.1416 12.3224 27.7666 12.557 27.4254L16.6931 21.4093L20.591 16.8617C21.2358 16.1095 22.1321 15.6174 23.1129 15.4773L25.7621 15.0989C26.7562 14.9569 27.7679 15.1863 28.6035 15.7434L32.9361 18.6318C33.2628 18.8496 33.5563 19.1134 33.8077 19.415L39.2482 25.9436C39.4497 26.1854 39.6226 26.4497 39.7633 26.7313L40.2103 27.6252C40.3151 27.8348 40.4017 28.0532 40.4691 28.2777L41.2394 30.8456C41.4696 31.6129 41.9206 32.2956 42.536 32.8085L42.5728 32.8391C43.5034 33.6146 44.0415 34.7635 44.0415 35.9749V37.0143C44.0415 37.7541 43.8404 38.48 43.4598 39.1144L42.7401 40.3139C42.0281 41.5006 40.7456 42.2267 39.3616 42.2267C37.7506 42.2267 36.3018 41.2459 35.7035 39.7501L35.0614 38.1449L33.9448 35.3533C33.6219 34.5459 32.921 33.9502 32.0721 33.7616C30.7556 33.469 29.4309 34.219 29.0044 35.4985L28.3317 37.5165C28.193 37.9327 28.1223 38.3686 28.1223 38.8073V41.8226C28.1223 42.0914 28.0957 42.3595 28.043 42.6231L27.5461 45.1078C27.4064 45.806 26.7934 46.3086 26.0814 46.3086H25.9876C24.3185 46.3086 22.8176 45.2924 22.1977 43.7427L21.8833 42.9566C21.6904 42.4745 21.5913 41.9599 21.5913 41.4406V35.2101C21.5913 34.4833 21.2685 33.794 20.7101 33.3287C19.8018 32.5718 18.4826 32.5718 17.5743 33.3287L16.9578 33.8424C16.7818 33.9891 16.621 34.1532 16.4778 34.3321L14.007 37.4206C13.6408 37.8784 13.0863 38.1449 12.5001 38.1449C11.4343 38.1449 10.5703 37.2809 10.5703 36.2151V33.8604C10.5703 33.4535 10.6312 33.0489 10.7508 32.66Z" fill="#275A82" stroke="#EE9B19" stroke-width="2.44911"/>
<path d="M28.1239 4.26594L24.4774 2.02194C23.4575 1.39434 22.173 1.38713 21.1462 2.00322C20.9008 2.15042 20.6763 2.32978 20.4786 2.53652L3.98768 19.777L2.91246 21.1018C2.32217 21.8291 2 22.7393 2 23.676C2 25.2767 2.93557 26.7332 4.39277 27.3956L5.68512 27.983C6.21558 28.2241 6.79152 28.3489 7.3742 28.3489H9.71787C11.0238 28.3489 12.2509 27.724 13.019 26.6678L15.0619 23.8588L19.0864 17.4868C19.6472 16.5988 20.5287 15.9612 21.5476 15.7065L24.8085 14.8912C25.8837 14.6224 27.022 14.8024 27.9619 15.3898L32.4771 18.2118C32.8382 18.4375 33.1617 18.7183 33.436 19.044L39.553 26.3079C41.0895 28.1517 44.0649 26.6747 43.5252 24.3361L43.3007 23.3633C43.2516 23.1503 43.1749 22.9446 43.0727 22.7515L39.7329 16.4431C39.6133 16.2171 39.4726 16.0028 39.3128 15.8031L33.3458 8.34425C33.1308 8.07556 32.8828 7.83513 32.6075 7.62868L28.1239 4.26594Z" fill="#C92325"/>
<path d="M2.81637 21.0015L3.98768 19.777M3.98768 19.777L20.4786 2.53652C20.6763 2.32978 20.9008 2.15042 21.1462 2.00322V2.00322C22.173 1.38713 23.4575 1.39434 24.4774 2.02194L28.1239 4.26594L32.6075 7.62868C32.8828 7.83513 33.1308 8.07556 33.3458 8.34425L39.3128 15.8031C39.4726 16.0028 39.6133 16.2171 39.7329 16.4431L43.0727 22.7515C43.1749 22.9446 43.2516 23.1503 43.3007 23.3633L43.5252 24.3361C44.0649 26.6747 41.0895 28.1517 39.553 26.3079V26.3079L33.436 19.044C33.1617 18.7183 32.8382 18.4375 32.4771 18.2118L27.9619 15.3898C27.022 14.8024 25.8837 14.6224 24.8085 14.8912L21.5476 15.7065C20.5287 15.9612 19.6472 16.5988 19.0864 17.4868L15.0619 23.8588L13.019 26.6678C12.2509 27.724 11.0238 28.3489 9.71787 28.3489H7.3742C6.79152 28.3489 6.21558 28.2241 5.68512 27.983L4.39277 27.3956C2.93557 26.7332 2 25.2767 2 23.676V23.676C2 22.7393 2.32217 21.8291 2.91246 21.1018L3.98768 19.777Z" stroke="#EE9B19" stroke-width="2.44911"/>
</svg>
