<svg width="124" height="209" viewBox="0 0 124 209" fill="none" xmlns="http://www.w3.org/2000/svg">
<path d="M0.999992 1.09668L60.1869 34.9761M92.0253 70.8964V64.5893C92.0253 63.4097 91.515 62.2877 90.6258 61.5126L60.1869 34.9761M92.0253 70.8964V90.6998C92.0253 91.6208 92.3367 92.5147 92.909 93.2363L100.333 102.597C101.023 103.467 101.329 104.581 101.18 105.682L98.6272 124.509C98.3528 126.533 96.6247 128.042 94.5823 128.042H72.0242C69.7699 128.042 67.9424 129.866 67.9424 132.12C67.9424 136.625 67.9424 144.017 67.9424 149.87C67.9424 150.803 67.623 151.705 67.0375 152.431L57.7569 163.935C57.5567 164.183 57.3281 164.407 57.0758 164.602L48.0416 171.583C47.0413 172.356 46.4556 173.549 46.4556 174.813V208.309M92.0253 70.8964L110.295 75.6624C110.632 75.7502 110.978 75.7946 111.325 75.7946H123.456M60.1869 34.9761L67.0379 27.4038C67.6253 26.7546 68.4058 26.3115 69.2643 26.1398L83.0294 23.3868C84.9373 23.0052 86.3107 21.3299 86.3107 19.3842V4.77035" stroke="#B28547" stroke-width="2.44911"/>
</svg>
