<svg width="74" height="82" viewBox="0 0 74 82" fill="none" xmlns="http://www.w3.org/2000/svg">
<path d="M54.392 69.6594L68.3346 60.8951C70.9304 59.2634 71.5515 55.6093 69.6526 53.1411L32.8494 5.30363C31.2281 3.19623 28.3374 2.73216 26.1869 4.23404L24.0735 5.71007C23.8 5.90106 23.5452 6.11985 23.3129 6.36325L16.2866 13.7232L7.54847 24.9107C7.05945 25.5368 6.71602 26.2731 6.54519 27.0616L3.57047 40.7938C3.39272 41.6143 3.40702 42.4676 3.61214 43.2812L4.7167 47.6618C4.94223 48.5563 5.39071 49.3721 6.0163 50.0258L9.70683 53.8824C9.89137 54.0752 10.0901 54.2526 10.3011 54.413L12.9906 56.4568C15.4733 58.3435 15.7576 62.1046 13.5893 64.3759L4.60926 73.7824C2.88222 75.5915 3.81658 78.6858 6.2236 79.1286C6.39694 79.1605 6.57261 79.1765 6.74861 79.1764L26.7597 79.1638C27.2964 79.1635 27.8295 79.0726 28.3386 78.8947L53.4022 70.1364C53.7478 70.0157 54.0797 69.8557 54.392 69.6594Z" fill="#C86048" stroke="#DFCAA1" stroke-width="5.11028"/>
</svg>
