<svg width="41" height="72" viewBox="0 0 41 72" fill="none" xmlns="http://www.w3.org/2000/svg">
<path d="M23.9323 71.1256L22.8986 57.0538C22.8688 56.6487 22.9123 56.2402 23.0269 55.8483L25.0444 48.9483C25.1924 48.4418 25.4556 47.9755 25.8127 47.5866L31.9253 40.9305M31.9253 40.9305L40.4334 38.7803M31.9253 40.9305L27.5514 41.0688C26.3636 41.1064 25.2565 40.5035 24.6455 39.4864L22.6355 36.1407C22.4575 35.8445 22.3269 35.5214 22.2482 35.1829L20.451 27.4532C20.4044 27.2527 20.3763 27.0479 20.367 26.8415L19.9176 16.7996C19.9083 16.5932 19.8802 16.3885 19.8336 16.1879L18.6267 10.997C18.5617 10.7173 18.4611 10.4479 18.3274 10.1952L15.6488 5.13239C15.2087 4.30044 14.437 3.70112 13.5246 3.48256L9.82641 2.59672C9.48081 2.51394 9.12334 2.48788 8.76763 2.51954L0.806118 3.2282" stroke="#EE9B19" stroke-width="3.34741"/>
</svg>
