<svg width="42" height="72" viewBox="0 0 42 72" fill="none" xmlns="http://www.w3.org/2000/svg">
<path d="M17.7806 71.1256L18.8143 57.0538C18.8441 56.6487 18.8006 56.2402 18.686 55.8483L16.6685 48.9483C16.5204 48.4418 16.2573 47.9755 15.9002 47.5866L9.7876 40.9305M9.7876 40.9305L1.27949 38.7803M9.7876 40.9305L14.1615 41.0688C15.3493 41.1064 16.4564 40.5035 17.0674 39.4864L19.0774 36.1407C19.2553 35.8445 19.386 35.5214 19.4647 35.1829L21.2619 27.4532C21.3085 27.2527 21.3366 27.0479 21.3459 26.8415L21.7953 16.7996C21.8046 16.5932 21.8327 16.3885 21.8793 16.1879L23.0862 10.997C23.1512 10.7173 23.2518 10.4479 23.3855 10.1952L26.064 5.13239C26.5042 4.30044 27.2759 3.70112 28.1883 3.48256L31.8865 2.59672C32.2321 2.51394 32.5896 2.48788 32.9453 2.51954L40.9068 3.2282" stroke="#EE9B19" stroke-width="3.34741"/>
</svg>
