<svg width="41" height="71" viewBox="0 0 41 71" fill="none" xmlns="http://www.w3.org/2000/svg">
<path d="M17.1956 0.38226L18.2294 14.454C18.2591 14.8591 18.2156 15.2676 18.101 15.6595L16.0836 22.5596C15.9355 23.066 15.6723 23.5323 15.3152 23.9212L9.20264 30.5773M9.20264 30.5773L0.694527 32.7275M9.20264 30.5773L13.5765 30.439C14.7643 30.4014 15.8714 31.0043 16.4825 32.0214L18.4924 35.3671C18.6704 35.6633 18.8011 35.9864 18.8797 36.3249L20.6769 44.0546C20.7235 44.2551 20.7517 44.4599 20.7609 44.6663L21.2104 54.7082C21.2196 54.9146 21.2477 55.1193 21.2943 55.3199L22.5012 60.5108C22.5663 60.7905 22.6668 61.0599 22.8005 61.3126L25.4791 66.3754C25.9192 67.2074 26.6909 67.8067 27.6033 68.0253L31.3015 68.9111C31.6471 68.9939 32.0046 69.0199 32.3603 68.9883L40.3218 68.2796" stroke="#EE9B19" stroke-width="3.34741"/>
</svg>
