<svg width="45" height="114" viewBox="0 0 45 114" fill="none" xmlns="http://www.w3.org/2000/svg">
<path d="M6.87343 0.768831L11.1174 21.8602C11.2388 22.464 11.4686 23.0404 11.7955 23.5616L17.5794 32.7834C18.0031 33.4589 18.5796 34.0251 19.2626 34.4365L30.9455 41.4739M30.9455 41.4739L44.2967 40.8413M30.9455 41.4739L24.4849 43.2147C22.724 43.6891 21.3454 45.0647 20.8666 46.8249L19.2872 52.6315C19.1483 53.1418 19.0894 53.6702 19.1124 54.198L19.6414 66.3358C19.6551 66.6485 19.6974 66.9591 19.7678 67.2638L23.2195 82.1892C23.29 82.4938 23.3323 82.8045 23.3459 83.1171L23.7013 91.2702C23.7203 91.7063 23.6834 92.1432 23.5914 92.5703L21.7346 101.193C21.4307 102.605 20.5452 103.824 19.2966 104.551L14.2425 107.491C13.7675 107.768 13.2513 107.966 12.7139 108.079L0.758509 110.58" stroke="#EE9B19" stroke-width="5.11028"/>
</svg>
