<svg width="48" height="114" viewBox="0 0 48 114" fill="none" xmlns="http://www.w3.org/2000/svg">
<path d="M11.6396 113.539L14.9757 92.0982C15.0702 91.491 15.2734 90.9058 15.5756 90.3708L20.9824 80.7979C21.3751 80.1026 21.9252 79.509 22.5887 79.0647L34.0046 71.4207M34.0046 71.4207H47.4236M34.0046 71.4207L27.4375 69.9743C25.6574 69.5822 24.221 68.2717 23.6676 66.5349L21.8208 60.7381C21.6609 60.2365 21.5796 59.7132 21.5796 59.1868V46.9305C21.5796 46.6186 21.6081 46.3075 21.6649 46.0008L24.4763 30.8033C24.5331 30.4967 24.5616 30.1855 24.5616 29.8737V21.6379C24.5616 21.2029 24.5061 20.7697 24.3964 20.3488L22.1505 11.7332C21.7869 10.3386 20.8513 9.16223 19.5742 8.49415L14.3639 5.76854C13.8762 5.51344 13.3506 5.33879 12.8072 5.25133L0.705612 3.30347" stroke="#E8930C" stroke-width="5.11028"/>
</svg>
