<svg width="45" height="114" viewBox="0 0 45 114" fill="none" xmlns="http://www.w3.org/2000/svg">
<path d="M37.8395 0.768831L33.5955 21.8602C33.474 22.464 33.2443 23.0404 32.9174 23.5616L27.1335 32.7834C26.7098 33.4589 26.1333 34.0251 25.4503 34.4365L13.7674 41.4739M13.7674 41.4739L0.416192 40.8413M13.7674 41.4739L20.228 43.2147C21.9889 43.6891 23.3675 45.0647 23.8463 46.8249L25.4257 52.6315C25.5645 53.1418 25.6235 53.6702 25.6005 54.198L25.0714 66.3358C25.0578 66.6485 25.0155 66.9591 24.945 67.2638L21.4934 82.1892C21.4229 82.4938 21.3806 82.8045 21.367 83.1171L21.0116 91.2702C20.9926 91.7063 21.0295 92.1432 21.1215 92.5703L22.9783 101.193C23.2822 102.605 24.1677 103.824 25.4163 104.551L30.4704 107.491C30.9454 107.768 31.4616 107.966 31.999 108.079L43.9544 110.58" stroke="#EE9B19" stroke-width="5.11028"/>
</svg>
