<svg width="41" height="71" viewBox="0 0 41 71" fill="none" xmlns="http://www.w3.org/2000/svg">
<path d="M23.6418 0.38226L22.608 14.454C22.5783 14.8591 22.6218 15.2676 22.7364 15.6595L24.7538 22.5596C24.9019 23.066 25.1651 23.5323 25.5222 23.9212L31.6348 30.5773M31.6348 30.5773L40.1429 32.7275M31.6348 30.5773L27.2609 30.439C26.0731 30.4014 24.966 31.0043 24.3549 32.0214L22.345 35.3671C22.167 35.6633 22.0363 35.9864 21.9577 36.3249L20.1605 44.0546C20.1139 44.2551 20.0857 44.4599 20.0765 44.6663L19.627 54.7082C19.6178 54.9146 19.5897 55.1193 19.5431 55.3199L18.3362 60.5108C18.2711 60.7905 18.1706 61.0599 18.0369 61.3126L15.3583 66.3754C14.9182 67.2074 14.1465 67.8067 13.2341 68.0253L9.53588 68.9111C9.19028 68.9939 8.83281 69.0199 8.4771 68.9883L0.51559 68.2796" stroke="#EE9B19" stroke-width="3.34741"/>
</svg>
