<svg width="45" height="114" viewBox="0 0 45 114" fill="none" xmlns="http://www.w3.org/2000/svg">
<path d="M37.5489 112.739L33.305 91.6476C33.1835 91.0438 32.9538 90.4674 32.6269 89.9462L26.843 80.7245C26.4193 80.0489 25.8428 79.4827 25.1598 79.0713L13.4768 72.034M13.4768 72.034L0.125665 72.6665M13.4768 72.034L19.9375 70.2932C21.6983 69.8187 23.077 68.4431 23.5558 66.6829L25.1352 60.8763C25.274 60.366 25.333 59.8376 25.31 59.3098L24.7809 47.172C24.7673 46.8593 24.725 46.5487 24.6545 46.244L21.2028 31.3187C21.1324 31.014 21.0901 30.7033 21.0764 30.3907L20.7211 22.2376C20.7021 21.8016 20.739 21.3646 20.831 20.9375L22.6878 12.3146C22.9917 10.9032 23.8772 9.68382 25.1258 8.95726L30.1799 6.01634C30.6549 5.73993 31.171 5.54168 31.7085 5.42923L43.6639 2.9277" stroke="#EE9B19" stroke-width="5.11028"/>
</svg>
