<svg width="48" height="114" viewBox="0 0 48 114" fill="none" xmlns="http://www.w3.org/2000/svg">
<path d="M36.1326 1L32.7965 22.4408C32.702 23.048 32.4988 23.6332 32.1966 24.1683L26.7899 33.7412C26.3972 34.4365 25.847 35.0301 25.1835 35.4743L13.7676 43.1183M13.7676 43.1183H0.348633M13.7676 43.1183L20.3347 44.5648C22.1148 44.9569 23.5513 46.2674 24.1046 48.0041L25.9515 53.8009C26.1113 54.3025 26.1926 54.8258 26.1926 55.3523V67.6086C26.1926 67.9204 26.1641 68.2316 26.1074 68.5382L23.2959 83.7358C23.2392 84.0424 23.2106 84.3536 23.2106 84.6654V92.9012C23.2106 93.3362 23.2661 93.7693 23.3759 94.1902L25.6217 102.806C25.9853 104.201 26.9209 105.377 28.198 106.045L33.4083 108.771C33.896 109.026 34.4216 109.2 34.965 109.288L47.0666 111.236" stroke="#E8930C" stroke-width="5.11028"/>
</svg>
