<svg width="48" height="114" viewBox="0 0 48 114" fill="none" xmlns="http://www.w3.org/2000/svg">
<path d="M36.1326 113.539L32.7965 92.0982C32.702 91.491 32.4988 90.9058 32.1966 90.3708L26.7899 80.7979C26.3972 80.1026 25.847 79.509 25.1835 79.0647L13.7676 71.4207M13.7676 71.4207H0.348633M13.7676 71.4207L20.3347 69.9743C22.1148 69.5822 23.5513 68.2717 24.1046 66.5349L25.9515 60.7381C26.1113 60.2365 26.1926 59.7132 26.1926 59.1868V46.9305C26.1926 46.6186 26.1641 46.3075 26.1074 46.0008L23.2959 30.8033C23.2392 30.4967 23.2106 30.1855 23.2106 29.8737V21.6379C23.2106 21.2029 23.2661 20.7697 23.3759 20.3488L25.6217 11.7332C25.9853 10.3386 26.9209 9.16223 28.198 8.49415L33.4083 5.76854C33.896 5.51344 34.4216 5.33879 34.965 5.25133L47.0666 3.30347" stroke="#E8930C" stroke-width="5.11028"/>
</svg>
