<svg width="45" height="114" viewBox="0 0 45 114" fill="none" xmlns="http://www.w3.org/2000/svg">
<path d="M7.28847 112.739L11.5324 91.6476C11.6539 91.0438 11.8836 90.4674 12.2105 89.9462L17.9944 80.7245C18.4181 80.0489 18.9946 79.4827 19.6776 79.0713L31.3606 72.034M31.3606 72.034L44.7117 72.6665M31.3606 72.034L24.8999 70.2932C23.1391 69.8187 21.7605 68.4431 21.2816 66.6829L19.7022 60.8763C19.5634 60.366 19.5044 59.8376 19.5274 59.3098L20.0565 47.172C20.0701 46.8593 20.1124 46.5487 20.1829 46.244L23.6346 31.3187C23.705 31.014 23.7473 30.7033 23.761 30.3907L24.1163 22.2376C24.1353 21.8016 24.0984 21.3646 24.0064 20.9375L22.1496 12.3146C21.8457 10.9032 20.9602 9.68382 19.7116 8.95726L14.6575 6.01634C14.1825 5.73993 13.6664 5.54168 13.1289 5.42923L1.17355 2.9277" stroke="#EE9B19" stroke-width="5.11028"/>
</svg>
