<svg width="83" height="88" viewBox="0 0 83 88" fill="none" xmlns="http://www.w3.org/2000/svg">
<path d="M7.99295 40.2191L45.6128 43.8317L48.5828 75.8285L33.7329 83.5697L31.7529 68.6034L17.8929 80.9893H10.4679H3.04297V72.7321L5.02296 65.507L14.4279 54.6693L7.99295 40.2191Z" fill="#E0C46D"/>
<path d="M80.7577 2.0293L45.6128 43.8317M45.6128 43.8317L7.99295 40.2191L14.4279 54.6693L5.02296 65.507L3.04297 72.7321V80.9893H10.4679H17.8929L31.7529 68.6034L33.7329 83.5697L48.5828 75.8285L45.6128 43.8317Z" stroke="#E8930C" stroke-width="5.11028"/>
<path d="M14.9199 44.8643H44.6198L43.6298 59.3145L33.2349 71.7003L31.7499 59.8305L17.3949 61.3788L14.9199 44.8643Z" fill="#E14A24" stroke="#E8930C" stroke-width="5.11028"/>
</svg>
