<svg width="84" height="106" viewBox="0 0 84 106" fill="none" xmlns="http://www.w3.org/2000/svg">
<path d="M73.67 48.7427L62.1168 54.0963L56.2695 38.2375C56.0342 37.5995 55.9283 36.9214 55.9578 36.2429L56.3849 26.4444L56.5669 22.27C56.6898 19.4503 54.504 17.0562 51.6848 16.9227L51.4468 16.9114C49.5611 16.8221 47.7837 17.7798 46.8243 19.4022L43.3815 25.2237C43.1507 25.614 42.973 26.0336 42.8532 26.4713L40.7422 34.1844C39.5934 38.3815 33.9934 39.179 31.6909 35.4734C31.1032 34.5275 30.8471 33.4136 30.9633 32.3083L33.0648 12.3151C33.2283 10.7604 34.0945 9.3688 35.416 8.53809L42.6692 3.97848C43.5502 3.42461 44.5806 3.1542 45.622 3.20354L57.3736 3.76031L65.8772 4.16319C66.7849 4.20619 67.6656 4.49049 68.4286 4.98679L73.595 8.34735C74.4911 8.93021 75.1833 9.77839 75.5746 10.7729L80.3737 22.9709C80.6364 23.6385 80.756 24.3533 80.7248 25.0691L80.1911 37.3132C80.1594 38.0418 79.972 38.7546 79.6418 39.4037L76.0633 46.4358C75.5464 47.4515 74.7039 48.2636 73.67 48.7427Z" fill="#E14A24"/>
<path d="M2.44169 104.48L17.1689 76.1098C18.084 74.3468 19.9407 73.2792 21.9277 73.3733L38.7448 74.1701C40.1353 74.2359 41.4904 73.7316 42.4968 72.7735L62.1168 54.0963M62.1168 54.0963L73.67 48.7427C74.7039 48.2636 75.5464 47.4515 76.0633 46.4358L79.6418 39.4037C79.972 38.7546 80.1594 38.0418 80.1911 37.3132L80.7248 25.0691C80.756 24.3533 80.6364 23.6385 80.3737 22.9709L75.5746 10.7729C75.1833 9.77839 74.4911 8.93021 73.595 8.34735L68.4286 4.98679C67.6656 4.49049 66.7849 4.20619 65.8772 4.16319L57.3736 3.76031L45.622 3.20354C44.5806 3.1542 43.5502 3.42461 42.6692 3.97848L35.416 8.53809C34.0945 9.3688 33.2283 10.7604 33.0649 12.3152L30.9633 32.3083C30.8471 33.4136 31.1032 34.5275 31.6909 35.4734V35.4734C33.9934 39.179 39.5934 38.3815 40.7422 34.1844L42.8532 26.4713C42.973 26.0336 43.1507 25.614 43.3815 25.2237L46.8243 19.4022C47.7837 17.7798 49.5611 16.8221 51.4468 16.9114L51.6848 16.9227C54.504 17.0562 56.6898 19.4503 56.5669 22.27L56.3849 26.4444L55.9578 36.2429C55.9283 36.9214 56.0342 37.5995 56.2695 38.2375L62.1168 54.0963Z" stroke="#EE9B19" stroke-width="5.11028"/>
</svg>
