<svg width="80" height="72" viewBox="0 0 80 72" fill="none" xmlns="http://www.w3.org/2000/svg">
<path d="M32.3402 7.77693V35.0462L7.19576 29.5078C3.25592 28.6399 2.14038 23.5554 5.35505 21.1179C6.98402 19.8828 7.63535 17.741 6.96981 15.8081L4.90579 9.81341C3.46309 5.62332 7.67293 1.70846 11.7474 3.45121L17.3586 5.85128C19.2399 6.65597 21.4198 6.2609 22.899 4.84717L23.6991 4.08251C26.9503 0.975335 32.3402 3.27974 32.3402 7.77693Z" fill="#E14A24"/>
<path d="M77.88 69.6235L32.3402 35.0462M32.3402 35.0462V7.77693C32.3402 3.27974 26.9503 0.975335 23.6991 4.08251L22.899 4.84717C21.4198 6.2609 19.2399 6.65597 17.3586 5.85128L11.7474 3.45121C7.67293 1.70846 3.46309 5.62332 4.90579 9.81341L6.96981 15.8081C7.63535 17.741 6.98402 19.8828 5.35505 21.1179V21.1179C2.14038 23.5554 3.25592 28.64 7.19576 29.5078L32.3402 35.0462Z" stroke="#E8930C" stroke-width="5.11028"/>
</svg>
