<svg width="77" height="75" viewBox="0 0 77 75" fill="none" xmlns="http://www.w3.org/2000/svg">
<path d="M44.443 66.2248L45.6304 38.9832L70.5082 45.7061C74.4057 46.7594 75.2984 51.8917 71.9812 54.1743C70.3002 55.3311 69.5563 57.44 70.137 59.4025L71.9377 65.4879C73.1965 69.7422 68.8212 73.4543 64.8271 71.5206L59.3247 68.8568C57.4807 67.964 55.2864 68.2555 53.7473 69.5976L52.9132 70.3249C49.5302 73.2749 44.2472 70.7175 44.443 66.2248Z" fill="#E14A24"/>
<path d="M1.64303 2.28624L45.6304 38.9832M45.6304 38.9832L44.443 66.2248C44.2472 70.7175 49.5302 73.2749 52.9132 70.3249L53.7473 69.5976C55.2864 68.2555 57.4807 67.964 59.3247 68.8568L64.8271 71.5206C68.8212 73.4543 73.1965 69.7422 71.9377 65.4879L70.137 59.4025C69.5563 57.44 70.3002 55.3311 71.9812 54.1743V54.1743C75.2984 51.8917 74.4057 46.7594 70.5082 45.7061L45.6304 38.9832Z" stroke="#EE9B19" stroke-width="5.11028"/>
</svg>
