<svg width="78" height="75" viewBox="0 0 78 75" fill="none" xmlns="http://www.w3.org/2000/svg">
<path d="M45.1774 8.46073L46.3648 35.7023L71.2426 28.9794C75.1401 27.9262 76.0328 22.7939 72.7156 20.5112C71.0346 19.3545 70.2907 17.2456 70.8714 15.283L72.672 9.19769C73.9309 4.94338 69.5555 1.23125 65.5614 3.16491L60.0591 5.82879C58.2151 6.7215 56.0208 6.43004 54.4817 5.08798L53.6476 4.3606C50.2646 1.41067 44.9816 3.96802 45.1774 8.46073Z" fill="#E14A24"/>
<path d="M2.3774 72.3993L46.3648 35.7023M46.3648 35.7023L45.1774 8.46073C44.9816 3.96802 50.2646 1.41067 53.6476 4.3606L54.4817 5.08798C56.0208 6.43004 58.2151 6.7215 60.0591 5.82879L65.5614 3.16491C69.5555 1.23125 73.9309 4.94338 72.672 9.19769L70.8714 15.283C70.2907 17.2456 71.0346 19.3545 72.7156 20.5112V20.5112C76.0328 22.7939 75.1401 27.9262 71.2426 28.9794L46.3648 35.7023Z" stroke="#EE9B19" stroke-width="5.11028"/>
</svg>
