<svg width="86" height="87" viewBox="0 0 86 87" fill="none" xmlns="http://www.w3.org/2000/svg">
<path d="M76.4133 48.5L38.9895 43.1107L37.4157 11.0062L52.5874 3.97588L53.9137 19.0204L68.2987 7.3033L75.716 7.65472L83.1333 8.00614L82.7738 16.2549L80.4813 23.3788L70.6141 33.7602L76.4133 48.5Z" fill="#E0C46D"/>
<path d="M2.0607 83.2066L38.9895 43.1107M38.9895 43.1107L76.4133 48.5L70.6141 33.7602L80.4813 23.3788L82.7738 16.2549L83.1333 8.00613L75.716 7.65472L68.2987 7.3033L53.9137 19.0204L52.5874 3.97588L37.4157 11.0062L38.9895 43.1107Z" stroke="#EE9B19" stroke-width="5.11028"/>
<path d="M69.6909 43.5322L40.0216 42.1266L41.6398 27.7381L52.5633 15.857L53.53 27.7848L67.9375 26.9176L69.6909 43.5322Z" fill="#E14A24" stroke="#EE9B19" stroke-width="5.11028"/>
</svg>
