<svg width="80" height="108" viewBox="0 0 80 108" fill="none" xmlns="http://www.w3.org/2000/svg">
<path d="M8.57147 60.4943L19.8796 54.5995L26.4115 70.1653C26.6743 70.7915 26.8096 71.4637 26.8096 72.1427V81.9516V86.1308C26.8096 88.9531 29.0976 91.241 31.9199 91.241H32.1571C34.0451 91.241 35.7792 90.2001 36.6671 88.5339L39.8528 82.5555C40.0663 82.1547 40.2255 81.7272 40.3261 81.2844L42.0992 73.4791C43.064 69.2324 48.6239 68.1709 51.0853 71.7636C51.7134 72.6804 52.0176 73.7807 51.9497 74.89L50.7208 94.963C50.6253 96.5236 49.8206 97.9546 48.5367 98.8469L41.4896 103.745C40.6334 104.34 39.6157 104.659 38.573 104.659H26.8096H18.2976C17.3887 104.659 16.4964 104.417 15.7124 103.957L10.4052 100.845C9.48467 100.305 8.75622 99.4902 8.32209 98.5153L2.99665 86.5566C2.70527 85.9023 2.55469 85.194 2.55469 84.4777V72.2204C2.55469 71.4912 2.71074 70.7705 3.01237 70.1066L6.28113 62.912C6.7532 61.873 7.55948 61.0219 8.57147 60.4943Z" fill="#E14A24"/>
<path d="M77.2994 1.44336L63.8228 30.4813C62.9853 32.2858 61.1767 33.4402 59.1874 33.4402H42.354C40.9617 33.4402 39.6297 34.0083 38.6659 35.0131L19.8796 54.5995M19.8796 54.5995L8.57147 60.4943C7.55948 61.0219 6.7532 61.873 6.28113 62.912L3.01237 70.1066C2.71074 70.7705 2.55469 71.4912 2.55469 72.2204V84.4777C2.55469 85.194 2.70527 85.9023 2.99665 86.5566L8.32209 98.5153C8.75622 99.4902 9.48467 100.305 10.4052 100.845L15.7124 103.957C16.4964 104.417 17.3887 104.659 18.2976 104.659H26.8096H38.573C39.6157 104.659 40.6334 104.34 41.4896 103.745L48.5367 98.8469C49.8206 97.9546 50.6253 96.5236 50.7208 94.963L51.9497 74.89C52.0176 73.7807 51.7134 72.6804 51.0853 71.7636V71.7636C48.6239 68.1709 43.064 69.2324 42.0992 73.4791L40.3261 81.2844C40.2255 81.7272 40.0663 82.1547 39.8528 82.5555L36.6671 88.5339C35.7792 90.2001 34.0451 91.241 32.1571 91.241H31.9199C29.0976 91.241 26.8096 88.9531 26.8096 86.1308V81.9516V72.1427C26.8096 71.4637 26.6743 70.7915 26.4115 70.1653L19.8796 54.5995Z" stroke="#E8930C" stroke-width="5.11028"/>
</svg>
