<svg width="74" height="82" viewBox="0 0 74 82" fill="none" xmlns="http://www.w3.org/2000/svg">
<path d="M54.3607 12.7107L68.3033 21.475C70.8991 23.1067 71.5202 26.7608 69.6213 29.2291L32.8181 77.0665C31.1968 79.1739 28.3061 79.638 26.1557 78.1361L24.0422 76.66C23.7687 76.4691 23.514 76.2503 23.2816 76.0069L16.2554 68.6469L7.51722 57.4595C7.0282 56.8334 6.68477 56.0971 6.51394 55.3085L3.53922 41.5764C3.36147 40.7558 3.37577 39.9025 3.58089 39.089L4.68545 34.7083C4.91098 33.8138 5.35946 32.998 5.98505 32.3443L9.67559 28.4878C9.86012 28.2949 10.0588 28.1175 10.2698 27.9571L12.9593 25.9133C15.4421 24.0266 15.7264 20.2656 13.558 17.9942L4.57801 8.5877C2.85097 6.77864 3.78533 3.68433 6.19235 3.24148C6.36569 3.20959 6.54136 3.1936 6.71736 3.19372L26.7284 3.20629C27.2651 3.20663 27.7983 3.29749 28.3073 3.47537L53.371 12.2337C53.7165 12.3545 54.0484 12.5144 54.3607 12.7107Z" fill="#C86048" stroke="#DFCAA1" stroke-width="5.11028"/>
</svg>
