<svg width="73" height="81" viewBox="0 0 73 81" fill="none" xmlns="http://www.w3.org/2000/svg">
<path d="M19.7151 12.2328L5.86012 20.9116C3.25959 22.5406 2.63734 26.1886 4.5397 28.6527L41.1569 76.0823C42.7812 78.1862 45.6772 78.6495 47.8316 77.1501L49.9118 75.7023C50.1858 75.5117 50.4411 75.2932 50.6739 75.0502L57.6697 67.7476L66.3683 56.6496C66.8583 56.0246 67.2023 55.2895 67.3735 54.5023L70.3331 40.8874C70.5112 40.0683 70.4969 39.2164 70.2914 38.4042L69.1951 34.0715C68.9691 33.1786 68.5198 32.3642 67.8931 31.7115L64.2246 27.8914C64.0398 27.6989 63.8407 27.5218 63.6293 27.3617L60.9802 25.3555C58.4929 23.472 58.2081 19.7172 60.3804 17.4497L69.3001 8.13896C71.0202 6.34347 70.0896 3.27236 67.6922 2.83284C67.5196 2.80118 67.3446 2.78533 67.1693 2.78543L47.2436 2.79791C46.7059 2.79825 46.1718 2.88896 45.6618 3.06655L20.7066 11.7566C20.3605 11.8771 20.028 12.0368 19.7151 12.2328Z" fill="#C86048" stroke="#DFCAA1" stroke-width="5.11028"/>
</svg>
