<svg width="73" height="81" viewBox="0 0 73 81" fill="none" xmlns="http://www.w3.org/2000/svg">
<path d="M19.6682 68.5426L5.81324 59.8638C3.21271 58.2348 2.59047 54.5868 4.49283 52.1227L41.1101 4.69304C42.7343 2.58917 45.6303 2.12588 47.7847 3.62526L49.865 5.07306C50.1389 5.26374 50.3942 5.48216 50.627 5.72516L57.6229 13.0278L66.3215 24.1257C66.8114 24.7508 67.1555 25.4859 67.3266 26.2731L70.2862 39.888C70.4643 40.7071 70.45 41.559 70.2445 42.3712L69.1482 46.7039C68.9223 47.5968 68.473 48.4112 67.8462 49.0639L64.1778 52.884C63.9929 53.0765 63.7938 53.2536 63.5824 53.4137L60.9333 55.4199C58.446 57.3034 58.1612 61.0582 60.3335 63.3257L69.2532 72.6364C70.9733 74.4319 70.0427 77.503 67.6454 77.9426C67.4727 77.9742 67.2978 77.9901 67.1225 77.99L47.1967 77.9775C46.659 77.9771 46.1249 77.8864 45.6149 77.7088L20.6598 69.0188C20.3136 68.8983 19.9811 68.7386 19.6682 68.5426Z" fill="#C86048" stroke="#DFCAA1" stroke-width="5.11028"/>
</svg>
