<svg width="29" height="38" viewBox="0 0 29 38" fill="none" xmlns="http://www.w3.org/2000/svg">
<path d="M23.7164 25.3983L26.1305 17.7948C26.4272 16.8603 26.4488 15.8601 26.1927 14.9136L24.8163 9.82704C24.3898 8.25098 23.2359 6.97357 21.7111 6.3896L13.6241 3.2923C10.028 1.91499 6.58107 5.61042 8.205 9.10213C9.14219 11.1172 8.38364 13.5144 6.45783 14.6235L5.13918 15.383C1.9076 17.2442 2.77471 22.1278 6.44949 22.7628C8.40629 23.1009 9.81552 24.8281 9.75398 26.8129L9.61776 31.2064C9.53888 33.7504 12.0491 35.5735 14.4439 34.7114C14.9186 34.5406 15.3522 34.272 15.7166 33.923L22.3799 27.543C22.9979 26.9512 23.4575 26.2138 23.7164 25.3983Z" fill="#D9D9D9" stroke="#E8930C" stroke-width="5.11028"/>
</svg>
