<svg width="42" height="52" viewBox="0 0 42 52" fill="none" xmlns="http://www.w3.org/2000/svg">
<path d="M16.7539 46.1338L6.308 39.1414C5.27125 38.4474 4.52418 37.3982 4.20763 36.1914L2.87991 31.1297C2.68273 30.378 2.65959 29.5912 2.81226 28.8292L5.92524 13.2915C6.17967 12.0216 6.9068 10.8956 7.95961 10.1413L16.5754 3.9682C17.0059 3.65974 17.4998 3.45109 18.021 3.35742C20.4989 2.91216 22.645 5.10633 22.145 7.57374L20.8527 13.9504C20.7917 14.251 20.7026 14.5452 20.5864 14.8291L18.5274 19.8593C17.6892 21.9069 19.7023 23.9661 21.7684 23.1745C21.9698 23.0973 22.1605 22.9947 22.3358 22.8691L28.9648 18.1195C29.2169 17.9389 29.4509 17.7343 29.6635 17.5085L31.1731 15.9055C32.8985 14.0732 35.9458 14.673 36.8481 17.0225C36.9613 17.317 37.033 17.6258 37.0614 17.94L37.559 23.4534C37.6655 24.6325 37.3592 25.8118 36.6927 26.7902L34.2711 30.3445C32.8339 32.4539 33.1736 35.3002 35.0667 37.0122L37.4971 39.21C39.0133 40.5811 38.8758 43.002 37.2141 44.1925L32.1219 47.841C30.9876 48.6537 29.5704 48.9672 28.1991 48.7088L18.6501 46.909C17.9722 46.7813 17.3271 46.5176 16.7539 46.1338Z" fill="#D9D9D9" stroke="#E8930C" stroke-width="5.11028"/>
</svg>
