<svg width="45" height="51" viewBox="0 0 45 51" fill="none" xmlns="http://www.w3.org/2000/svg">
<path d="M8.09947 13.3384L3.68067 25.1063C3.2421 26.2743 3.24595 27.5623 3.69148 28.7277L5.56022 33.6155C5.83774 34.3414 6.27717 34.9945 6.84508 35.525L18.4251 46.3423C19.3715 47.2265 20.6184 47.7182 21.9135 47.7182H32.5126C33.0422 47.7182 33.5651 47.6002 34.0434 47.3728C36.317 46.2915 36.7836 43.258 34.94 41.5435L30.1757 37.1127C29.951 36.9038 29.7072 36.7166 29.4474 36.5535L24.844 33.6637C22.9701 32.4874 23.4072 29.641 25.5477 29.0812C25.7564 29.0266 25.9711 28.999 26.1868 28.999H34.3417C34.6518 28.999 34.9612 29.029 35.2655 29.0887L37.4263 29.5126C39.8961 29.9971 42.0238 27.7348 41.3889 25.2993C41.3093 24.994 41.1878 24.7012 41.0279 24.4292L38.2213 19.6576C37.6211 18.6372 36.6853 17.8569 35.5736 17.4498L31.535 15.9709C29.1382 15.0933 27.7566 12.5817 28.2984 10.0875L28.994 6.88538C29.4279 4.88782 27.9061 3 25.862 3H19.5977C18.2023 3 16.8676 3.5706 15.9035 4.57932L9.18938 11.6038C8.71273 12.1025 8.34198 12.6926 8.09947 13.3384Z" fill="#D9D9D9" stroke="#E8930C" stroke-width="5.11028"/>
</svg>
