<svg width="79" height="72" viewBox="0 0 79 72" fill="none" xmlns="http://www.w3.org/2000/svg">
<path d="M31.4183 64.1918V36.9226L6.27389 42.461C2.33404 43.3288 1.21851 48.4133 4.43317 50.8508C6.06214 52.086 6.71347 54.2277 6.04794 56.1607L3.98391 62.1553C2.54121 66.3454 6.75105 70.2603 10.8255 68.5175L16.4367 66.1175C18.318 65.3128 20.4979 65.7079 21.9772 67.1216L22.7773 67.8862C26.0285 70.9934 31.4183 68.689 31.4183 64.1918Z" fill="#E14A24"/>
<path d="M76.9582 2.34529L31.4183 36.9226M31.4183 36.9226V64.1918C31.4183 68.689 26.0285 70.9934 22.7773 67.8862L21.9772 67.1216C20.4979 65.7079 18.318 65.3128 16.4367 66.1175L10.8255 68.5175C6.75105 70.2603 2.54121 66.3454 3.98391 62.1553L6.04794 56.1607C6.71347 54.2277 6.06214 52.086 4.43317 50.8508V50.8508C1.21851 48.4133 2.33404 43.3288 6.27389 42.461L31.4183 36.9226Z" stroke="#E8930C" stroke-width="5.11028"/>
</svg>
