<svg width="35" height="47" viewBox="0 0 35 47" fill="none" xmlns="http://www.w3.org/2000/svg">
<path d="M28.171 14.7055L31.3488 25.0954C31.6255 26 31.6456 26.9637 31.407 27.8791L29.4426 35.4147C29.0323 36.9888 27.8971 38.2735 26.3856 38.8744L15.6392 43.1469C11.3759 44.8418 7.21179 40.4956 9.08767 36.3087L9.5379 35.3038C10.597 32.9398 9.7199 30.1573 7.49658 28.8281L5.46732 27.6149C1.49874 25.2423 2.59945 19.2169 7.15056 18.4006C9.58942 17.9632 11.3402 15.8058 11.2662 13.3291L11.0917 7.48489C10.9992 4.38902 14.074 2.18675 16.9754 3.27085C17.5558 3.48772 18.0833 3.82582 18.5227 4.26261L26.8866 12.5757C27.4836 13.169 27.9248 13.9006 28.171 14.7055Z" fill="#D9D9D9" stroke="#E8930C" stroke-width="5.11028"/>
</svg>
