<svg width="44" height="51" viewBox="0 0 44 51" fill="none" xmlns="http://www.w3.org/2000/svg">
<path d="M7.68444 37.1694L3.26563 25.4015C2.82706 24.2335 2.83091 22.9455 3.27644 21.7801L5.14518 16.8923C5.4227 16.1664 5.86214 15.5133 6.43004 14.9828L18.0101 4.16547C18.9565 3.28136 20.2033 2.78959 21.4985 2.78959H32.0975C32.6271 2.78959 33.1501 2.9076 33.6284 3.13506C35.902 4.21629 36.3685 7.24982 34.525 8.96431L29.7606 13.3951C29.536 13.604 29.2922 13.7912 29.0324 13.9543L24.429 16.8441C22.555 18.0204 22.9921 20.8668 25.1327 21.4267C25.3413 21.4812 25.5561 21.5089 25.7718 21.5089H33.9266C34.2368 21.5089 34.5462 21.4788 34.8505 21.4191L37.0112 20.9952C39.481 20.5107 41.6087 22.773 40.9739 25.2085C40.8943 25.5138 40.7728 25.8066 40.6128 26.0786L37.8062 30.8502C37.206 31.8706 36.2702 32.6509 35.1586 33.058L31.12 34.5369C28.7232 35.4145 27.3415 37.9261 27.8833 40.4204L28.5789 43.6224C29.0128 45.62 27.4911 47.5078 25.4469 47.5078H19.1826C17.7873 47.5078 16.4526 46.9372 15.4884 45.9285L8.77434 38.904C8.29769 38.4053 7.92694 37.8152 7.68444 37.1694Z" fill="#D9D9D9" stroke="#E8930C" stroke-width="5.11028"/>
</svg>
