<svg width="45" height="51" viewBox="0 0 45 51" fill="none" xmlns="http://www.w3.org/2000/svg">
<path d="M8.11168 13.1587L3.69288 24.9266C3.25431 26.0946 3.25816 27.3827 3.70369 28.548L5.57242 33.4358C5.84995 34.1617 6.28938 34.8148 6.85729 35.3453L18.4373 46.1627C19.3838 47.0468 20.6306 47.5385 21.9258 47.5385H32.5248C33.0544 47.5385 33.5773 47.4205 34.0556 47.1931C36.3292 46.1118 36.7958 43.0783 34.9522 41.3638L30.1879 36.933C29.9632 36.7241 29.7194 36.5369 29.4596 36.3738L24.8562 33.484C22.9823 32.3077 23.4194 29.4614 25.5599 28.9015C25.7686 28.8469 25.9834 28.8193 26.199 28.8193H34.3539C34.664 28.8193 34.9734 28.8493 35.2778 28.909L37.4385 29.3329C39.9083 29.8174 42.036 27.5551 41.4011 25.1196C41.3215 24.8143 41.2 24.5215 41.0401 24.2495L38.2335 19.4779C37.6333 18.4575 36.6975 17.6772 35.5858 17.2701L31.5472 15.7912C29.1504 14.9136 27.7688 12.402 28.3106 9.90777L29.0062 6.70569C29.4401 4.70813 27.9183 2.82031 25.8742 2.82031H19.6099C18.2145 2.82031 16.8798 3.39091 15.9157 4.39963L9.20158 11.4242C8.72493 11.9228 8.35418 12.5129 8.11168 13.1587Z" fill="#D9D9D9" stroke="#E8930C" stroke-width="5.11028"/>
</svg>
