<svg width="45" height="51" viewBox="0 0 45 51" fill="none" xmlns="http://www.w3.org/2000/svg">
<path d="M8.11168 37.3794L3.69288 25.6115C3.25431 24.4435 3.25816 23.1554 3.70369 21.9901L5.57242 17.1022C5.84995 16.3763 6.28938 15.7233 6.85729 15.1928L18.4373 4.37543C19.3838 3.49132 20.6306 2.99955 21.9258 2.99955H32.5248C33.0544 2.99955 33.5773 3.11757 34.0556 3.34502C36.3292 4.42625 36.7958 7.45979 34.9522 9.17427L30.1879 13.6051C29.9632 13.814 29.7194 14.0012 29.4596 14.1643L24.8562 17.054C22.9823 18.2304 23.4194 21.0767 25.5599 21.6366C25.7686 21.6912 25.9834 21.7188 26.199 21.7188H34.3539C34.664 21.7188 34.9734 21.6887 35.2778 21.629L37.4385 21.2052C39.9083 20.7207 42.036 22.983 41.4011 25.4185C41.3215 25.7238 41.2 26.0166 41.0401 26.2886L38.2335 31.0602C37.6333 32.0805 36.6975 32.8609 35.5858 33.268L31.5472 34.7468C29.1504 35.6245 27.7688 38.1361 28.3106 40.6303L29.0062 43.8324C29.4401 45.83 27.9183 47.7178 25.8742 47.7178H19.6099C18.2145 47.7178 16.8798 47.1472 15.9157 46.1385L9.20158 39.1139C8.72493 38.6152 8.35418 38.0252 8.11168 37.3794Z" fill="#D9D9D9" stroke="#E8930C" stroke-width="5.11028"/>
</svg>
