<svg width="56" height="54" viewBox="0 0 56 54" fill="none" xmlns="http://www.w3.org/2000/svg">
<path d="M9.03333 47.494L15.4602 50.856C18.1143 52.2444 21.388 51.0628 22.5436 48.2994L26.9574 37.7442C27.2185 37.1197 27.353 36.4496 27.353 35.7727V25.8786V21.6293C27.353 18.8069 29.6409 16.519 32.4633 16.519H32.7295C34.6201 16.519 36.3563 17.5628 37.2429 19.2326L40.4519 25.2759C40.6644 25.6759 40.8227 26.1024 40.9227 26.5442L42.7048 34.4166C43.6714 38.6865 49.2636 39.7516 51.7321 36.1359C52.3595 35.217 52.6632 34.1154 52.5954 33.0048L51.3595 12.7458C51.2644 11.1877 50.4625 9.75853 49.1822 8.86553L42.0893 3.91835C41.2318 3.32022 40.2114 2.99951 39.1658 2.99951H27.353H18.8051C17.8936 2.99951 16.9988 3.24329 16.2132 3.70559L10.8747 6.84733C9.95534 7.38839 9.22833 8.20361 8.79562 9.1787L3.43927 21.2489C3.14964 21.9015 3 22.6077 3 23.3217V35.6952C3 36.4221 3.15509 37.1407 3.45491 37.8029L6.74671 45.0736C7.21732 46.1131 8.02228 46.9651 9.03333 47.494Z" fill="#E14A24" stroke="#E8930C" stroke-width="5.11028"/>
</svg>
