<svg width="29" height="38" viewBox="0 0 29 38" fill="none" xmlns="http://www.w3.org/2000/svg">
<path d="M23.1314 12.1095L25.5455 19.713C25.8422 20.6475 25.8638 21.6477 25.6077 22.5942L24.2313 27.6808C23.8048 29.2568 22.6509 30.5342 21.1262 31.1182L13.0392 34.2155C9.44302 35.5928 5.99611 31.8974 7.62004 28.4057C8.55723 26.3906 7.79867 23.9934 5.87286 22.8843L4.55422 22.1248C1.32264 20.2636 2.18975 15.38 5.86453 14.745C7.82132 14.4069 9.23056 12.6797 9.16901 10.6949L9.03279 6.30144C8.95391 3.75739 11.4641 1.93433 13.8589 2.79638C14.3337 2.96726 14.7672 3.23585 15.1317 3.58478L21.795 9.96484C22.413 10.5566 22.8725 11.294 23.1314 12.1095Z" fill="#D9D9D9" stroke="#E8930C" stroke-width="5.11028"/>
</svg>
