<svg width="42" height="49" viewBox="0 0 42 49" fill="none" xmlns="http://www.w3.org/2000/svg">
<path d="M6.93516 37.7606L4.16763 26.6043C4.1196 26.4107 3.95002 26.2713 3.75097 26.2619C3.43598 26.247 3.23264 25.9208 3.35831 25.632L9.49865 11.5214C9.63629 11.2051 9.80569 10.9037 10.0042 10.6218L13.605 5.50972C14.4806 4.26649 15.8666 3.48096 17.3849 3.36726L20.7362 3.11632C22.4264 2.98976 24.0724 3.71036 25.13 5.03985L26.102 6.26178C27.3428 7.82143 27.5687 9.95618 26.6811 11.7333L24.5907 15.9189C22.9398 19.2242 25.2448 23.1474 28.9405 23.3224L30.9688 23.4185L35.0919 23.6139C36.7716 23.6935 38.2248 24.8186 38.7245 26.4263C39.0268 27.3992 38.9463 28.4496 38.4994 29.3622L38.0927 30.1928C37.127 32.165 35.006 33.2933 32.8267 32.9941L27.5619 32.2714C23.9105 31.7701 21.1602 35.5208 22.6408 38.9006C24.4348 42.9958 20.0577 47.1157 16.1569 44.9311L9.33727 40.9628C8.13654 40.2641 7.26947 39.1082 6.93516 37.7606Z" fill="#C92325" stroke="#EE9B19" stroke-width="5.11028"/>
</svg>
