<svg width="42" height="51" viewBox="0 0 42 51" fill="none" xmlns="http://www.w3.org/2000/svg">
<path d="M17.1689 5.37398L6.72304 12.3664C5.68628 13.0604 4.93922 14.1097 4.62267 15.3164L3.29495 20.3781C3.09777 21.1298 3.07463 21.9166 3.2273 22.6786L6.34028 38.2163C6.59471 39.4862 7.32184 40.6122 8.37465 41.3665L16.9905 47.5396C17.421 47.8481 17.9148 48.0567 18.4361 48.1504C20.914 48.5957 23.0601 46.4015 22.56 43.9341L21.2677 37.5574C21.2068 37.2568 21.1176 36.9626 21.0014 36.6787L18.9424 31.6486C18.1043 29.6009 20.1173 27.5417 22.1834 28.3333C22.3848 28.4105 22.5755 28.5131 22.7508 28.6387L29.3798 33.3883C29.6319 33.5689 29.8659 33.7736 30.0785 33.9993L31.5881 35.6023C33.3136 37.4346 36.3608 36.8349 37.2632 34.4854C37.3763 34.1908 37.4481 33.882 37.4764 33.5678L37.9741 28.0544C38.0805 26.8754 37.7743 25.696 37.1077 24.7176L34.6861 21.1633C33.249 19.0539 33.5886 16.2076 35.4818 14.4956L37.9121 12.2978C39.4283 10.9267 39.2908 8.50586 37.6291 7.3153L32.537 3.66685C31.4027 2.85415 29.9854 2.54062 28.6141 2.79906L19.0651 4.59878C18.3872 4.72655 17.7422 4.99025 17.1689 5.37398Z" fill="#D9D9D9" stroke="#E8930C" stroke-width="5.11028"/>
</svg>
