<svg width="57" height="58" viewBox="0 0 57 58" fill="none" xmlns="http://www.w3.org/2000/svg">
<path d="M42.8472 4.67399L35.847 2.77543C32.9561 1.99138 30.0138 3.85046 29.4807 6.79797L27.4444 18.0561C27.3239 18.7222 27.3369 19.4056 27.4827 20.0666L29.6142 29.7284L30.5296 33.878C31.1376 36.634 29.3962 39.3611 26.6402 39.9691L26.3802 40.0265C24.534 40.4338 22.6137 39.7885 21.3882 38.3489L16.9527 33.1388C16.659 32.7939 16.4126 32.4115 16.2197 32.0016L12.7836 24.698C10.9198 20.7366 5.22943 20.9012 3.59781 24.9638C3.18313 25.9962 3.12383 27.1374 3.42924 28.2073L9.00051 47.7244C9.42899 49.2255 10.52 50.4483 11.9626 51.0445L19.9546 54.3476C20.9209 54.7469 21.9864 54.8403 23.0074 54.6151L34.5429 52.0703L42.8901 50.2289C43.7802 50.0325 44.6015 49.6017 45.269 48.981L49.8054 44.763C50.5866 44.0366 51.1209 43.0839 51.3334 42.0385L53.9638 29.0978C54.106 28.3981 54.1 27.6763 53.9462 26.979L51.2806 14.896C51.124 14.1862 50.8178 13.5179 50.3823 12.9358L45.6016 6.54497C44.9181 5.6313 43.9485 4.97266 42.8472 4.67399Z" fill="#E14A24" stroke="#E8930C" stroke-width="5.11028"/>
</svg>
