<svg width="42" height="49" viewBox="0 0 42 49" fill="none" xmlns="http://www.w3.org/2000/svg">
<path d="M35.3163 37.7606L38.0838 26.6043C38.1319 26.4107 38.3014 26.2713 38.5005 26.2619C38.8155 26.247 39.0188 25.9208 38.8932 25.632L32.7528 11.5214C32.6152 11.2051 32.4458 10.9037 32.2472 10.6218L28.6465 5.50972C27.7708 4.26649 26.3849 3.48096 24.8666 3.36726L21.5153 3.11632C19.8251 2.98976 18.1791 3.71036 17.1215 5.03985L16.1494 6.26178C14.9087 7.82143 14.6828 9.95618 15.5703 11.7333L17.6608 15.9189C19.3116 19.2242 17.0066 23.1474 13.3109 23.3224L11.2827 23.4185L7.15959 23.6139C5.47988 23.6935 4.02669 24.8186 3.527 26.4263C3.22462 27.3992 3.30512 28.4496 3.75202 29.3622L4.15876 30.1928C5.1245 32.165 7.24551 33.2933 9.4248 32.9941L14.6896 32.2714C18.341 31.7701 21.0913 35.5208 19.6106 38.9006C17.8167 42.9958 22.1938 47.1157 26.0946 44.9311L32.9142 40.9628C34.1149 40.2641 34.982 39.1082 35.3163 37.7606Z" fill="#E14A24" stroke="#EE9B19" stroke-width="5.11028"/>
</svg>
