<svg width="35" height="46" viewBox="0 0 35 46" fill="none" xmlns="http://www.w3.org/2000/svg">
<path d="M28.171 14.5258L31.3488 24.9157C31.6255 25.8203 31.6456 26.784 31.407 27.6994L29.4426 35.2351C29.0323 36.8091 27.8971 38.0938 26.3856 38.6948L15.6392 42.9672C11.3759 44.6622 7.21179 40.3159 9.08767 36.129L9.5379 35.1241C10.597 32.7601 9.7199 29.9777 7.49658 28.6484L5.46732 27.4353C1.49874 25.0626 2.59945 19.0372 7.15056 18.2209C9.58942 17.7835 11.3402 15.6261 11.2662 13.1494L11.0917 7.30521C10.9992 4.20933 14.074 2.00706 16.9754 3.09116C17.5558 3.30803 18.0833 3.64613 18.5227 4.08292L26.8866 12.396C27.4836 12.9894 27.9248 13.721 28.171 14.5258Z" fill="#D9D9D9" stroke="#E8930C" stroke-width="5.11028"/>
</svg>
