<svg width="42" height="49" viewBox="0 0 42 49" fill="none" xmlns="http://www.w3.org/2000/svg">
<path d="M35.3163 11.0431L38.0838 22.1994C38.1319 22.393 38.3014 22.5324 38.5005 22.5418C38.8155 22.5567 39.0188 22.8829 38.8932 23.1717L32.7528 37.2823C32.6152 37.5986 32.4458 37.9 32.2472 38.1819L28.6465 43.294C27.7708 44.5372 26.3849 45.3228 24.8666 45.4364L21.5153 45.6874C19.8251 45.8139 18.1791 45.0934 17.1215 43.7639L16.1494 42.5419C14.9087 40.9823 14.6828 38.8475 15.5703 37.0704L17.6608 32.8848C19.3116 29.5795 17.0066 25.6564 13.3109 25.4813L11.2827 25.3852L7.15959 25.1898C5.47988 25.1102 4.02669 23.9852 3.527 22.3774C3.22462 21.4045 3.30512 20.3541 3.75202 19.4415L4.15876 18.6109C5.1245 16.6387 7.24551 15.5104 9.4248 15.8096L14.6896 16.5323C18.341 17.0336 21.0913 13.2829 19.6106 9.90309C17.8167 5.80795 22.1938 1.68802 26.0946 3.87264L32.9142 7.84091C34.1149 8.5396 34.982 9.69548 35.3163 11.0431Z" fill="#E14A24" stroke="#EE9B19" stroke-width="5.11028"/>
</svg>
