<svg width="34" height="47" viewBox="0 0 34 47" fill="none" xmlns="http://www.w3.org/2000/svg">
<path d="M27.7559 31.8023L30.9337 21.4124C31.2104 20.5078 31.2306 19.5441 30.992 18.6287L29.0276 11.0931C28.6173 9.51902 27.4821 8.23433 25.9705 7.63337L15.2242 3.36095C10.9608 1.66597 6.79675 6.01225 8.67263 10.1991L9.12286 11.204C10.182 13.568 9.30486 16.3505 7.08154 17.6797L5.05228 18.8929C1.0837 21.2655 2.18441 27.291 6.73552 28.1072C9.17438 28.5446 10.9252 30.702 10.8512 33.1787L10.6766 39.0229C10.5842 42.1188 13.659 44.3211 16.5603 43.237C17.1407 43.0201 17.6682 42.682 18.1077 42.2452L26.4716 33.9321C27.0686 33.3388 27.5097 32.6072 27.7559 31.8023Z" fill="#D9D9D9" stroke="#E8930C" stroke-width="5.11028"/>
</svg>
