<svg width="35" height="47" viewBox="0 0 35 47" fill="none" xmlns="http://www.w3.org/2000/svg">
<path d="M28.171 32.0122L31.3488 21.6224C31.6255 20.7178 31.6456 19.7541 31.407 18.8387L29.4426 11.303C29.0323 9.72898 27.8971 8.44429 26.3856 7.84333L15.6392 3.57091C11.3759 1.87593 7.21179 6.22221 9.08767 10.4091L9.5379 11.414C10.597 13.7779 9.7199 16.5604 7.49658 17.8896L5.46732 19.1028C1.49874 21.4754 2.59945 27.5009 7.15056 28.3172C9.58942 28.7546 11.3402 30.912 11.2662 33.3887L11.0917 39.2329C10.9992 42.3288 14.074 44.531 16.9754 43.4469C17.5558 43.2301 18.0833 42.892 18.5227 42.4552L26.8866 34.1421C27.4836 33.5487 27.9248 32.8171 28.171 32.0122Z" fill="#D9D9D9" stroke="#E8930C" stroke-width="5.11028"/>
</svg>
