<svg width="111" height="114" viewBox="0 0 111 114" fill="none" xmlns="http://www.w3.org/2000/svg">
<path d="M80.9243 37.5286L82.7551 32.5021C83.9202 29.3035 81.8772 25.8136 78.6232 25.4437L77.2088 25.2829C76.5836 25.2118 75.9512 25.2649 75.345 25.4394L69.6053 27.0916L63.7182 28.1891C62.13 28.4852 60.5021 27.96 59.3479 26.7791L57.3531 24.7382C56.8357 24.2089 56.4344 23.5685 56.1767 22.8613L54.4368 18.0856C54.1723 17.3595 54.0911 16.5746 54.2011 15.8066L54.9745 10.4065C55.2387 8.56154 53.2738 7.27121 51.8018 8.32301C51.5912 8.4735 51.4094 8.66398 51.2659 8.88458L44.5856 19.1554C43.9053 20.2014 43.6113 21.4707 43.7584 22.7273L44.3038 27.3876L44.9285 34.2963C45.0398 35.5275 45.5649 36.6779 46.4104 37.5429L48.6646 39.8491C49.3537 40.5542 50.2228 41.0358 51.1672 41.236L59.5834 43.0201L66.0533 44.7852C66.8952 45.0149 67.6653 45.4705 68.2874 46.107L69.8795 47.7359C70.5411 48.4127 71.0102 49.2683 71.2345 50.2073L72.3878 55.0352C72.6122 55.9742 73.0813 56.8298 73.7428 57.5067L79.4824 63.3788L83.863 67.8606C84.4852 68.4972 85.2553 68.9528 86.0971 69.1825L89.7636 70.1827C91.4973 70.6557 93.3394 70.1212 94.5911 68.782L97.4318 65.7427L105.138 57.4983C106.668 55.8611 105.726 53.0971 103.55 52.8384C103.363 52.8161 103.174 52.815 102.986 52.835L95.9364 53.5888C95.6759 53.6166 95.4137 53.623 95.1523 53.6078L86.8698 53.1274C85.6612 53.0572 84.5176 52.5303 83.6518 51.6444L81.9342 49.8872C80.9403 48.8704 80.3959 47.4667 80.4318 46.0136L80.5988 39.253C80.6134 38.663 80.7234 38.08 80.9243 37.5286Z" fill="#972527" stroke="#972527" stroke-width="5.11028"/>
<path d="M63.6181 52.8408L65.3366 51.0022C66.9156 49.3129 66.241 46.4738 64.0889 45.7511C63.6895 45.617 63.268 45.5708 62.8508 45.6154L55.7601 46.3735L48.3923 47.5628L42.003 47.9561C41.3517 47.9962 40.6991 47.9024 40.0821 47.6799L31.754 44.6775C31.345 44.53 30.9559 44.3276 30.5967 44.0753L26.0204 40.8619C23.4628 39.066 20.0467 41.0969 20.2148 44.3134C20.2368 44.7353 20.3242 45.1507 20.4734 45.5435L21.7994 49.0334C21.9698 49.4819 22.08 49.9529 22.1269 50.433L22.2669 51.8662C22.3858 53.0831 22.9089 54.2182 23.7451 55.0737L25.2936 56.6579L28.3143 59.7485C28.8974 60.345 29.6111 60.7834 30.3931 61.0251L34.3119 62.2366C36.3537 62.8679 37.2621 65.3592 36.14 67.2504C36.0162 67.4591 35.8709 67.653 35.7068 67.8286L31.6929 72.1231C31.2933 72.5506 30.9669 73.0468 30.728 73.5901L28.2768 79.1644C28.0943 79.5795 27.8449 79.9586 27.5396 80.2852C26.0672 81.8605 26.0955 84.3876 27.6027 85.9296L27.7208 86.0505C27.9539 86.2889 28.2139 86.4965 28.4953 86.6687L30.8528 88.1113C32.4125 89.0658 34.3424 89.0652 35.8998 88.1098L37.6904 87.0113C38.0728 86.7767 38.4235 86.4899 38.7334 86.1584L46.0093 78.3739C46.1751 78.1965 46.3248 78.0034 46.4566 77.7971L48.9019 73.9667C49.6613 72.7772 51.3947 73.012 51.8418 74.3649L54.137 80.6646C54.2958 81.1006 54.5098 81.5125 54.7731 81.8893L57.4724 85.7509C57.7858 86.1992 58.1654 86.5925 58.597 86.916L61.8389 89.3454C62.7589 90.0349 63.8749 90.3773 65.0045 90.3168L71.192 89.9853C71.7522 89.9553 72.3004 89.8055 72.8028 89.5452L75.6492 88.0701C77.8305 86.9396 77.6403 83.6208 75.3452 82.7665C74.9688 82.6264 74.6259 82.4024 74.3402 82.1101L67.963 75.5856C67.766 75.3841 67.5853 75.166 67.4227 74.9333L62.9468 68.5299C62.5293 67.9326 62.2377 67.2494 62.0913 66.5257L61.1038 61.6444C60.9238 60.7549 60.9688 59.8318 61.2343 58.9665L62.5385 54.7151C62.7545 54.011 63.1241 53.3693 63.6181 52.8408Z" fill="#EE9B19" stroke="#972527" stroke-width="5.11028"/>
</svg>
