<svg width="71" height="71" viewBox="0 0 71 71" fill="none" xmlns="http://www.w3.org/2000/svg">
<path d="M16.4988 27.7731L14.4678 24.9721C13.1788 23.1944 13.8212 20.6722 15.7774 19.8304L16.6964 19.4349C17.0779 19.2707 17.4876 19.183 17.9036 19.1766L21.7779 19.1172L25.663 18.6825C26.7072 18.5657 27.6252 17.9406 28.1336 17.0004L29.0517 15.3026C29.2777 14.8846 29.4139 14.4202 29.4513 13.9401L29.71 10.6148C29.7493 10.1095 29.6619 9.59984 29.4562 9.13463L28.0221 5.89126C27.5342 4.78767 28.5346 3.63388 29.6498 4.014C29.8143 4.07006 29.9675 4.15791 30.101 4.2728L36.0414 9.38503C36.6662 9.92273 37.0823 10.6744 37.2108 11.4976L37.6785 14.4926L38.4941 18.9401C38.6371 19.7201 38.5125 20.5221 38.1417 21.2078L37.1071 23.1212C36.8054 23.679 36.3548 24.134 35.8075 24.4334L30.8314 27.1551L27.0718 29.4956C26.5936 29.7933 26.1997 30.2138 25.9276 30.717L25.1926 32.0762C24.9032 32.6115 24.7622 33.2208 24.7849 33.8384L24.905 37.1066C24.9277 37.7243 24.7868 38.3336 24.4973 38.8689L21.9143 43.6457L19.9407 47.2955C19.6686 47.7987 19.2747 48.2192 18.7965 48.5169L16.6781 49.8357C15.6647 50.4666 14.3895 50.4769 13.3443 49.8626L11.0826 48.5332L4.86065 44.8761C3.59018 44.1293 3.67189 42.2212 4.99914 41.642C5.11412 41.5918 5.23423 41.5546 5.3574 41.5311L9.89935 40.6626C10.0687 40.6302 10.2351 40.5841 10.397 40.5246L15.5149 38.6454C16.2512 38.3751 16.8646 37.8405 17.2444 37.1381L18.0418 35.6635C18.4785 34.8558 18.5709 33.8923 18.2973 32.9988L17.0135 28.8068C16.8998 28.4356 16.7257 28.086 16.4988 27.7731Z" fill="#972527" stroke="#972527" stroke-width="3.34741"/>
<path d="M30.001 34.0422L28.6701 33.2599C27.3576 32.4885 27.2583 30.5805 28.4855 29.7167C28.7133 29.5564 28.9715 29.4468 29.2441 29.3947L33.8126 28.5211L38.6351 27.863L42.7058 26.894C43.1208 26.7952 43.5118 26.6137 43.8568 26.3596L48.5613 22.8943C48.7874 22.7278 48.9914 22.5318 49.1684 22.3111L51.5042 19.3991C52.7702 17.8206 55.2704 18.4668 55.7217 20.4891C55.7798 20.7497 55.7971 21.0176 55.7729 21.2823L55.5487 23.7317C55.5205 24.0404 55.5335 24.3525 55.5875 24.6591L55.7529 25.5997C55.8888 26.3721 55.7627 27.1642 55.3961 27.8423L54.6891 29.1497L53.3255 31.6715C53.0706 32.1429 52.7085 32.5422 52.2696 32.8359L49.9673 34.3763C48.8143 35.1477 48.6994 36.8479 49.7348 37.8179C49.8526 37.9283 49.9818 38.025 50.12 38.1062L53.3562 40.0084C53.6937 40.2067 53.9959 40.4639 54.2491 40.7683L56.738 43.7604C56.9275 43.9882 57.1537 44.1808 57.4063 44.3292C58.5993 45.0305 59.0329 46.5858 58.3747 47.8031L58.2876 47.9641C58.1851 48.1535 58.0608 48.3291 57.9172 48.4872L56.6818 49.8468C55.8748 50.7351 54.6575 51.0961 53.498 50.7912L52.2291 50.4575C51.9381 50.381 51.6579 50.2641 51.396 50.1102L45.5026 46.6462C45.364 46.5648 45.233 46.4702 45.1114 46.3636L42.9461 44.4672C42.2489 43.8565 41.1893 44.3164 41.1448 45.249L40.8042 49.6268C40.7811 49.9232 40.7203 50.2145 40.6233 50.4931L39.5971 53.4405C39.4821 53.7708 39.3175 54.0798 39.1092 54.3561L37.4808 56.5167C37.0323 57.1118 36.4004 57.5309 35.6861 57.7069L31.7476 58.6773C31.3904 58.7653 31.0179 58.7757 30.6538 58.708L28.6948 58.3433C27.1015 58.0467 26.5993 55.9292 27.8916 54.9569C28.0995 54.8005 28.2719 54.5997 28.3974 54.3677L31.2628 49.0687C31.3486 48.9099 31.4217 48.744 31.4814 48.5726L33.1768 43.7031C33.331 43.2603 33.3931 42.7874 33.3592 42.3147L33.1267 39.0729C33.0842 38.4811 32.8925 37.9081 32.5706 37.4109L31.0288 35.0298C30.7653 34.6228 30.413 34.2843 30.001 34.0422Z" fill="#EE9B19" stroke="#972527" stroke-width="3.34741"/>
</svg>
