<svg width="71" height="71" viewBox="0 0 71 71" fill="none" xmlns="http://www.w3.org/2000/svg">
<path d="M54.2143 27.7731L56.2453 24.9721C57.5343 23.1944 56.8919 20.6722 54.9357 19.8304L54.0168 19.4349C53.6352 19.2707 53.2255 19.183 52.8095 19.1766L48.9352 19.1172L45.0501 18.6825C44.006 18.5657 43.0879 17.9406 42.5795 17.0004L41.6615 15.3026C41.4354 14.8846 41.2992 14.4202 41.2619 13.9401L41.0031 10.6148C40.9638 10.1095 41.0512 9.59984 41.2569 9.13463L42.691 5.89126C43.179 4.78767 42.1786 3.63388 41.0633 4.014C40.8988 4.07006 40.7456 4.15791 40.6122 4.2728L34.6718 9.38503C34.047 9.92273 33.6309 10.6744 33.5023 11.4976L33.0346 14.4926L32.2191 18.9401C32.076 19.7201 32.2007 20.5221 32.5714 21.2078L33.6061 23.1212C33.9077 23.679 34.3584 24.134 34.9056 24.4334L39.8817 27.1551L43.6413 29.4956C44.1195 29.7933 44.5135 30.2138 44.7855 30.717L45.5205 32.0762C45.81 32.6115 45.9509 33.2208 45.9282 33.8384L45.8081 37.1066C45.7854 37.7243 45.9264 38.3336 46.2158 38.8689L48.7988 43.6457L50.7724 47.2955C51.0445 47.7987 51.4384 48.2192 51.9166 48.5169L54.035 49.8357C55.0484 50.4666 56.3237 50.4769 57.3688 49.8626L59.6305 48.5332L65.8525 44.8761C67.123 44.1293 67.0412 42.2212 65.714 41.642C65.599 41.5918 65.4789 41.5546 65.3557 41.5311L60.8138 40.6626C60.6444 40.6302 60.478 40.5841 60.3161 40.5246L55.1982 38.6454C54.4619 38.3751 53.8485 37.8405 53.4687 37.1381L52.6714 35.6635C52.2346 34.8558 52.1422 33.8923 52.4159 32.9988L53.6997 28.8068C53.8134 28.4356 53.9874 28.086 54.2143 27.7731Z" fill="#972527" stroke="#972527" stroke-width="3.34741"/>
<path d="M40.7121 34.0422L42.043 33.2599C43.3555 32.4885 43.4549 30.5805 42.2276 29.7167C41.9998 29.5564 41.7416 29.4468 41.469 29.3947L36.9006 28.5211L32.0781 27.863L28.0074 26.894C27.5923 26.7952 27.2014 26.6137 26.8563 26.3596L22.1518 22.8943C21.9258 22.7278 21.7217 22.5318 21.5447 22.3111L19.209 19.3991C17.9429 17.8206 15.4428 18.4668 14.9915 20.4891C14.9333 20.7497 14.916 21.0176 14.9402 21.2823L15.1644 23.7317C15.1926 24.0404 15.1796 24.3525 15.1257 24.6591L14.9602 25.5997C14.8243 26.3721 14.9504 27.1642 15.3171 27.8423L16.024 29.1497L17.3876 31.6715C17.6425 32.1429 18.0047 32.5422 18.4436 32.8359L20.7459 34.3763C21.8989 35.1477 22.0137 36.8479 20.9784 37.8179C20.8605 37.9283 20.7313 38.025 20.5932 38.1062L17.3569 40.0084C17.0194 40.2067 16.7172 40.4639 16.4641 40.7683L13.9752 43.7604C13.7856 43.9882 13.5594 44.1808 13.3068 44.3292C12.1138 45.0305 11.6802 46.5858 12.3385 47.8031L12.4256 47.9641C12.528 48.1535 12.6523 48.3291 12.7959 48.4872L14.0313 49.8468C14.8383 50.7351 16.0556 51.0961 17.2151 50.7912L18.484 50.4575C18.775 50.381 19.0553 50.2641 19.3171 50.1102L25.2105 46.6462C25.3491 46.5648 25.4801 46.4702 25.6018 46.3636L27.767 44.4672C28.4643 43.8565 29.5239 44.3164 29.5684 45.249L29.909 49.6268C29.932 49.9232 29.9929 50.2145 30.0899 50.4931L31.116 53.4405C31.2311 53.7708 31.3957 54.0798 31.6039 54.3561L33.2323 56.5167C33.6808 57.1118 34.3128 57.5309 35.0271 57.7069L38.9655 58.6773C39.3228 58.7653 39.6952 58.7757 40.0593 58.708L42.0183 58.3433C43.6116 58.0467 44.1139 55.9292 42.8215 54.9569C42.6136 54.8005 42.4412 54.5997 42.3158 54.3677L39.4504 49.0687C39.3645 48.9099 39.2914 48.744 39.2317 48.5726L37.5363 43.7031C37.3822 43.2603 37.32 42.7874 37.3539 42.3147L37.5865 39.0729C37.6289 38.4811 37.8207 37.9081 38.1426 37.4109L39.6844 35.0298C39.9479 34.6228 40.3001 34.2843 40.7121 34.0422Z" fill="#EE9B19" stroke="#972527" stroke-width="3.34741"/>
</svg>
