<svg width="111" height="114" viewBox="0 0 111 114" fill="none" xmlns="http://www.w3.org/2000/svg">
<path d="M29.5255 38.1292L27.7172 33.182C26.5501 29.9888 28.5965 26.505 31.8563 26.1356L33.2222 25.9809C33.8487 25.9099 34.4822 25.9629 35.0895 26.1371L40.8007 27.7755L46.6494 28.862C48.2404 29.1575 49.8712 28.6333 51.0274 27.4545L52.9991 25.4443C53.5173 24.916 53.9194 24.2767 54.1775 23.5707L55.9081 18.837C56.1716 18.1164 56.2524 17.3373 56.1429 16.575L55.3726 11.2154C55.1094 9.38419 57.0663 8.10366 58.5325 9.14761C58.7423 9.29699 58.9233 9.48606 59.0663 9.70504L65.7133 19.8892C66.395 20.9335 66.6895 22.2007 66.5422 23.4552L66.0003 28.0692L65.3791 34.9151C65.2676 36.1442 64.7416 37.2925 63.8946 38.156L61.6632 40.4311C60.9729 41.1349 60.1022 41.6157 59.1562 41.8155L50.7822 43.5845L44.3458 45.3343C43.5025 45.5635 42.731 46.0184 42.1078 46.6538L40.5334 48.2589C39.8707 48.9346 39.4008 49.7886 39.1761 50.726L38.0313 55.5012C37.8066 56.4385 37.3367 57.2926 36.674 57.9683L30.9634 63.7904L26.6058 68.2331C25.9826 68.8685 25.2112 69.3233 24.3679 69.5526L20.74 70.5388C19.0031 71.011 17.1576 70.4773 15.9035 69.1403L13.0863 66.1366L5.4116 57.9542C3.88749 56.3292 4.82507 53.5859 6.99231 53.3291C7.17911 53.3069 7.36763 53.3058 7.55462 53.3257L14.5734 54.0736C14.8343 54.1014 15.0969 54.1077 15.3589 54.0926L23.5948 53.6165C24.8056 53.5465 25.9512 53.0205 26.8185 52.1362L28.5124 50.4092C29.508 49.3941 30.0534 47.9929 30.0175 46.5423L29.8516 39.8508C29.837 39.2618 29.7267 38.6797 29.5255 38.1292Z" fill="#972527" stroke="#972527" stroke-width="5.11028"/>
<path d="M46.7657 53.3322L45.0545 51.5077C43.4817 49.8309 44.1535 47.0131 46.2969 46.2959C46.6947 46.1627 47.1146 46.1169 47.53 46.1611L54.5921 46.9136L61.9303 48.094L68.2881 48.4839C68.9405 48.524 69.5943 48.4303 70.2125 48.2082L78.498 45.2315C78.9078 45.0843 79.2975 44.8823 79.6574 44.6304L84.2123 41.4432C86.7594 39.6608 90.1618 41.6767 89.9943 44.8689C89.9724 45.2876 89.8854 45.6999 89.7368 46.0897L88.4176 49.5496C88.2469 49.9973 88.1365 50.4675 88.0895 50.9468L87.9516 52.3542C87.8325 53.569 87.3085 54.702 86.4708 55.5561L84.936 57.1208L81.9326 60.183C81.3484 60.7785 80.6335 61.216 79.8501 61.4574L75.9538 62.6578C73.9203 63.2842 73.0156 65.7568 74.1332 67.6337C74.2566 67.8409 74.4013 68.0334 74.5648 68.2077L78.5589 72.4661C78.9593 72.893 79.2863 73.3884 79.5256 73.9309L81.9648 79.4584C82.1466 79.8704 82.395 80.2467 82.699 80.5709C84.1655 82.1344 84.1375 84.6423 82.6365 86.1727L82.5185 86.2929C82.2864 86.5295 82.0274 86.7356 81.7473 86.9064L79.4139 88.3293C77.8514 89.2821 75.9179 89.2815 74.3576 88.3277L72.5925 87.2486C72.2094 87.0144 71.858 86.728 71.5476 86.397L64.3037 78.6739C64.1386 78.4978 63.9894 78.3062 63.8582 78.1014L61.4229 74.2999C60.6665 73.1193 58.94 73.3522 58.4947 74.6949L56.2101 80.9436C56.051 81.3789 55.8367 81.79 55.5729 82.1661L52.8895 85.9917C52.5756 86.4392 52.1953 86.8318 51.763 87.1546L48.546 89.557C47.6245 90.2452 46.5065 90.5871 45.3749 90.5267L39.2224 90.1982C38.6645 90.1684 38.1185 90.0197 37.6181 89.7613L34.7835 88.2975C32.6109 87.1755 32.8001 83.8814 35.086 83.0335C35.4609 82.8945 35.8024 82.6722 36.0869 82.3821L42.4367 75.9083C42.634 75.7071 42.815 75.4893 42.9779 75.2571L47.4307 68.909C47.849 68.3127 48.1411 67.6307 48.2878 66.9082L49.2684 62.0778C49.4487 61.1898 49.4036 60.2683 49.1377 59.4043L47.8411 55.1926C47.626 54.4938 47.2578 53.8569 46.7657 53.3322Z" fill="#EE9B19" stroke="#972527" stroke-width="5.11028"/>
</svg>
