<svg width="111" height="114" viewBox="0 0 111 114" fill="none" xmlns="http://www.w3.org/2000/svg">
<path d="M30.1105 76.3786L28.3022 81.3258C27.135 84.5191 29.1814 88.0028 32.4413 88.3722L33.8072 88.5269C34.4336 88.5979 35.0671 88.5449 35.6745 88.3707L41.3856 86.7323L47.2343 85.6458C48.8254 85.3503 50.4561 85.8745 51.6123 87.0533L53.584 89.0635C54.1023 89.5918 54.5043 90.2311 54.7624 90.9371L56.4931 95.6708C56.7565 96.3914 56.8374 97.1705 56.7278 97.9328L55.9576 103.292C55.6944 105.124 57.6513 106.404 59.1174 105.36C59.3272 105.211 59.5083 105.022 59.6512 104.803L66.2983 94.6186C66.9799 93.5743 67.2745 92.3071 67.1271 91.0526L66.5852 86.4386L65.9641 79.5927C65.8525 78.3636 65.3265 77.2153 64.4796 76.3518L62.2481 74.0767C61.5578 73.3729 60.6872 72.8922 59.7412 72.6923L51.3672 70.9233L44.9307 69.1735C44.0874 68.9443 43.316 68.4894 42.6928 67.854L41.1184 66.2489C40.4557 65.5733 39.9858 64.7192 39.7611 63.7818L38.6163 59.0066C38.3916 58.0693 37.9217 57.2152 37.259 56.5395L31.5484 50.7174L27.1908 46.2747C26.5676 45.6394 25.7961 45.1845 24.9528 44.9553L21.325 43.969C19.5881 43.4968 17.7426 44.0305 16.4885 45.3675L13.6712 48.3712L5.99656 56.5536C4.47246 58.1786 5.41004 60.9219 7.57727 61.1787C7.76407 61.2009 7.95259 61.202 8.13958 61.1821L15.1583 60.4342C15.4193 60.4064 15.6819 60.4001 15.9438 60.4152L24.1798 60.8913C25.3906 60.9613 26.5361 61.4874 27.4035 62.3716L29.0974 64.0986C30.093 65.1137 30.6384 66.5149 30.6024 67.9655L30.4365 74.657C30.4219 75.246 30.3117 75.8281 30.1105 76.3786Z" fill="#972527" stroke="#972527" stroke-width="5.11028"/>
<path d="M47.3507 61.1756L45.6394 63.0001C44.0667 64.6769 44.7384 67.4947 46.8819 68.212C47.2797 68.3451 47.6995 68.3909 48.115 68.3467L55.1771 67.5942L62.5152 66.4138L68.8731 66.0239C69.5255 65.9839 70.1793 66.0775 70.7974 66.2996L79.083 69.2763C79.4927 69.4235 79.8825 69.6256 80.2424 69.8774L84.7972 73.0646C87.3444 74.847 90.7467 72.8311 90.5793 69.6389C90.5573 69.2202 90.4703 68.8079 90.3217 68.4181L89.0026 64.9583C88.8319 64.5105 88.7215 64.0403 88.6745 63.561L88.5365 62.1536C88.4175 60.9389 87.8934 59.8058 87.0558 58.9517L85.521 57.387L82.5175 54.3249C81.9334 53.7293 81.2184 53.2918 80.4351 53.0505L76.5387 51.8501C74.5052 51.2236 73.6006 48.751 74.7182 46.8741C74.8415 46.6669 74.9862 46.4744 75.1497 46.3001L79.1439 42.0417C79.5442 41.6149 79.8712 41.1194 80.1106 40.5769L82.5498 35.0494C82.7316 34.6374 82.9799 34.2611 83.284 33.9369C84.7504 32.3735 84.7224 29.8655 83.2214 28.3352L83.1035 28.2149C82.8714 27.9783 82.6124 27.7723 82.3322 27.6014L79.9989 26.1785C78.4363 25.2257 76.5029 25.2263 74.9426 26.1801L73.1775 27.2592C72.7944 27.4934 72.443 27.7798 72.1325 28.1108L64.8887 35.8339C64.7235 36.01 64.5744 36.2017 64.4432 36.4064L62.0078 40.2079C61.2515 41.3886 59.525 41.1556 59.0796 39.8129L56.7951 33.5642C56.636 33.1289 56.4216 32.7178 56.1578 32.3417L53.4745 28.5161C53.1605 28.0686 52.7803 27.676 52.3479 27.3532L49.131 24.9508C48.2095 24.2626 47.0914 23.9207 45.9599 23.9811L39.8074 24.3096C39.2495 24.3394 38.7035 24.4881 38.2031 24.7465L35.3685 26.2103C33.1958 27.3323 33.3851 30.6264 35.671 31.4743C36.0458 31.6134 36.3873 31.8356 36.6718 32.1257L43.0217 38.5996C43.219 38.8007 43.4 39.0185 43.5629 39.2507L48.0157 45.5988C48.4339 46.1951 48.7261 46.8771 48.8727 47.5996L49.8534 52.43C50.0336 53.318 49.9886 54.2396 49.7226 55.1035L48.4261 59.3152C48.2109 60.014 47.8428 60.651 47.3507 61.1756Z" fill="#EE9B19" stroke="#972527" stroke-width="5.11028"/>
</svg>
