<svg width="71" height="71" viewBox="0 0 71 71" fill="none" xmlns="http://www.w3.org/2000/svg">
<path d="M16.2083 42.7347L14.1773 45.5357C12.8883 47.3134 13.5307 49.8356 15.4869 50.6775L16.4058 51.0729C16.7874 51.2372 17.1971 51.3248 17.6131 51.3312L21.4874 51.3906L25.3725 51.8253C26.4166 51.9421 27.3347 52.5672 27.8431 53.5075L28.7612 55.2052C28.9872 55.6232 29.1234 56.0877 29.1607 56.5677L29.4195 59.893C29.4588 60.3983 29.3714 60.908 29.1657 61.3732L27.7316 64.6166C27.2436 65.7201 28.244 66.8739 29.3593 66.4938C29.5238 66.4378 29.677 66.3499 29.8105 66.235L35.7508 61.1228C36.3756 60.5851 36.7917 59.8334 36.9203 59.0102L37.388 56.0152L38.2035 51.5678C38.3466 50.7877 38.222 49.9857 37.8512 49.3L36.8165 47.3866C36.5149 46.8288 36.0642 46.3738 35.517 46.0744L30.5409 43.3528L26.7813 41.0122C26.3031 40.7145 25.9092 40.294 25.6371 39.7908L24.9021 38.4316C24.6126 37.8963 24.4717 37.2871 24.4944 36.6694L24.6145 33.4012C24.6372 32.7835 24.4963 32.1743 24.2068 31.6389L21.6238 26.8621L19.6502 23.2123C19.3781 22.7091 18.9842 22.2886 18.506 21.9909L16.3876 20.6721C15.3742 20.0412 14.0989 20.0309 13.0538 20.6453L10.7921 21.9746L4.57012 25.6317C3.29965 26.3785 3.38136 28.2866 4.70861 28.8658C4.8236 28.916 4.94371 28.9532 5.06687 28.9767L9.60883 29.8452C9.77821 29.8776 9.94462 29.9237 10.1065 29.9832L15.2244 31.8624C15.9607 32.1327 16.5741 32.6673 16.9539 33.3697L17.7512 34.8443C18.188 35.652 18.2804 36.6155 18.0067 37.509L16.7229 41.701C16.6092 42.0722 16.4352 42.4218 16.2083 42.7347Z" fill="#972527" stroke="#972527" stroke-width="3.34741"/>
<path d="M29.7105 36.4657L28.3796 37.2479C27.0671 38.0194 26.9677 39.9273 28.195 40.7911C28.4228 40.9514 28.681 41.061 28.9536 41.1131L33.522 41.9867L38.3445 42.6448L42.4152 43.6138C42.8303 43.7126 43.2213 43.8941 43.5663 44.1482L48.2708 47.6135C48.4969 47.78 48.7009 47.976 48.8779 48.1967L51.2136 51.1087C52.4797 52.6872 54.9798 52.041 55.4311 50.0187C55.4893 49.7581 55.5066 49.4902 55.4824 49.2255L55.2582 46.7762C55.23 46.4674 55.243 46.1553 55.2969 45.8487L55.4624 44.9081C55.5983 44.1357 55.4722 43.3436 55.1055 42.6655L54.3986 41.3581L53.035 38.8364C52.7801 38.3649 52.4179 37.9656 51.979 37.6719L49.6767 36.1315C48.5238 35.3601 48.4089 33.6599 49.4443 32.6899C49.5621 32.5795 49.6913 32.4828 49.8294 32.4016L53.0657 30.4994C53.4032 30.3011 53.7054 30.0439 53.9586 29.7395L56.4474 26.7474C56.637 26.5196 56.8632 26.327 57.1158 26.1786C58.3088 25.4773 58.7424 23.9221 58.0841 22.7048L57.997 22.5437C57.8946 22.3543 57.7703 22.1787 57.6267 22.0207L56.3913 20.661C55.5843 19.7727 54.367 19.4117 53.2075 19.7166L51.9386 20.0503C51.6476 20.1268 51.3673 20.2437 51.1055 20.3976L45.2121 23.8616C45.0735 23.943 44.9425 24.0377 44.8208 24.1442L42.6556 26.0406C41.9583 26.6513 40.8987 26.1914 40.8543 25.2588L40.5136 20.881C40.4906 20.5846 40.4298 20.2934 40.3327 20.0147L39.3066 17.0673C39.1915 16.737 39.0269 16.4281 38.8187 16.1517L37.1903 13.9911C36.7418 13.396 36.1098 12.9769 35.3955 12.8009L31.4571 11.8305C31.0998 11.7425 30.7274 11.7321 30.3633 11.7999L28.4043 12.1645C26.811 12.4611 26.3087 14.5786 27.6011 15.5509C27.809 15.7073 27.9814 15.9081 28.1069 16.1401L30.9722 21.4391C31.0581 21.5979 31.1312 21.7638 31.1909 21.9353L32.8863 26.8047C33.0405 27.2475 33.1026 27.7204 33.0687 28.1931L32.8361 31.4349C32.7937 32.0267 32.602 32.5997 32.28 33.0969L30.7383 35.478C30.4748 35.885 30.1225 36.2235 29.7105 36.4657Z" fill="#EE9B19" stroke="#972527" stroke-width="3.34741"/>
</svg>
