<svg width="110" height="114" viewBox="0 0 110 114" fill="none" xmlns="http://www.w3.org/2000/svg">
<path d="M80.6024 76.3786L82.4107 81.3258C83.5779 84.5191 81.5315 88.0028 78.2716 88.3722L76.9057 88.5269C76.2793 88.5979 75.6457 88.5449 75.0384 88.3707L69.3273 86.7323L63.4786 85.6458C61.8875 85.3503 60.2567 85.8745 59.1005 87.0533L57.1289 89.0635C56.6106 89.5918 56.2086 90.2311 55.9504 90.9371L54.2198 95.6708C53.9563 96.3914 53.8755 97.1705 53.9851 97.9328L54.7553 103.292C55.0185 105.124 53.0616 106.404 51.5954 105.36C51.3857 105.211 51.2046 105.022 51.0617 104.803L44.4146 94.6186C43.733 93.5743 43.4384 92.3071 43.5858 91.0526L44.1277 86.4386L44.7488 79.5927C44.8604 78.3636 45.3864 77.2153 46.2333 76.3518L48.4648 74.0767C49.1551 73.3729 50.0257 72.8922 50.9717 72.6923L59.3457 70.9233L65.7822 69.1735C66.6255 68.9443 67.3969 68.4894 68.0201 67.854L69.5945 66.2489C70.2572 65.5733 70.7271 64.7192 70.9518 63.7818L72.0966 59.0066C72.3213 58.0693 72.7912 57.2152 73.4539 56.5395L79.1645 50.7174L83.5221 46.2747C84.1453 45.6394 84.9168 45.1845 85.76 44.9553L89.3879 43.969C91.1248 43.4968 92.9703 44.0305 94.2244 45.3675L97.0417 48.3712L104.716 56.5536C106.24 58.1786 105.303 60.9219 103.136 61.1787C102.949 61.2009 102.76 61.202 102.573 61.1821L95.5546 60.4342C95.2936 60.4064 95.031 60.4001 94.7691 60.4152L86.5331 60.8913C85.3223 60.9613 84.1767 61.4874 83.3094 62.3716L81.6155 64.0986C80.6199 65.1137 80.0745 66.5149 80.1105 67.9655L80.2764 74.657C80.291 75.246 80.4012 75.8281 80.6024 76.3786Z" fill="#972527" stroke="#972527" stroke-width="5.11028"/>
<path d="M63.3622 61.1756L65.0735 63.0001C66.6462 64.6769 65.9745 67.4947 63.831 68.212C63.4332 68.3451 63.0134 68.3909 62.5979 68.3467L55.5358 67.5942L48.1976 66.4138L41.8398 66.0239C41.1874 65.9839 40.5336 66.0775 39.9155 66.2996L31.6299 69.2763C31.2202 69.4235 30.8304 69.6256 30.4705 69.8774L25.9157 73.0646C23.3685 74.847 19.9662 72.8311 20.1336 69.6389C20.1556 69.2202 20.2425 68.8079 20.3912 68.4181L21.7103 64.9583C21.881 64.5105 21.9914 64.0403 22.0384 63.561L22.1764 62.1536C22.2954 60.9389 22.8194 59.8058 23.6571 58.9517L25.1919 57.387L28.1954 54.3249C28.7795 53.7293 29.4944 53.2918 30.2778 53.0505L34.1742 51.8501C36.2077 51.2236 37.1123 48.751 35.9947 46.8741C35.8714 46.6669 35.7267 46.4744 35.5631 46.3001L31.569 42.0417C31.1687 41.6149 30.8417 41.1194 30.6023 40.5769L28.1631 35.0494C27.9813 34.6374 27.733 34.2611 27.4289 33.9369C25.9625 32.3735 25.9905 29.8655 27.4915 28.3352L27.6094 28.2149C27.8415 27.9783 28.1005 27.7723 28.3807 27.6014L30.714 26.1785C32.2765 25.2257 34.21 25.2263 35.7703 26.1801L37.5354 27.2592C37.9185 27.4934 38.2699 27.7798 38.5804 28.1108L45.8242 35.8339C45.9894 36.01 46.1385 36.2017 46.2697 36.4064L48.7051 40.2079C49.4614 41.3886 51.1879 41.1556 51.6333 39.8129L53.9178 33.5642C54.0769 33.1289 54.2913 32.7178 54.555 32.3417L57.2384 28.5161C57.5523 28.0686 57.9326 27.676 58.3649 27.3532L61.5819 24.9508C62.5034 24.2626 63.6215 23.9207 64.753 23.9811L70.9055 24.3096C71.4634 24.3394 72.0094 24.4881 72.5098 24.7465L75.3444 26.2103C77.5171 27.3323 77.3278 30.6264 75.0419 31.4743C74.6671 31.6134 74.3256 31.8356 74.0411 32.1257L67.6912 38.5996C67.4939 38.8007 67.3129 39.0185 67.15 39.2507L62.6972 45.5988C62.279 46.1951 61.9868 46.8771 61.8401 47.5996L60.8595 52.43C60.6793 53.318 60.7243 54.2396 60.9903 55.1035L62.2868 59.3152C62.502 60.014 62.8701 60.651 63.3622 61.1756Z" fill="#EE9B19" stroke="#972527" stroke-width="5.11028"/>
</svg>
