<svg width="71" height="71" viewBox="0 0 71 71" fill="none" xmlns="http://www.w3.org/2000/svg">
<path d="M54.6293 42.7347L56.6604 45.5357C57.9494 47.3134 57.307 49.8356 55.3508 50.6775L54.4318 51.0729C54.0502 51.2372 53.6406 51.3248 53.2245 51.3312L49.3502 51.3906L45.4651 51.8253C44.421 51.9421 43.503 52.5672 42.9945 53.5075L42.0765 55.2052C41.8505 55.6232 41.7143 56.0877 41.6769 56.5677L41.4182 59.893C41.3789 60.3983 41.4662 60.908 41.6719 61.3732L43.1061 64.6166C43.594 65.7201 42.5936 66.8739 41.4783 66.4938C41.3138 66.4378 41.1607 66.3499 41.0272 66.235L35.0868 61.1228C34.462 60.5851 34.0459 59.8334 33.9174 59.0102L33.4497 56.0152L32.6341 51.5678C32.4911 50.7877 32.6157 49.9857 32.9865 49.3L34.0211 47.3866C34.3227 46.8288 34.7734 46.3738 35.3207 46.0744L40.2968 43.3528L44.0563 41.0122C44.5345 40.7145 44.9285 40.294 45.2006 39.7908L45.9355 38.4316C46.225 37.8963 46.366 37.2871 46.3433 36.6694L46.2231 33.4012C46.2004 32.7835 46.3414 32.1743 46.6309 31.6389L49.2139 26.8621L51.1874 23.2123C51.4595 22.7091 51.8535 22.2886 52.3317 21.9909L54.4501 20.6721C55.4635 20.0412 56.7387 20.0309 57.7839 20.6453L60.0455 21.9746L66.2675 25.6317C67.538 26.3785 67.4563 28.2866 66.129 28.8658C66.0141 28.916 65.8939 28.9532 65.7708 28.9767L61.2288 29.8452C61.0594 29.8776 60.893 29.9237 60.7311 29.9832L55.6132 31.8624C54.877 32.1327 54.2636 32.6673 53.8838 33.3697L53.0864 34.8443C52.6496 35.652 52.5572 36.6155 52.8309 37.509L54.1147 41.701C54.2284 42.0722 54.4025 42.4218 54.6293 42.7347Z" fill="#972527" stroke="#972527" stroke-width="3.34741"/>
<path d="M41.1272 36.4657L42.4581 37.2479C43.7706 38.0194 43.8699 39.9273 42.6426 40.7911C42.4149 40.9514 42.1566 41.061 41.8841 41.1131L37.3156 41.9867L32.4931 42.6448L28.4224 43.6138C28.0073 43.7126 27.6164 43.8941 27.2714 44.1482L22.5669 47.6135C22.3408 47.78 22.1368 47.976 21.9598 48.1967L19.624 51.1087C18.3579 52.6872 15.8578 52.041 15.4065 50.0187C15.3483 49.7581 15.331 49.4902 15.3553 49.2255L15.5794 46.7762C15.6077 46.4674 15.5947 46.1553 15.5407 45.8487L15.3753 44.9081C15.2394 44.1357 15.3654 43.3436 15.7321 42.6655L16.439 41.3581L17.8026 38.8364C18.0576 38.3649 18.4197 37.9656 18.8586 37.6719L21.1609 36.1315C22.3139 35.3601 22.4287 33.6599 21.3934 32.6899C21.2756 32.5795 21.1464 32.4828 21.0082 32.4016L17.7719 30.4994C17.4345 30.3011 17.1323 30.0439 16.8791 29.7395L14.3902 26.7474C14.2007 26.5196 13.9745 26.327 13.7219 26.1786C12.5288 25.4773 12.0953 23.9221 12.7535 22.7048L12.8406 22.5437C12.943 22.3543 13.0674 22.1787 13.211 22.0207L14.4463 20.661C15.2534 19.7727 16.4707 19.4117 17.6302 19.7166L18.899 20.0503C19.19 20.1268 19.4703 20.2437 19.7322 20.3976L25.6256 23.8616C25.7641 23.943 25.8951 24.0377 26.0168 24.1442L28.1821 26.0406C28.8793 26.6513 29.9389 26.1914 29.9834 25.2588L30.324 20.881C30.3471 20.5846 30.4079 20.2934 30.5049 20.0147L31.5311 17.0673C31.6461 16.737 31.8107 16.4281 32.019 16.1517L33.6474 13.9911C34.0959 13.396 34.7278 12.9769 35.4421 12.8009L39.3806 11.8305C39.7378 11.7425 40.1102 11.7321 40.4744 11.7999L42.4334 12.1645C44.0267 12.4611 44.5289 14.5786 43.2365 15.5509C43.0286 15.7073 42.8562 15.9081 42.7308 16.1401L39.8654 21.4391C39.7796 21.5979 39.7064 21.7638 39.6467 21.9353L37.9514 26.8047C37.7972 27.2475 37.7351 27.7204 37.769 28.1931L38.0015 31.4349C38.044 32.0267 38.2357 32.5997 38.5576 33.0969L40.0994 35.478C40.3629 35.885 40.7151 36.2235 41.1272 36.4657Z" fill="#EE9B19" stroke="#972527" stroke-width="3.34741"/>
</svg>
