<svg width="48" height="114" viewBox="0 0 48 114" fill="none" xmlns="http://www.w3.org/2000/svg">
<path d="M11.6394 1.17969L14.9755 22.6205C15.07 23.2277 15.2732 23.8129 15.5754 24.348L20.9821 33.9209C21.3748 34.6162 21.925 35.2098 22.5885 35.654L34.0043 43.298M34.0043 43.298H47.4233M34.0043 43.298L27.4373 44.7445C25.6572 45.1366 24.2207 46.4471 23.6674 48.1838L21.8205 53.9806C21.6607 54.4822 21.5794 55.0055 21.5794 55.532V67.7883C21.5794 68.1001 21.6079 68.4113 21.6646 68.7179L24.4761 83.9155C24.5328 84.2221 24.5614 84.5333 24.5614 84.8451V93.0809C24.5614 93.5158 24.5058 93.949 24.3961 94.3699L22.1502 102.986C21.7867 104.38 20.8511 105.557 19.574 106.225L14.3636 108.95C13.876 109.205 13.3503 109.38 12.807 109.467L0.705368 111.415" stroke="#E8930C" stroke-width="5.11028"/>
</svg>
