<svg width="152" height="161" viewBox="0 0 152 161" fill="none" xmlns="http://www.w3.org/2000/svg">
<path d="M40.402 23.8249L33.413 16.0825C33.3195 15.9789 33.1993 15.903 33.0655 15.863C32.2851 15.6297 32.3655 14.4994 33.1711 14.379L33.2133 14.3727C33.251 14.367 33.2892 14.3642 33.3273 14.3642H43.4208C43.9399 14.3642 44.4559 14.4433 44.9512 14.5987L52.144 16.8563C53.4255 17.2586 54.4971 18.1491 55.1271 19.3354L58.1721 25.0699C58.7771 26.2093 58.9248 27.5366 58.5849 28.7811C57.2614 33.6274 63.0386 37.238 66.8148 33.9245L69.0485 31.9644C69.3821 31.6717 69.7523 31.4237 70.1499 31.2267L77.3455 27.6606C78.411 27.1326 79.259 26.2495 79.7434 25.1635L85.2913 12.7256C85.7124 11.7814 85.7196 10.7041 85.3111 9.75438L83.2972 5.07198C82.6599 3.59026 84.189 2.10489 85.6516 2.78498C85.8501 2.87728 86.0296 3.00585 86.1808 3.16409L89.0157 6.13C89.2916 6.41867 89.5327 6.73869 89.7341 7.0835L94.5583 15.3426C94.7838 15.7286 94.9576 16.1425 95.0754 16.5738L97.5761 25.7312C97.7762 26.4636 97.8105 27.2315 97.6765 27.9789L96.6813 33.5324C96.4951 34.5712 95.8794 35.4832 94.9856 36.0443L89.8571 39.2637C88.1544 40.3325 88.9117 42.9631 90.922 42.9631L111.796 45.043H130.78C131.045 45.043 131.31 45.0168 131.57 44.965L139.196 43.4452C140.063 43.2725 140.693 44.25 140.179 44.9681C140.143 45.0179 140.103 45.0642 140.058 45.1064L135.258 49.6722C134.86 50.0501 134.405 50.3616 133.909 50.5947L124.043 55.2288C119.612 57.3102 120.362 63.8296 125.149 64.8518L133.821 66.7034C134.375 66.8217 134.906 67.0313 135.391 67.3236L148.546 75.2478C149.698 75.9417 149.713 77.6066 148.574 78.3216L140.539 84.2555C140.264 84.4589 139.968 84.6341 139.658 84.7785L131.63 88.5117C131.33 88.6511 131.017 88.761 130.696 88.84L121.248 91.166C118.897 91.7447 118.562 94.9483 120.742 96.0009L140.664 107.725C142.216 108.639 141.988 110.95 140.288 111.543C140.179 111.581 140.068 111.61 139.955 111.63L122.918 114.601C122.463 114.68 122 114.697 121.541 114.652L106.329 113.16L99.6726 112.357C96.4459 111.967 93.6802 114.649 93.9702 117.886L94.898 128.24V147.479L93.9381 156.182C93.767 157.733 91.7224 158.178 90.922 156.839L81.479 143.319L72.1121 132.049C71.7329 131.593 71.2772 131.206 70.7654 130.906L65.3074 127.708C62.2761 125.932 58.3983 127.674 57.7121 131.12L56.9901 134.746C56.7568 135.918 56.1202 136.971 55.191 137.722L45.695 145.399L38.5661 151.437C37.6588 152.205 36.3195 151.277 36.7207 150.158C36.7395 150.105 36.7621 150.054 36.7883 150.005L41.4135 141.295C41.6163 140.912 41.7699 140.506 41.8704 140.086L45.1403 126.401C45.4919 124.93 45.1736 123.378 44.2711 122.165L38.9823 115.05C38.819 114.831 38.6384 114.624 38.4421 114.434L31.779 107.96L25.318 99.6408L19.9115 93.513C19.5423 93.0945 19.2442 92.6184 19.0289 92.1036L16.2706 85.5075C16.0095 84.883 15.875 84.2128 15.875 83.5359V74.0913C15.875 73.4507 15.9954 72.8158 16.23 72.2198L19.1217 64.8725C19.276 64.4805 19.4781 64.109 19.7236 63.7666L24.9409 56.4885C25.1913 56.1393 25.4847 55.823 25.8143 55.5471L34.4714 48.3012C34.9906 47.8666 35.4183 47.3332 35.7296 46.732L41.1468 36.2685C41.5228 35.5423 41.719 34.7366 41.719 33.9189V27.2491C41.719 25.984 41.2497 24.7639 40.402 23.8249Z" fill="#3D76A2" stroke="#EE9B19" stroke-width="5.11028"/>
<path d="M70.0484 114.693C91.2401 114.693 108.856 100.029 108.856 81.4414C108.856 62.8542 91.2401 48.1896 70.0484 48.1896C48.8567 48.1896 31.2404 62.8542 31.2404 81.4414C31.2404 100.029 48.8567 114.693 70.0484 114.693Z" fill="#F96622" stroke="#C92325" stroke-width="3.06617"/>
<path d="M57.6017 67.9606L55.1352 73.1216L52.0995 79.9277C51.8073 80.5828 51.6562 81.292 51.6562 82.0094V86.1356C51.6562 86.8125 51.7907 87.4827 52.0519 88.1071L54.4237 93.7791C54.8835 94.8788 55.7134 95.7832 56.7696 96.3357L66.9444 101.658C67.6754 102.041 68.4882 102.24 69.3132 102.24H73.7261C75.1731 102.24 76.5457 101.599 77.474 100.489C78.7011 99.0219 78.9592 96.9736 78.1344 95.2478L76.0092 90.8009C74.8568 88.3895 76.6147 85.6011 79.2873 85.6011H80.9792H84.4905C85.7498 85.6011 86.9647 85.1362 87.9023 84.2954L88.2268 84.0044C89.3077 83.0351 89.9252 81.6517 89.9252 80.1999V79.4798C89.9252 78.7172 89.7546 77.9643 89.4257 77.2763L87.8354 73.9485C86.9866 72.1724 85.1931 71.0417 83.2246 71.0417H80.3059C79.7736 71.0417 79.2541 71.205 78.8176 71.5095L77.6272 72.3398C75.9058 73.5405 73.6623 71.81 74.3865 69.8401C74.4736 69.6031 74.5182 69.3525 74.5182 69.1V66.2762C74.5182 65.3158 74.2285 64.3776 73.687 63.5844C72.6726 62.0985 70.909 61.3091 69.125 61.5424L65.4708 62.0203C64.5612 62.1393 63.7004 62.5009 62.9788 63.0671L59.0578 66.1438C58.4391 66.6293 57.9408 67.251 57.6017 67.9606Z" fill="#EE9B19" stroke="#D10000" stroke-width="5.11028"/>
<path d="M9.82432 87.9593L11.8491 87.5179C14.197 87.0062 15.8711 84.9278 15.8711 82.5249V74.1618L10.0008 72.272C6.59551 71.1758 3.14675 73.8275 3.33133 77.4001L3.63253 83.2299C3.79523 86.3791 6.74328 88.6308 9.82432 87.9593Z" fill="#EE9B19"/>
<path d="M15.8711 73.1218V74.1618M15.8711 74.1618V82.5249C15.8711 84.9278 14.197 87.0062 11.8491 87.5179L9.82432 87.9593C6.74328 88.6308 3.79523 86.3791 3.63253 83.2299L3.33133 77.4001C3.14675 73.8275 6.59551 71.1758 10.0008 72.272L15.8711 74.1618Z" stroke="#EE9B19" stroke-width="5.11028"/>
</svg>
