<svg width="151" height="161" viewBox="0 0 151 161" fill="none" xmlns="http://www.w3.org/2000/svg">
<path d="M111.293 24.143L118.243 16.4707C118.336 16.3681 118.455 16.2931 118.588 16.2536C119.363 16.0226 119.283 14.8995 118.483 14.7803L118.441 14.7741C118.404 14.7685 118.366 14.7657 118.328 14.7657H108.276C107.758 14.7657 107.244 14.8443 106.75 14.9987L99.5944 17.2368C98.3133 17.6375 97.2412 18.5263 96.61 19.7109L93.5868 25.3843C92.9821 26.5192 92.8345 27.8426 93.1744 29.0829C94.4933 33.8956 88.7603 37.489 85.0038 34.2042L82.7527 32.2357C82.4191 31.944 82.0489 31.6969 81.6516 31.5007L74.495 27.9663C73.4286 27.4397 72.5793 26.5577 72.0935 25.4721L66.5752 13.1438C66.1546 12.2042 66.1474 11.1311 66.5554 10.1859L68.555 5.55327C69.1913 4.07904 67.6709 2.59841 66.2141 3.27349C66.0166 3.36501 65.8379 3.49259 65.6872 3.64968L62.8667 6.59033C62.59 6.87879 62.3481 7.19872 62.146 7.54356L57.3466 15.7315C57.12 16.1181 56.9452 16.5328 56.8268 16.965L54.3411 26.0354C54.1397 26.7702 54.1052 27.5408 54.2401 28.2906L55.2289 33.7886C55.4144 34.8204 56.0271 35.7259 56.9159 36.2819L62.02 39.4748C63.7138 40.5344 62.9631 43.15 60.9652 43.15L40.1753 45.2143H21.2659C21.0028 45.2143 20.7404 45.1885 20.4824 45.1373L12.88 43.6275C12.0195 43.4567 11.3947 44.428 11.907 45.1401C11.9425 45.1895 11.9826 45.2354 12.0267 45.2772L16.8053 49.8064C17.2028 50.1831 17.6582 50.4935 18.1542 50.7256L27.8662 55.2718C32.3048 57.3496 31.5567 63.8786 26.7632 64.8985L18.2402 66.712C17.6875 66.8296 17.1581 67.0381 16.6736 67.3289L3.57344 75.1926C2.42807 75.8802 2.41287 77.5349 3.54541 78.2434L11.5463 84.1316C11.8217 84.3342 12.1167 84.5087 12.4268 84.6525L20.4207 88.3566C20.7198 88.4952 21.0315 88.6045 21.3517 88.683L30.7647 90.9922C33.0995 91.5649 33.4316 94.7477 31.2653 95.79L11.4264 107.425C9.88248 108.33 10.1084 110.629 11.7991 111.216C11.9064 111.254 12.0167 111.282 12.1286 111.302L29.0978 114.25C29.5507 114.329 30.0122 114.346 30.4698 114.301L45.6203 112.821L52.225 112.026C55.4516 111.638 58.2161 114.321 57.9251 117.557L57.0052 127.787V146.882L57.9607 155.515C58.1316 157.06 60.1663 157.504 60.9652 156.171L70.3702 142.753L79.6962 131.572C80.0759 131.116 80.532 130.73 81.044 130.432L86.4606 127.269C89.4904 125.5 93.3609 127.24 94.0484 130.681L94.7572 134.228C94.9917 135.401 95.6305 136.455 96.5624 137.206L106.01 144.818L113.116 150.815C114.019 151.577 115.348 150.653 114.948 149.541C114.929 149.488 114.907 149.438 114.881 149.389L110.277 140.749C110.073 140.367 109.919 139.959 109.818 139.538L106.568 125.987C106.215 124.511 106.535 122.955 107.442 121.739L112.694 114.699C112.858 114.479 113.039 114.273 113.236 114.083L119.87 107.66L126.305 99.4026L131.685 93.3255C132.056 92.907 132.355 92.4307 132.572 91.9153L135.312 85.3849C135.575 84.7588 135.71 84.0866 135.71 83.4075V74.0552C135.71 73.4125 135.589 72.7757 135.353 72.178L132.478 64.9004C132.323 64.5078 132.12 64.1359 131.874 63.7933L126.683 56.5775C126.432 56.2286 126.138 55.9127 125.808 55.6373L117.193 48.4522C116.673 48.0182 116.244 47.4851 115.932 46.8838L110.546 36.5166C110.167 35.7888 109.97 34.9807 109.97 34.1605V27.5738C109.97 26.3057 110.442 25.0828 111.293 24.143Z" fill="#3D76A2" stroke="#EE9B19" stroke-width="5.11028"/>
<path d="M81.7531 114.354C60.6496 114.354 43.0951 99.8005 43.0951 81.3402C43.0951 62.8798 60.6496 48.3263 81.7531 48.3263C102.857 48.3263 120.411 62.8798 120.411 81.3402C120.411 99.8005 102.857 114.354 81.7531 114.354Z" fill="#F96622" stroke="#C92325" stroke-width="3.06617"/>
<path d="M94.1518 67.9686L96.6043 73.0827L99.6234 79.8276C99.9174 80.4844 100.069 81.1958 100.069 81.9154V85.9881C100.069 86.6671 99.934 87.3393 99.6713 87.9654L97.3183 93.5728C96.8569 94.6723 96.0256 95.5758 94.9683 96.1269L84.8446 101.404C84.1153 101.785 83.3049 101.983 82.4824 101.983H78.0763C76.6425 101.983 75.2821 101.349 74.3603 100.251C73.136 98.7916 72.8785 96.7513 73.7021 95.034L75.8144 90.6294C76.9614 88.2378 75.2183 85.4686 72.5658 85.4686H70.8644H67.3701C66.1139 85.4686 64.9017 85.0059 63.9649 84.1688L63.6595 83.8959C62.5747 82.9263 61.9545 81.5404 61.9545 80.0854V79.4055C61.9545 78.6406 62.1262 77.8854 62.457 77.1957L64.0285 73.9189C64.8786 72.1462 66.6703 71.0184 68.6362 71.0184H71.5374C72.0661 71.0184 72.5821 71.1801 73.0162 71.4818L74.215 72.3151C75.9268 73.5049 78.1527 71.7831 77.4311 69.8272C77.344 69.591 77.2994 69.3413 77.2994 69.0895V66.2954C77.2994 65.3379 77.589 64.4027 78.1302 63.6128C79.1391 62.1402 80.889 61.3581 82.6591 61.5888L86.3082 62.0644C87.2156 62.1827 88.0747 62.5424 88.7956 63.1061L92.6918 66.1527C93.3118 66.6375 93.8114 67.259 94.1518 67.9686Z" fill="#EE9B19" stroke="#D10000" stroke-width="5.11028"/>
<path d="M141.713 87.8048L139.736 87.3752C137.386 86.8649 135.71 84.7857 135.71 82.3814V74.115L141.532 72.2472C144.937 71.155 148.382 73.8071 148.197 77.3778L147.901 83.0755C147.738 86.2228 144.793 88.4737 141.713 87.8048Z" fill="#EE9B19"/>
<path d="M135.71 73.0828V74.115M135.71 74.115V82.3814C135.71 84.7857 137.386 86.8649 139.736 87.3752L141.713 87.8048C144.793 88.4737 147.738 86.2228 147.901 83.0755L148.197 77.3778C148.382 73.8071 144.937 71.155 141.532 72.2472L135.71 74.115Z" stroke="#EE9B19" stroke-width="5.11028"/>
</svg>
