<svg width="35" height="47" viewBox="0 0 35 47" fill="none" xmlns="http://www.w3.org/2000/svg">
<path d="M6.60125 32.0132L3.42344 21.6234C3.14675 20.7188 3.12659 19.7551 3.36522 18.8397L5.32957 11.304C5.73989 9.72995 6.87507 8.44526 8.38665 7.84431L19.133 3.57188C23.3963 1.87691 27.5604 6.22319 25.6845 10.4101L25.2343 11.415C24.1752 13.7789 25.0523 16.5614 27.2756 17.8906L29.3049 19.1038C33.2735 21.4764 32.1728 27.5019 27.6217 28.3182C25.1828 28.7556 23.432 30.913 23.506 33.3896L23.6805 39.2339C23.773 42.3297 20.6982 44.532 17.7968 43.4479C17.2164 43.231 16.6889 42.8929 16.2495 42.4561L7.88557 34.1431C7.2886 33.5497 6.84743 32.8181 6.60125 32.0132Z" fill="#D9D9D9" stroke="#E8930C" stroke-width="5.11028"/>
</svg>
