<svg width="42" height="51" viewBox="0 0 42 51" fill="none" xmlns="http://www.w3.org/2000/svg">
<path d="M24.6685 5.37398L35.1144 12.3664C36.1511 13.0604 36.8982 14.1097 37.2147 15.3164L38.5425 20.3781C38.7396 21.1298 38.7628 21.9166 38.6101 22.6786L35.4971 38.2163C35.2427 39.4862 34.5156 40.6122 33.4628 41.3665L24.8469 47.5396C24.4164 47.8481 23.9226 48.0567 23.4013 48.1504C20.9234 48.5957 18.7773 46.4015 19.2774 43.9341L20.5697 37.5574C20.6306 37.2568 20.7198 36.9626 20.836 36.6787L22.895 31.6486C23.7331 29.6009 21.7201 27.5417 19.654 28.3333C19.4526 28.4105 19.2619 28.5131 19.0866 28.6387L12.4576 33.3883C12.2055 33.5689 11.9715 33.7736 11.7589 33.9993L10.2493 35.6023C8.52383 37.4346 5.47661 36.8349 4.57422 34.4854C4.46109 34.1908 4.38932 33.882 4.36096 33.5678L3.86332 28.0544C3.75691 26.8754 4.06313 25.696 4.72967 24.7176L7.15129 21.1633C8.58844 19.0539 8.24878 16.2076 6.35564 14.4956L3.92526 12.2978C2.4091 10.9267 2.54661 8.50586 4.20828 7.3153L9.30044 3.66685C10.4347 2.85415 11.852 2.54062 13.2233 2.79906L22.7723 4.59878C23.4502 4.72655 24.0952 4.99025 24.6685 5.37398Z" fill="#D9D9D9" stroke="#E8930C" stroke-width="5.11028"/>
</svg>
