<svg width="44" height="51" viewBox="0 0 44 51" fill="none" xmlns="http://www.w3.org/2000/svg">
<path d="M36.6605 37.3794L41.0793 25.6115C41.5179 24.4435 41.5141 23.1554 41.0685 21.9901L39.1998 17.1022C38.9223 16.3763 38.4828 15.7233 37.9149 15.1928L26.3349 4.37543C25.3885 3.49132 24.1416 2.99955 22.8465 2.99955H12.2474C11.7178 2.99955 11.1949 3.11757 10.7166 3.34502C8.44301 4.42625 7.97642 7.45979 9.81998 9.17427L14.5844 13.6051C14.809 13.814 15.0528 14.0012 15.3126 14.1643L19.916 17.054C21.7899 18.2304 21.3529 21.0767 19.2123 21.6366C19.0036 21.6912 18.7889 21.7188 18.5732 21.7188H10.4183C10.1082 21.7188 9.79879 21.6887 9.49446 21.629L7.33372 21.2052C4.86396 20.7207 2.73622 22.983 3.37108 25.4185C3.45067 25.7238 3.57218 26.0166 3.73215 26.2886L6.53875 31.0602C7.13893 32.0805 8.07475 32.8609 9.18638 33.268L13.225 34.7468C15.6218 35.6245 17.0035 38.1361 16.4616 40.6303L15.7661 43.8324C15.3321 45.83 16.8539 47.7178 18.898 47.7178H25.1623C26.5577 47.7178 27.8924 47.1472 28.8565 46.1385L35.5706 39.1139C36.0473 38.6152 36.418 38.0252 36.6605 37.3794Z" fill="#D9D9D9" stroke="#E8930C" stroke-width="5.11028"/>
</svg>
