<svg width="30" height="38" viewBox="0 0 30 38" fill="none" xmlns="http://www.w3.org/2000/svg">
<path d="M5.99648 25.3983L3.58242 17.7948C3.2857 16.8603 3.26411 15.8601 3.52022 14.9136L4.89662 9.82704C5.32309 8.25098 6.477 6.97357 8.00175 6.3896L16.0888 3.2923C19.6849 1.91499 23.1318 5.61042 21.5079 9.10213C20.5707 11.1172 21.3293 13.5144 23.2551 14.6235L24.5737 15.383C27.8053 17.2442 26.9382 22.1278 23.2634 22.7628C21.3066 23.1009 19.8974 24.8281 19.9589 26.8129L20.0951 31.2064C20.174 33.7504 17.6638 35.5735 15.269 34.7114C14.7943 34.5406 14.3607 34.272 13.9963 33.923L7.33296 27.543C6.71494 26.9512 6.25541 26.2138 5.99648 25.3983Z" fill="#D9D9D9" stroke="#E8930C" stroke-width="5.11028"/>
</svg>
