<svg width="80" height="73" viewBox="0 0 80 73" fill="none" xmlns="http://www.w3.org/2000/svg">
<path d="M47.6427 65.0047V37.4679L72.8783 43.0459C76.8455 43.9228 77.9709 49.0407 74.7375 51.501C73.1007 52.7464 72.4463 54.9007 73.1138 56.8461L75.2139 62.9669C76.6523 67.159 72.4373 71.0695 68.3646 69.3214L62.6808 66.8817C60.7954 66.0725 58.6088 66.4693 57.128 67.8895L56.2902 68.6929C53.0414 71.8087 47.6427 69.5062 47.6427 65.0047Z" fill="#E14A24"/>
<path d="M1.91873 2.6293L47.6427 37.4679M47.6427 37.4679V65.0047C47.6427 69.5062 53.0414 71.8087 56.2902 68.6929L57.128 67.8895C58.6088 66.4693 60.7954 66.0725 62.6808 66.8817L68.3646 69.3214C72.4373 71.0695 76.6523 67.159 75.2139 62.9669L73.1138 56.8461C72.4463 54.9007 73.1007 52.7464 74.7375 51.501V51.501C77.9709 49.0407 76.8455 43.9228 72.8783 43.0459L47.6427 37.4679Z" stroke="#E8930C" stroke-width="5.11028"/>
</svg>
