<svg width="56" height="54" viewBox="0 0 56 54" fill="none" xmlns="http://www.w3.org/2000/svg">
<path d="M46.6666 47.494L40.2398 50.856C37.5857 52.2444 34.312 51.0628 33.1564 48.2994L28.7426 37.7442C28.4814 37.1197 28.347 36.4496 28.347 35.7727V25.8786V21.6293C28.347 18.8069 26.059 16.519 23.2367 16.519H22.9704C21.0798 16.519 19.3437 17.5628 18.457 19.2326L15.248 25.2759C15.0356 25.6759 14.8773 26.1024 14.7773 26.5442L12.9952 34.4166C12.0286 38.6865 6.43636 39.7516 3.96786 36.1359C3.3405 35.217 3.03675 34.1154 3.10451 33.0048L4.34049 12.7458C4.43555 11.1877 5.2375 9.75853 6.5178 8.86553L13.6106 3.91835C14.4682 3.32022 15.4886 2.99951 16.5341 2.99951H28.347H36.8948C37.8063 2.99951 38.7012 3.24329 39.4867 3.70559L44.8252 6.84733C45.7446 7.38839 46.4716 8.20361 46.9043 9.1787L52.2607 21.2489C52.5503 21.9015 52.7 22.6077 52.7 23.3217V35.6952C52.7 36.4221 52.5449 37.1407 52.245 37.8029L48.9532 45.0736C48.4826 46.1131 47.6777 46.9651 46.6666 47.494Z" fill="#E14A24" stroke="#E8930C" stroke-width="5.11028"/>
</svg>
