<svg width="29" height="38" viewBox="0 0 29 38" fill="none" xmlns="http://www.w3.org/2000/svg">
<path d="M5.70596 12.1095L3.29189 19.713C2.99517 20.6475 2.97358 21.6477 3.2297 22.5942L4.60609 27.6808C5.03256 29.2568 6.18648 30.5342 7.71122 31.1182L15.7982 34.2155C19.3944 35.5928 22.8413 31.8974 21.2174 28.4057C20.2802 26.3906 21.0387 23.9934 22.9645 22.8843L24.2832 22.1248C27.5148 20.2636 26.6477 15.38 22.9729 14.745C21.0161 14.4069 19.6068 12.6797 19.6684 10.6949L19.8046 6.30144C19.8835 3.75739 17.3733 1.93433 14.9785 2.79638C14.5037 2.96726 14.0702 3.23585 13.7057 3.58478L7.04243 9.96484C6.42442 10.5566 5.96488 11.294 5.70596 12.1095Z" fill="#D9D9D9" stroke="#E8930C" stroke-width="5.11028"/>
</svg>
