<svg width="80" height="73" viewBox="0 0 80 73" fill="none" xmlns="http://www.w3.org/2000/svg">
<path d="M47.6935 8.47576V36.0126L72.929 30.4346C76.8963 29.5577 78.0217 24.4397 74.7883 21.9795C73.1515 20.734 72.4971 18.5798 73.1646 16.6344L75.2647 10.5136C76.7031 6.32149 72.4881 2.41102 68.4154 4.1591L62.7316 6.59874C60.8462 7.408 58.6596 7.01118 57.1788 5.591L56.341 4.78752C53.0921 1.67172 47.6935 3.9743 47.6935 8.47576Z" fill="#E14A24"/>
<path d="M1.96951 70.8512L47.6935 36.0126M47.6935 36.0126V8.47576C47.6935 3.9743 53.0921 1.67172 56.341 4.78752L57.1788 5.591C58.6596 7.01118 60.8462 7.408 62.7316 6.59874L68.4154 4.1591C72.4881 2.41102 76.7031 6.32149 75.2647 10.5136L73.1646 16.6344C72.4971 18.5798 73.1515 20.734 74.7883 21.9795V21.9795C78.0217 24.4397 76.8963 29.5577 72.929 30.4346L47.6935 36.0126Z" stroke="#E8930C" stroke-width="5.11028"/>
</svg>
