<svg width="78" height="76" viewBox="0 0 78 76" fill="none" xmlns="http://www.w3.org/2000/svg">
<path d="M32.5589 67.1873L31.364 39.6784L6.39596 46.4493C2.47149 47.5136 1.5696 52.68 4.90609 54.9839C6.59516 56.1503 7.34233 58.2714 6.75991 60.2466L4.9278 66.46C3.67275 70.7163 8.05241 74.4232 12.0447 72.4836L17.6184 69.7758C19.4664 68.878 21.6674 69.1705 23.208 70.5187L24.0815 71.2831C27.462 74.2412 32.7542 71.6843 32.5589 67.1873Z" fill="#E14A24"/>
<path d="M75.5292 2.70407L31.364 39.6784M31.364 39.6784L32.5589 67.1873C32.7542 71.6843 27.462 74.2412 24.0815 71.2831L23.208 70.5187C21.6674 69.1705 19.4664 68.878 17.6184 69.7758L12.0447 72.4836C8.05241 74.4232 3.67275 70.7163 4.9278 66.46L6.75991 60.2466C7.34233 58.2714 6.59516 56.1503 4.90609 54.9839V54.9839C1.5696 52.68 2.47149 47.5136 6.39596 46.4493L31.364 39.6784Z" stroke="#EE9B19" stroke-width="5.11028"/>
</svg>
