<svg width="42" height="49" viewBox="0 0 42 49" fill="none" xmlns="http://www.w3.org/2000/svg">
<path d="M6.93516 11.0431L4.16763 22.1994C4.1196 22.393 3.95002 22.5324 3.75097 22.5418C3.43598 22.5567 3.23264 22.8829 3.35831 23.1717L9.49865 37.2823C9.63629 37.5986 9.80569 37.9 10.0042 38.1819L13.605 43.294C14.4806 44.5372 15.8666 45.3228 17.3849 45.4364L20.7362 45.6874C22.4264 45.8139 24.0724 45.0934 25.13 43.7639L26.102 42.5419C27.3428 40.9823 27.5687 38.8475 26.6811 37.0704L24.5907 32.8848C22.9398 29.5795 25.2448 25.6564 28.9405 25.4813L30.9688 25.3852L35.0919 25.1898C36.7716 25.1102 38.2248 23.9852 38.7245 22.3774C39.0268 21.4045 38.9463 20.3541 38.4994 19.4415L38.0927 18.6109C37.127 16.6387 35.006 15.5104 32.8267 15.8096L27.5619 16.5323C23.9105 17.0336 21.1602 13.2829 22.6408 9.90309C24.4348 5.80795 20.0577 1.68802 16.1569 3.87264L9.33727 7.84091C8.13654 8.5396 7.26947 9.69548 6.93516 11.0431Z" fill="#E14A24" stroke="#EE9B19" stroke-width="5.11028"/>
</svg>
