<svg width="44" height="51" viewBox="0 0 44 51" fill="none" xmlns="http://www.w3.org/2000/svg">
<path d="M36.6605 13.3384L41.0793 25.1063C41.5179 26.2743 41.5141 27.5623 41.0685 28.7277L39.1998 33.6155C38.9223 34.3414 38.4828 34.9945 37.9149 35.525L26.3349 46.3423C25.3885 47.2265 24.1416 47.7182 22.8465 47.7182H12.2474C11.7178 47.7182 11.1949 47.6002 10.7166 47.3728C8.44301 46.2915 7.97642 43.258 9.81998 41.5435L14.5844 37.1127C14.809 36.9038 15.0528 36.7166 15.3126 36.5535L19.916 33.6637C21.7899 32.4874 21.3529 29.641 19.2123 29.0812C19.0036 29.0266 18.7889 28.999 18.5732 28.999H10.4183C10.1082 28.999 9.79879 29.029 9.49446 29.0887L7.33372 29.5126C4.86396 29.9971 2.73622 27.7348 3.37108 25.2993C3.45067 24.994 3.57218 24.7012 3.73215 24.4292L6.53875 19.6576C7.13893 18.6372 8.07475 17.8569 9.18638 17.4498L13.225 15.9709C15.6218 15.0933 17.0035 12.5817 16.4616 10.0875L15.7661 6.88538C15.3321 4.88782 16.8539 3 18.898 3H25.1623C26.5577 3 27.8924 3.5706 28.8565 4.57932L35.5706 11.6038C36.0473 12.1025 36.418 12.6926 36.6605 13.3384Z" fill="#D9D9D9" stroke="#E8930C" stroke-width="5.11028"/>
</svg>
