<svg width="42" height="52" viewBox="0 0 42 52" fill="none" xmlns="http://www.w3.org/2000/svg">
<path d="M24.959 46.1338L35.4049 39.1414C36.4416 38.4474 37.1887 37.3982 37.5053 36.1914L38.833 31.1297C39.0302 30.378 39.0533 29.5912 38.9006 28.8292L35.7876 13.2915C35.5332 12.0216 34.8061 10.8956 33.7533 10.1413L25.1375 3.9682C24.707 3.65974 24.2131 3.45109 23.6918 3.35742C21.214 2.91216 19.0679 5.10633 19.5679 7.57374L20.8602 13.9504C20.9212 14.251 21.0103 14.5452 21.1265 14.8291L23.1855 19.8593C24.0237 21.9069 22.0106 23.9661 19.9445 23.1745C19.7431 23.0973 19.5524 22.9947 19.3771 22.8691L12.7481 18.1195C12.496 17.9389 12.262 17.7343 12.0494 17.5085L10.5398 15.9055C8.81436 14.0732 5.76713 14.673 4.86474 17.0225C4.75162 17.317 4.67985 17.6258 4.65149 17.94L4.15385 23.4534C4.04744 24.6325 4.35365 25.8118 5.0202 26.7902L7.44182 30.3445C8.87897 32.4539 8.53931 35.3002 6.64617 37.0122L4.21578 39.21C2.69963 40.5811 2.83714 43.002 4.4988 44.1925L9.59096 47.841C10.7253 48.6537 12.1425 48.9672 13.5138 48.7088L23.0628 46.909C23.7407 46.7813 24.3857 46.5176 24.959 46.1338Z" fill="#D9D9D9" stroke="#E8930C" stroke-width="5.11028"/>
</svg>
