<svg width="57" height="58" viewBox="0 0 57 58" fill="none" xmlns="http://www.w3.org/2000/svg">
<path d="M14.477 4.67399L21.4772 2.77543C24.3681 1.99138 27.3104 3.85046 27.8435 6.79797L29.8799 18.0561C30.0003 18.7222 29.9873 19.4056 29.8415 20.0666L27.71 29.7284L26.7946 33.878C26.1866 36.634 27.928 39.3611 30.684 39.9691L30.944 40.0265C32.7902 40.4338 34.7105 39.7885 35.9361 38.3489L40.3716 33.1388C40.6652 32.7939 40.9117 32.4115 41.1045 32.0016L44.5407 24.698C46.4044 20.7366 52.0948 20.9012 53.7264 24.9638C54.1411 25.9962 54.2004 27.1374 53.895 28.2073L48.3237 47.7244C47.8952 49.2255 46.8042 50.4483 45.3616 51.0445L37.3696 54.3476C36.4033 54.7469 35.3378 54.8403 34.3168 54.6151L22.7813 52.0703L14.4341 50.2289C13.5441 50.0325 12.7227 49.6017 12.0552 48.981L7.51887 44.763C6.73763 44.0366 6.2033 43.0839 5.99081 42.0385L3.36045 29.0978C3.21822 28.3981 3.2242 27.6763 3.37803 26.979L6.04359 14.896C6.20019 14.1862 6.50643 13.5179 6.94188 12.9358L11.7227 6.54497C12.4062 5.6313 13.3758 4.97266 14.477 4.67399Z" fill="#E14A24" stroke="#E8930C" stroke-width="5.11028"/>
</svg>
