<svg width="35" height="47" viewBox="0 0 35 47" fill="none" xmlns="http://www.w3.org/2000/svg">
<path d="M6.66644 14.7055L3.48862 25.0954C3.21193 26 3.19178 26.9637 3.4304 27.8791L5.39476 35.4147C5.80507 36.9888 6.94025 38.2735 8.45183 38.8744L19.1982 43.1469C23.4615 44.8418 27.6256 40.4956 25.7497 36.3087L25.2995 35.3038C24.2404 32.9398 25.1175 30.1573 27.3408 28.8281L29.3701 27.6149C33.3387 25.2423 32.2379 19.2169 27.6868 18.4006C25.248 17.9632 23.4972 15.8058 23.5712 13.3291L23.7457 7.48489C23.8382 4.38902 20.7634 2.18675 17.862 3.27085C17.2816 3.48772 16.7541 3.82582 16.3147 4.26261L7.95076 12.5757C7.35379 13.169 6.91262 13.9006 6.66644 14.7055Z" fill="#D9D9D9" stroke="#E8930C" stroke-width="5.11028"/>
</svg>
