<svg width="85" height="107" viewBox="0 0 85 107" fill="none" xmlns="http://www.w3.org/2000/svg">
<path d="M10.5078 48.8994L22.1157 54.2972L27.9903 38.3086C28.2241 37.6722 28.3294 36.9962 28.3 36.3198L27.8708 26.4362L27.6864 22.1917C27.5639 19.372 29.75 16.9776 32.5692 16.8435L32.8362 16.8308C34.7245 16.7411 36.5039 17.7013 37.4621 19.3272L40.93 25.2118C41.1596 25.6015 41.3363 26.0201 41.4554 26.4568L43.5772 34.2362C44.7282 38.4563 50.3603 39.2549 52.6695 35.5255C53.2565 34.5775 53.5122 33.4622 53.3963 32.3556L51.2827 12.1772C51.1201 10.625 50.2569 9.23512 48.9391 8.40381L41.6388 3.79853C40.7563 3.24184 39.7233 2.96998 38.6791 3.01963L26.878 3.58069L18.3386 3.98669C17.4283 4.02997 16.5452 4.31594 15.7806 4.81496L10.5837 8.2072C9.68876 8.79136 8.99786 9.6403 8.60788 10.635L3.78091 22.9468C3.51984 23.6127 3.40096 24.3254 3.43195 25.0389L3.96881 37.399C4.00035 38.1254 4.18651 38.836 4.51483 39.4835L8.11853 46.59C8.6338 47.6061 9.47489 48.4191 10.5078 48.8994Z" fill="#E14A24"/>
<path d="M82.0321 105.062L67.2372 76.4612C66.3235 74.695 64.4651 73.6249 62.4757 73.7194L45.5787 74.5228C44.185 74.589 42.8272 74.0825 41.8204 73.1207L22.1157 54.2972M22.1157 54.2972L10.5078 48.8994C9.47489 48.4191 8.6338 47.6061 8.11853 46.59L4.51483 39.4835C4.18651 38.836 4.00035 38.1254 3.96881 37.399L3.43195 25.0389C3.40096 24.3254 3.51984 23.6127 3.78091 22.9468L8.60788 10.635C8.99786 9.6403 9.68876 8.79136 10.5837 8.2072L15.7806 4.81496C16.5452 4.31593 17.4283 4.02997 18.3386 3.98669L26.878 3.58069L38.6791 3.01962C39.7233 2.96998 40.7563 3.24183 41.6388 3.79852L48.9391 8.40381C50.2569 9.23512 51.1201 10.625 51.2827 12.1772L53.3963 32.3556C53.5122 33.4622 53.2565 34.5775 52.6695 35.5255V35.5255C50.3603 39.2549 44.7282 38.4563 43.5772 34.2362L41.4554 26.4568C41.3363 26.0201 41.1596 25.6015 40.93 25.2118L37.4621 19.3272C36.5039 17.7013 34.7245 16.7411 32.8362 16.8308L32.5692 16.8435C29.75 16.9776 27.5639 19.372 27.6864 22.1917L27.8708 26.4362L28.3 36.3198C28.3294 36.9962 28.2241 37.6722 27.9903 38.3086L22.1157 54.2972Z" stroke="#EE9B19" stroke-width="5.11028"/>
</svg>
