<svg width="34" height="47" viewBox="0 0 34 47" fill="none" xmlns="http://www.w3.org/2000/svg">
<path d="M5.95697 31.8023L2.77915 21.4124C2.50246 20.5078 2.4823 19.5441 2.72093 18.6287L4.68528 11.0931C5.0956 9.51902 6.23078 8.23433 7.74236 7.63337L18.4887 3.36095C22.752 1.66597 26.9161 6.01225 25.0403 10.1991L24.59 11.204C23.5309 13.568 24.408 16.3505 26.6314 17.6797L28.6606 18.8929C32.6292 21.2655 31.5285 27.291 26.9774 28.1072C24.5385 28.5446 22.7877 30.702 22.8617 33.1787L23.0362 39.0229C23.1287 42.1188 20.0539 44.3211 17.1526 43.237C16.5722 43.0201 16.0446 42.682 15.6052 42.2452L7.24129 33.9321C6.64432 33.3388 6.20314 32.6072 5.95697 31.8023Z" fill="#D9D9D9" stroke="#E8930C" stroke-width="5.11028"/>
</svg>
