<svg width="78" height="76" viewBox="0 0 78 76" fill="none" xmlns="http://www.w3.org/2000/svg">
<path d="M32.719 8.83614L31.5242 36.345L6.55612 29.5741C2.63164 28.5099 1.72975 23.3435 5.06624 21.0395C6.75532 19.8731 7.50249 17.752 6.92006 15.7768L5.08796 9.56345C3.83291 5.30711 8.21257 1.60024 12.2049 3.53982L17.7786 6.24766C19.6265 7.14545 21.8275 6.85291 23.3682 5.50474L24.2417 4.74039C27.6222 1.78228 32.9144 4.33915 32.719 8.83614Z" fill="#E14A24"/>
<path d="M75.6894 73.3194L31.5242 36.345M31.5242 36.345L32.719 8.83614C32.9143 4.33915 27.6222 1.78228 24.2417 4.74039L23.3682 5.50474C21.8275 6.85291 19.6265 7.14545 17.7786 6.24766L12.2049 3.53982C8.21257 1.60024 3.83291 5.30711 5.08796 9.56345L6.92006 15.7768C7.50249 17.752 6.75532 19.8731 5.06624 21.0395V21.0395C1.72975 23.3435 2.63164 28.5099 6.55612 29.5741L31.5242 36.345Z" stroke="#EE9B19" stroke-width="5.11028"/>
</svg>
