<svg width="45" height="51" viewBox="0 0 45 51" fill="none" xmlns="http://www.w3.org/2000/svg">
<path d="M36.7379 13.3384L41.1567 25.1063C41.5953 26.2743 41.5915 27.5623 41.1459 28.7277L39.2772 33.6155C38.9997 34.3414 38.5602 34.9945 37.9923 35.525L26.4123 46.3423C25.4659 47.2265 24.219 47.7182 22.9239 47.7182H12.3248C11.7952 47.7182 11.2723 47.6002 10.794 47.3728C8.5204 46.2915 8.05381 43.258 9.89737 41.5435L14.6618 37.1127C14.8864 36.9038 15.1302 36.7166 15.39 36.5535L19.9934 33.6637C21.8673 32.4874 21.4302 29.641 19.2897 29.0812C19.081 29.0266 18.8663 28.999 18.6506 28.999H10.4957C10.1856 28.999 9.87619 29.029 9.57185 29.0887L7.41111 29.5126C4.94135 29.9971 2.81361 27.7348 3.44847 25.2993C3.52806 24.994 3.64957 24.7012 3.80954 24.4292L6.61614 19.6576C7.21632 18.6372 8.15215 17.8569 9.26377 17.4498L13.3024 15.9709C15.6992 15.0933 17.0808 12.5817 16.539 10.0875L15.8434 6.88538C15.4095 4.88782 16.9313 3 18.9754 3H25.2397C26.6351 3 27.9698 3.5706 28.9339 4.57932L35.648 11.6038C36.1247 12.1025 36.4954 12.6926 36.7379 13.3384Z" fill="#D9D9D9" stroke="#E8930C" stroke-width="5.11028"/>
</svg>
