<svg width="87" height="88" viewBox="0 0 87 88" fill="none" xmlns="http://www.w3.org/2000/svg">
<path d="M9.6039 49.2334L47.179 43.8033L48.7591 11.4562L33.5261 4.37267L32.1944 19.5309L17.7513 7.72524L10.304 8.07932L2.85666 8.43339L3.21765 16.7445L5.51946 23.9223L15.4265 34.3821L9.6039 49.2334Z" fill="#E0C46D"/>
<path d="M84.2571 84.2022L47.179 43.8033M47.179 43.8033L9.6039 49.2334L15.4265 34.3821L5.51946 23.9223L3.21765 16.7445L2.85666 8.43339L10.304 8.07931L17.7513 7.72524L32.1944 19.5309L33.5261 4.37267L48.7591 11.4562L47.179 43.8033Z" stroke="#EE9B19" stroke-width="5.11028"/>
<path d="M16.3533 44.2275L46.1425 42.8112L44.5178 28.314L33.5501 16.3431L32.5796 28.3611L18.1137 27.4873L16.3533 44.2275Z" fill="#E14A24" stroke="#EE9B19" stroke-width="5.11028"/>
</svg>
