<svg width="80" height="109" viewBox="0 0 80 109" fill="none" xmlns="http://www.w3.org/2000/svg">
<path d="M71.3339 61.0385L59.9722 55.095L53.4098 70.7883C53.1487 71.4127 53.0142 72.0829 53.0142 72.7598V82.6539V86.9032C53.0142 89.7256 50.7262 92.0135 47.9039 92.0135H47.6377C45.7471 92.0135 44.0109 90.9697 43.1243 89.2999L39.9153 83.2566C39.7028 82.8566 39.5445 82.43 39.4445 81.9883L37.6624 74.1159C36.6958 69.8459 31.1036 68.7809 28.6351 72.3965C28.0077 73.3155 27.704 74.417 27.7717 75.5276L29.0077 95.7867C29.1028 97.3448 29.9047 98.7739 31.185 99.6669L38.2779 104.614C39.1354 105.212 40.1558 105.533 41.2013 105.533H53.0142H61.5621C62.4735 105.533 63.3684 105.289 64.154 104.827L69.4925 101.685C70.4118 101.144 71.1389 100.329 71.5716 99.3538L76.9279 87.2836C77.2175 86.6309 77.3672 85.9248 77.3672 85.2108V72.8373C77.3672 72.1103 77.2121 71.3918 76.9123 70.7295L73.6205 63.4589C73.1499 62.4194 72.3449 61.5674 71.3339 61.0385Z" fill="#E14A24"/>
<path d="M2.32023 1.53711L15.8589 30.8107C16.695 32.6185 18.5053 33.7758 20.4971 33.7758H37.4105C38.8059 33.7758 40.1406 34.3464 41.1047 35.3551L59.9722 55.095M59.9722 55.095L71.3339 61.0385C72.3449 61.5674 73.1499 62.4194 73.6205 63.4589L76.9123 70.7295C77.2121 71.3918 77.3672 72.1103 77.3672 72.8373V85.2108C77.3672 85.9248 77.2175 86.6309 76.9279 87.2836L71.5716 99.3538C71.1389 100.329 70.4118 101.144 69.4925 101.685L64.154 104.827C63.3684 105.289 62.4735 105.533 61.5621 105.533H53.0142H41.2013C40.1558 105.533 39.1354 105.212 38.2779 104.614L31.185 99.667C29.9047 98.774 29.1028 97.3448 29.0077 95.7867L27.7717 75.5276C27.704 74.417 28.0077 73.3155 28.6351 72.3965V72.3965C31.1036 68.7809 36.6958 69.8459 37.6624 74.1159L39.4445 81.9883C39.5445 82.43 39.7028 82.8566 39.9153 83.2566L43.1243 89.2999C44.0109 90.9697 45.7471 92.0135 47.6377 92.0135H47.9039C50.7262 92.0135 53.0142 89.7256 53.0142 86.9032V82.6539V72.7598C53.0142 72.0829 53.1487 71.4127 53.4098 70.7883L59.9722 55.095Z" stroke="#E8930C" stroke-width="5.11028"/>
</svg>
