<svg width="35" height="47" viewBox="0 0 35 47" fill="none" xmlns="http://www.w3.org/2000/svg">
<path d="M6.60101 14.7055L3.42319 25.0954C3.1465 26 3.12635 26.9637 3.36497 27.8791L5.32933 35.4147C5.73964 36.9888 6.87482 38.2735 8.3864 38.8744L19.1327 43.1469C23.3961 44.8418 27.5602 40.4956 25.6843 36.3087L25.2341 35.3038C24.175 32.9398 25.0521 30.1573 27.2754 28.8281L29.3047 27.6149C33.2732 25.2423 32.1725 19.2169 27.6214 18.4006C25.1826 17.9632 23.4318 15.8058 23.5057 13.3291L23.6803 7.48489C23.7728 4.38902 20.6979 2.18675 17.7966 3.27085C17.2162 3.48772 16.6887 3.82582 16.2492 4.26261L7.88533 12.5757C7.28836 13.169 6.84719 13.9006 6.60101 14.7055Z" fill="#D9D9D9" stroke="#E8930C" stroke-width="5.11028"/>
</svg>
