<svg width="83" height="88" viewBox="0 0 83 88" fill="none" xmlns="http://www.w3.org/2000/svg">
<path d="M75.0964 40.2578L37.3244 43.8976L34.3424 76.1363L49.2524 83.936L51.2404 68.8566L65.1564 81.3361H72.6114H80.0664V73.0165L78.0784 65.7368L68.6354 54.8172L75.0964 40.2578Z" fill="#E0C46D"/>
<path d="M2.03745 1.7793L37.3244 43.8976M37.3244 43.8976L75.0964 40.2578L68.6354 54.8172L78.0784 65.7368L80.0664 73.0165V81.3361H72.6114H65.1564L51.2404 68.8566L49.2524 83.936L34.3424 76.1363L37.3244 43.8976Z" stroke="#E8930C" stroke-width="5.11028"/>
<path d="M68.1414 44.9375H38.3214L39.3154 59.4969L49.7524 71.9764L51.2434 60.0169L65.6564 61.5768L68.1414 44.9375Z" fill="#E14A24" stroke="#E8930C" stroke-width="5.11028"/>
</svg>
