<svg width="217" height="642" viewBox="0 0 217 642" fill="none" xmlns="http://www.w3.org/2000/svg">
<path d="M4.94867 4.49325L5.95866 3.79125C6.70074 3.27546 7.52024 2.88116 8.38636 2.62315C9.80039 2.20194 11.2996 2.15557 12.737 2.48858L13.9684 2.77389C14.6535 2.93262 15.3205 3.16165 15.9586 3.45733L17.4543 4.15039C18.7722 4.76107 19.9448 5.64565 20.8939 6.74517L23.9088 10.2377L210.192 276.196C211.062 277.438 211.644 278.858 211.898 280.354L212.998 286.856L214.715 302.067C214.888 303.604 214.71 305.16 214.195 306.618L213.307 309.131C212.188 312.299 209.547 314.69 206.283 315.491L205.014 315.802C203.77 316.108 202.46 316.006 201.277 315.513C199.336 314.703 197.96 312.935 197.653 310.854L197.268 308.241C197.195 307.747 197.158 307.248 197.158 306.749V303.932C197.158 302.876 196.994 301.826 196.673 300.82L196.62 300.656C196.321 299.718 195.887 298.828 195.332 298.015L3.90229 16.9699C2.74685 15.2736 2.12891 13.2687 2.12891 11.2162V9.88714C2.12891 8.44112 2.60604 7.03551 3.48632 5.8883C3.89889 5.35063 4.39218 4.88005 4.94867 4.49325Z" fill="#EE9B19" stroke="#C92325" stroke-width="3.06617"/>
<path d="M4.94867 637.857L5.95866 638.559C6.70074 639.075 7.52024 639.469 8.38636 639.727C9.80039 640.149 11.2996 640.195 12.737 639.862L13.9684 639.577C14.6535 639.418 15.3205 639.189 15.9586 638.893L17.4543 638.2C18.7722 637.59 19.9448 636.705 20.8939 635.605L23.9088 632.113L209.204 365.455C209.751 364.667 210.184 363.807 210.491 362.9L212.646 356.535C212.88 355.843 213.039 355.129 213.121 354.404L214.715 340.283C214.888 338.747 214.71 337.19 214.195 335.732L213.307 333.22C212.188 330.051 209.547 327.66 206.283 326.86L205.014 326.548C203.77 326.243 202.46 326.344 201.277 326.838C199.336 327.647 197.96 329.415 197.653 331.497L197.268 334.11C197.195 334.604 197.158 335.102 197.158 335.602V340.012C197.158 341.693 196.651 343.335 195.702 344.723L3.91108 625.376C2.75005 627.075 2.12891 629.085 2.12891 631.143V632.463C2.12891 633.909 2.60604 635.315 3.48632 636.462C3.89889 637 4.39218 637.471 4.94867 637.857Z" fill="#EE9B19" stroke="#C92325" stroke-width="3.06617"/>
<path d="M30.8408 623.856L20.4458 601.664L36.2857 576.893L47.1757 599.084L30.8408 623.856Z" fill="#C92325" stroke="#C92325" stroke-width="1.02206"/>
<path d="M66.9692 569.667L57.5642 549.024L73.4042 524.252L84.2941 546.443L66.9692 569.667Z" fill="#C92325" stroke="#C92325" stroke-width="1.02206"/>
<path d="M109.54 508.769L100.135 488.126L115.975 463.354L126.865 485.546L109.54 508.769Z" fill="#C92325" stroke="#C92325" stroke-width="1.02206"/>
<path d="M156.072 439.615L146.667 418.972L162.507 394.2L173.397 416.392L156.072 439.615Z" fill="#C92325" stroke="#C92325" stroke-width="1.02206"/>
<path d="M39.2558 31.9128L28.8608 54.1042L44.7008 78.876L55.5907 56.6846L39.2558 31.9128Z" fill="#C92325" stroke="#C92325" stroke-width="1.02206"/>
<path d="M75.3879 86.1017L65.9829 106.745L81.8229 131.517L92.7128 109.325L75.3879 86.1017Z" fill="#C92325" stroke="#C92325" stroke-width="1.02206"/>
<path d="M117.958 146.998L108.553 167.641L124.393 192.413L135.283 170.222L117.958 146.998Z" fill="#C92325" stroke="#C92325" stroke-width="1.02206"/>
<path d="M165.477 214.089L155.082 236.797L170.922 261.568L181.812 236.797L165.477 214.089Z" fill="#C92325" stroke="#C92325" stroke-width="1.02206"/>
<path d="M197.656 335.368V341.561L191.716 351.366L200.626 359.624L209.041 364.784L213.001 356.527L214.486 348.786V340.529V335.368L212.011 331.239L209.041 327.627L202.111 325.562L198.646 329.175L197.656 335.368Z" fill="#C92325" stroke="#C92325" stroke-width="1.02206"/>
<path d="M197.16 309.563V303.37L188.25 286.855L202.605 276.534L208.05 272.405L210.525 275.502L213.495 285.823V291.5V298.209V304.402V308.015L212.01 311.627L204.09 315.24L200.13 313.692L197.16 309.563Z" fill="#C92325" stroke="#C92325" stroke-width="1.02206"/>
</svg>
