<svg width="218" height="647" viewBox="0 0 218 647" fill="none" xmlns="http://www.w3.org/2000/svg">
<path d="M212.783 4.46258L211.77 3.75577C211.026 3.23697 210.204 2.84021 209.336 2.58048C207.915 2.15592 206.409 2.10918 204.965 2.44488L203.728 2.73238C203.041 2.89208 202.373 3.12245 201.733 3.41979L200.222 4.12239C198.904 4.7354 197.732 5.62262 196.784 6.72481L193.749 10.2523L6.7014 278.237C5.83548 279.478 5.25578 280.895 5.00415 282.387L3.89531 288.961L2.16904 304.313C1.99678 305.845 2.17326 307.396 2.68527 308.85L3.59225 311.425C4.71179 314.605 7.35823 317.006 10.6311 317.811L11.9057 318.125C13.1589 318.434 14.4779 318.331 15.6684 317.833C17.6151 317.018 18.993 315.244 19.3 313.156L19.6906 310.5C19.763 310.008 19.7993 309.511 19.7993 309.013V306.149C19.7993 305.097 19.962 304.05 20.2816 303.047L20.3436 302.852C20.6418 301.916 21.0735 301.028 21.6253 300.215L213.853 17.011C215.003 15.3175 215.617 13.3179 215.617 11.2711V9.89408C215.617 8.44014 215.139 7.02661 214.256 5.87163C213.84 5.32881 213.344 4.8535 212.783 4.46258Z" fill="#EE9B19" stroke="#C92325" stroke-width="3.06617"/>
<path d="M212.783 642.617L211.77 643.324C211.026 643.843 210.204 644.24 209.336 644.5C207.915 644.924 206.409 644.971 204.965 644.635L203.728 644.348C203.041 644.188 202.373 643.958 201.733 643.66L200.222 642.958C198.904 642.345 197.732 641.457 196.784 640.355L193.749 636.828L7.69812 368.144C7.15361 367.358 6.72217 366.499 6.41644 365.592L4.24519 359.156C4.0126 358.467 3.85431 357.754 3.77299 357.031L2.16904 342.767C1.99678 341.235 2.17326 339.684 2.68527 338.23L3.59225 335.655C4.71179 332.475 7.35823 330.075 10.6311 329.269L11.9057 328.955C13.1589 328.647 14.4779 328.749 15.6684 329.247C17.6151 330.062 18.993 331.836 19.3 333.924L19.6906 336.58C19.763 337.073 19.7993 337.569 19.7993 338.067V342.519C19.7993 344.213 20.3092 345.868 21.2627 347.268L213.844 630.065C214.999 631.761 215.617 633.765 215.617 635.818V637.186C215.617 638.64 215.139 640.053 214.256 641.208C213.84 641.751 213.344 642.227 212.783 642.617Z" fill="#EE9B19" stroke="#C92325" stroke-width="3.06617"/>
<path d="M186.789 628.508L197.226 606.148L181.322 581.189L170.388 603.549L186.789 628.508Z" fill="#C92325" stroke="#C92325" stroke-width="1.02206"/>
<path d="M150.515 573.91L159.958 553.11L144.054 528.151L133.12 550.51L150.515 573.91Z" fill="#C92325" stroke="#C92325" stroke-width="1.02206"/>
<path d="M107.772 512.552L117.215 491.753L101.311 466.794L90.3771 489.153L107.772 512.552Z" fill="#C92325" stroke="#C92325" stroke-width="1.02206"/>
<path d="M61.0516 442.875L70.4946 422.076L54.5906 397.117L43.6566 419.476L61.0516 442.875Z" fill="#C92325" stroke="#C92325" stroke-width="1.02206"/>
<path d="M178.34 32.0911L188.777 54.4502L172.873 79.4092L161.939 57.0501L178.34 32.0911Z" fill="#C92325" stroke="#C92325" stroke-width="1.02206"/>
<path d="M142.062 86.6891L151.505 107.488L135.601 132.447L124.667 110.088L142.062 86.6891Z" fill="#C92325" stroke="#C92325" stroke-width="1.02206"/>
<path d="M99.3192 148.047L108.762 168.846L92.8582 193.805L81.9242 171.446L99.3192 148.047Z" fill="#C92325" stroke="#C92325" stroke-width="1.02206"/>
<path d="M51.6087 215.644L62.0457 238.523L46.1417 263.482L35.2077 238.523L51.6087 215.644Z" fill="#C92325" stroke="#C92325" stroke-width="1.02206"/>
<path d="M19.2997 337.84V344.079L25.2637 353.959L16.3177 362.279L7.86868 367.478L3.89269 359.159L2.40169 351.359V343.039V337.84L4.88669 333.68L7.86868 330.04L14.8267 327.96L18.3057 331.6L19.2997 337.84Z" fill="#C92325" stroke="#C92325" stroke-width="1.02206"/>
<path d="M19.7974 311.84V305.6L28.7434 288.961L14.3304 278.561L8.86342 274.401L6.37842 277.521L3.39643 287.921V293.641V300.4V306.64V310.28L4.88742 313.92L12.8394 317.56L16.8154 316L19.7974 311.84Z" fill="#C92325" stroke="#C92325" stroke-width="1.02206"/>
</svg>
